<?xml version="1.0" encoding="utf-8"?>
<!-- Generator: Adobe Illustrator 23.0.2, SVG Export Plug-In . SVG Version: 6.00 Build 0)  -->
<svg version="1.1" id="Layer_1" xmlns="http://www.w3.org/2000/svg" xmlns:xlink="http://www.w3.org/1999/xlink" x="0px" y="0px"
	 viewBox="0 0 231.28999 265.42001" style="enable-background:new 0 0 231.28999 265.42001;" xml:space="preserve">
<style type="text/css">
	.st0{fill:#0E144F;}
	.st1{fill:#FFFFFF;}
	.st2{fill:#FFD96E;}
	.st3{fill:none;}
	.st4{fill:#FFC648;}
	.st5{fill:#FFB53E;}
	.st6{fill:#FF841F;}
	.st7{fill:#DB2A4C;}
	.st8{enable-background:new    ;}
	.st9{font-family:'Inter-Bold';}
	.st10{font-size:13.95px;}
	.st11{font-family:'Inter-Regular';}
	.st12{font-size:10.44px;}
</style>
<path class="st0" d="M178.82001,219.52c-0.10782-0.00047-0.21007-0.04794-0.28-0.13c-0.14352-0.14751-0.14352-0.38249,0-0.53
	c0.50999-0.44,1-0.88,1.49001-1.32001c0.14261-0.14636,0.37686-0.1494,0.52321-0.00679
	c0.0023,0.00224,0.00456,0.0045,0.00679,0.00679c0.14352,0.14751,0.14352,0.38249,0,0.53l-1.50999,1.33
	C178.99092,219.46719,178.90894,219.50998,178.82001,219.52z M177.19,219.52h-2c-0.20711-0.03394-0.34749-0.22934-0.31355-0.43645
	c0.02637-0.16098,0.15256-0.28717,0.31355-0.31355h2c0.20711-0.03394,0.40251,0.10645,0.43645,0.31355
	c0.03392,0.20711-0.10646,0.40251-0.31357,0.43645C177.2722,219.52667,177.2307,219.52667,177.19,219.52z M173.19,219.52h-2
	c-0.20711-0.03394-0.34749-0.22934-0.31355-0.43645c0.02637-0.16098,0.15256-0.28717,0.31355-0.31355h2
	c0.20711-0.03394,0.40251,0.10645,0.43645,0.31355c0.03392,0.20711-0.10646,0.40251-0.31357,0.43645
	C173.2722,219.52667,173.2307,219.52667,173.19,219.52z M169.19,219.52h-2c-0.20711-0.03394-0.34749-0.22934-0.31355-0.43645
	c0.02637-0.16098,0.15256-0.28717,0.31355-0.31355h2c0.20711-0.03394,0.40251,0.10645,0.43645,0.31355
	c0.03392,0.20711-0.10646,0.40251-0.31357,0.43645C169.2722,219.52667,169.2307,219.52667,169.19,219.52z M165.19,219.52h-2
	c-0.20711-0.03394-0.34749-0.22934-0.31355-0.43645c0.02637-0.16098,0.15256-0.28717,0.31355-0.31355h2
	c0.20711-0.03394,0.40251,0.10645,0.43645,0.31355c0.03392,0.20711-0.10646,0.40251-0.31357,0.43645
	C165.2722,219.52667,165.2307,219.52667,165.19,219.52z M161.19,219.52h-2c-0.20711-0.03394-0.34749-0.22934-0.31355-0.43645
	c0.02637-0.16098,0.15256-0.28717,0.31355-0.31355h2c0.20711-0.03394,0.40251,0.10645,0.43645,0.31355
	c0.03392,0.20711-0.10646,0.40251-0.31357,0.43645C161.2722,219.52667,161.2307,219.52667,161.19,219.52z M157.19,219.52h-2
	c-0.20711-0.03394-0.34749-0.22934-0.31355-0.43645c0.02637-0.16098,0.15256-0.28717,0.31355-0.31355h2
	c0.20711-0.03394,0.40251,0.10645,0.43645,0.31355c0.03392,0.20711-0.10646,0.40251-0.31357,0.43645
	C157.2722,219.52667,157.2307,219.52667,157.19,219.52z M153.19,219.52h-2c-0.20711-0.03394-0.34749-0.22934-0.31355-0.43645
	c0.02637-0.16098,0.15256-0.28717,0.31355-0.31355h2c0.20711-0.03394,0.40251,0.10645,0.43645,0.31355
	c0.03392,0.20711-0.10646,0.40251-0.31357,0.43645C153.2722,219.52667,153.2307,219.52667,153.19,219.52z M149.19,219.52h-2
	c-0.20711-0.03394-0.34749-0.22934-0.31355-0.43645c0.02637-0.16098,0.15256-0.28717,0.31355-0.31355h2
	c0.20711-0.03394,0.40251,0.10645,0.43645,0.31355c0.03392,0.20711-0.10646,0.40251-0.31357,0.43645
	C149.2722,219.52667,149.2307,219.52667,149.19,219.52z M145.19,219.52h-2c-0.20711-0.03394-0.34749-0.22934-0.31355-0.43645
	c0.02637-0.16098,0.15256-0.28717,0.31355-0.31355h2c0.20711-0.03394,0.40251,0.10645,0.43645,0.31355
	c0.03392,0.20711-0.10646,0.40251-0.31357,0.43645C145.2722,219.52667,145.2307,219.52667,145.19,219.52z M141.19,219.52h-2
	c-0.20711-0.03394-0.34749-0.22934-0.31355-0.43645c0.02637-0.16098,0.15256-0.28717,0.31355-0.31355h2
	c0.20711-0.03394,0.40251,0.10645,0.43645,0.31355c0.03392,0.20711-0.10646,0.40251-0.31357,0.43645
	C141.2722,219.52667,141.2307,219.52667,141.19,219.52z M137.19,219.52h-2c-0.20711-0.03394-0.34749-0.22934-0.31355-0.43645
	c0.02637-0.16098,0.15256-0.28717,0.31355-0.31355h2c0.20711-0.03394,0.40251,0.10645,0.43645,0.31355
	c0.03392,0.20711-0.10646,0.40251-0.31357,0.43645C137.2722,219.52667,137.2307,219.52667,137.19,219.52z M133.19,219.52h-2
	c-0.20711-0.03394-0.34749-0.22934-0.31355-0.43645c0.02637-0.16098,0.15256-0.28717,0.31355-0.31355h2
	c0.20711-0.03394,0.40251,0.10645,0.43645,0.31355c0.03392,0.20711-0.10646,0.40251-0.31357,0.43645
	C133.2722,219.52667,133.2307,219.52667,133.19,219.52z M129.19,219.52h-2c-0.20711-0.03394-0.34749-0.22934-0.31356-0.43645
	c0.02638-0.16098,0.15257-0.28717,0.31356-0.31355h2c0.20711-0.03394,0.40251,0.10645,0.43645,0.31355
	c0.03392,0.20711-0.10646,0.40251-0.31357,0.43645C129.2722,219.52667,129.2307,219.52667,129.19,219.52z M125.19,219.52h-2
	c-0.20711-0.03394-0.34749-0.22934-0.31356-0.43645c0.02638-0.16098,0.15257-0.28717,0.31356-0.31355h2
	c0.20711-0.03394,0.40251,0.10645,0.43644,0.31355c0.03394,0.20711-0.10645,0.40251-0.31356,0.43645
	C125.27219,219.52667,125.23069,219.52667,125.19,219.52z M121.19,219.52h-2c-0.20711-0.03394-0.34749-0.22934-0.31356-0.43645
	c0.02638-0.16098,0.15257-0.28717,0.31356-0.31355h2c0.20711-0.03394,0.40251,0.10645,0.43644,0.31355
	c0.03394,0.20711-0.10645,0.40251-0.31356,0.43645C121.27219,219.52667,121.23069,219.52667,121.19,219.52z M117.19,219.52h-2
	c-0.20711-0.03394-0.34749-0.22934-0.31356-0.43645c0.02638-0.16098,0.15257-0.28717,0.31356-0.31355h2
	c0.20711-0.03394,0.40251,0.10645,0.43644,0.31355c0.03394,0.20711-0.10645,0.40251-0.31356,0.43645
	C117.27219,219.52667,117.23069,219.52667,117.19,219.52z M113.19,219.52h-2c-0.20711-0.03394-0.34749-0.22934-0.31356-0.43645
	c0.02638-0.16098,0.15257-0.28717,0.31356-0.31355h2c0.20711-0.03394,0.40251,0.10645,0.43644,0.31355
	c0.03394,0.20711-0.10645,0.40251-0.31356,0.43645C113.27219,219.52667,113.23069,219.52667,113.19,219.52z M109.19,219.52h-2
	c-0.20711-0.03394-0.34749-0.22934-0.31356-0.43645c0.02638-0.16098,0.15257-0.28717,0.31356-0.31355h2
	c0.20711-0.03394,0.40251,0.10645,0.43644,0.31355c0.03394,0.20711-0.10645,0.40251-0.31356,0.43645
	C109.27219,219.52667,109.23069,219.52667,109.19,219.52z M105.19,219.52h-2c-0.20711-0.03394-0.34749-0.22934-0.31356-0.43645
	c0.02638-0.16098,0.15257-0.28717,0.31356-0.31355h2c0.20711-0.03394,0.40251,0.10645,0.43644,0.31355
	c0.03394,0.20711-0.10645,0.40251-0.31356,0.43645C105.27219,219.52667,105.23069,219.52667,105.19,219.52z M101.19,219.52h-2
	c-0.20711-0.03394-0.34749-0.22934-0.31356-0.43645c0.02638-0.16098,0.15257-0.28717,0.31356-0.31355h2
	c0.20711-0.03394,0.40251,0.10645,0.43644,0.31355c0.03394,0.20711-0.10645,0.40251-0.31356,0.43645
	C101.27219,219.52667,101.23069,219.52667,101.19,219.52z M97.19,219.52h-2c-0.20711-0.03394-0.34749-0.22934-0.31356-0.43645
	c0.02638-0.16098,0.15257-0.28717,0.31356-0.31355h2c0.20711-0.03394,0.40251,0.10645,0.43644,0.31355
	c0.03394,0.20711-0.10645,0.40251-0.31356,0.43645C97.27219,219.52667,97.23069,219.52667,97.19,219.52z M93.19,219.52h-2
	c-0.20711-0.03394-0.34749-0.22934-0.31356-0.43645c0.02638-0.16098,0.15257-0.28717,0.31356-0.31355h2
	c0.20711-0.03394,0.40251,0.10645,0.43644,0.31355c0.03394,0.20711-0.10645,0.40251-0.31356,0.43645
	C93.27219,219.52667,93.23069,219.52667,93.19,219.52z M89.19,219.52h-2c-0.20711-0.03394-0.34749-0.22934-0.31356-0.43645
	c0.02638-0.16098,0.15257-0.28717,0.31356-0.31355h2c0.20711-0.03394,0.40251,0.10645,0.43644,0.31355
	c0.03394,0.20711-0.10645,0.40251-0.31356,0.43645C89.27219,219.52667,89.23069,219.52667,89.19,219.52z M85.19,219.52h-2
	c-0.20711-0.03394-0.34749-0.22934-0.31356-0.43645c0.02638-0.16098,0.15257-0.28717,0.31356-0.31355h2
	c0.20711-0.03394,0.40251,0.10645,0.43644,0.31355c0.03394,0.20711-0.10645,0.40251-0.31356,0.43645
	C85.27219,219.52667,85.23069,219.52667,85.19,219.52z M81.19,219.52h-2c-0.20711-0.03394-0.34749-0.22934-0.31356-0.43645
	c0.02638-0.16098,0.15257-0.28717,0.31356-0.31355h2c0.20711-0.03394,0.40251,0.10645,0.43644,0.31355
	c0.03394,0.20711-0.10645,0.40251-0.31356,0.43645C81.27219,219.52667,81.23069,219.52667,81.19,219.52z M77.19,219.52h-2
	c-0.20711-0.03394-0.34749-0.22934-0.31356-0.43645c0.02638-0.16098,0.15257-0.28717,0.31356-0.31355h2
	c0.20711-0.03394,0.40251,0.10645,0.43644,0.31355c0.03394,0.20711-0.10645,0.40251-0.31356,0.43645
	C77.27219,219.52667,77.23069,219.52667,77.19,219.52z M73.19,219.52h-2c-0.20711-0.03394-0.34749-0.22934-0.31356-0.43645
	c0.02638-0.16098,0.15257-0.28717,0.31356-0.31355h2c0.20711-0.03394,0.40251,0.10645,0.43644,0.31355
	c0.03394,0.20711-0.10645,0.40251-0.31356,0.43645C73.27219,219.52667,73.23069,219.52667,73.19,219.52z M69.19,219.52h-2
	c-0.20711-0.03394-0.34749-0.22934-0.31356-0.43645c0.02638-0.16098,0.15257-0.28717,0.31356-0.31355h2
	c0.20711-0.03394,0.40251,0.10645,0.43644,0.31355c0.03394,0.20711-0.10645,0.40251-0.31356,0.43645
	C69.27219,219.52667,69.23069,219.52667,69.19,219.52z M65.19,219.52h-2c-0.20711-0.03394-0.34749-0.22934-0.31356-0.43645
	c0.02638-0.16098,0.15257-0.28717,0.31356-0.31355h2c0.20711-0.03394,0.40251,0.10645,0.43644,0.31355
	c0.03394,0.20711-0.10645,0.40251-0.31356,0.43645C65.27219,219.52667,65.23069,219.52667,65.19,219.52z M61.19,219.52h-2
	c-0.20711-0.03394-0.34749-0.22934-0.31356-0.43645c0.02638-0.16098,0.15257-0.28717,0.31356-0.31355h2
	c0.20711-0.03394,0.40251,0.10645,0.43644,0.31355c0.03394,0.20711-0.10645,0.40251-0.31356,0.43645
	C61.27219,219.52667,61.23069,219.52667,61.19,219.52z M57.19,219.52h-2c-0.20711-0.03394-0.34749-0.22934-0.31356-0.43645
	c0.02638-0.16098,0.15257-0.28717,0.31356-0.31355h2c0.20711-0.03394,0.40251,0.10645,0.43644,0.31355
	c0.03394,0.20711-0.10645,0.40251-0.31356,0.43645C57.27219,219.52667,57.23069,219.52667,57.19,219.52z M53.19,219.52h-2
	c-0.20711-0.03394-0.34749-0.22934-0.31356-0.43645c0.02638-0.16098,0.15257-0.28717,0.31356-0.31355h2
	c0.20711-0.03394,0.40251,0.10645,0.43644,0.31355c0.03394,0.20711-0.10645,0.40251-0.31356,0.43645
	C53.27219,219.52667,53.23069,219.52667,53.19,219.52z M49.19,219.52h-1.07c-0.09145,0.00107-0.18021-0.03088-0.25-0.09l-0.7-0.62
	c-0.13288-0.16245-0.10891-0.40186,0.05354-0.53473c0.12759-0.10435,0.30791-0.11456,0.44646-0.02527l0.59,0.52h0.93
	c0.20711-0.03394,0.40251,0.10645,0.43644,0.31355c0.03394,0.20711-0.10645,0.40251-0.31356,0.43645
	c-0.04069,0.00667-0.0822,0.00667-0.12288,0L49.19,219.52z M45.94,217.52c-0.09256-0.00259-0.18118-0.03806-0.25-0.10001l-1.46-1.38
	c-0.14353-0.14751-0.14353-0.38249,0-0.53c0.14261-0.14636,0.37686-0.1494,0.52322-0.00679
	c0.00229,0.00224,0.00455,0.0045,0.00678,0.00679l1.45,1.37c0.14353,0.14751,0.14353,0.38249,0,0.53
	c-0.06362,0.08881-0.16156,0.14685-0.27,0.16002L45.94,217.52z M181.79001,216.79001c-0.10574-0.00038-0.20679-0.04369-0.28-0.12
	c-0.14352-0.14751-0.14352-0.38249,0-0.53l1.42999-1.38c0.14636-0.14636,0.38364-0.14636,0.53,0s0.14636,0.38364,0,0.53L182,216.73
	c-0.05557,0.05933-0.12959,0.0981-0.21001,0.11L181.79001,216.79001z M43.06,214.78999c-0.09758-0.00192-0.19067-0.04131-0.26-0.11
	l-1.4-1.44c-0.14635-0.14261-0.14939-0.37686-0.00678-0.52321c0.00223-0.0023,0.00449-0.00456,0.00678-0.00679
	c0.14751-0.14352,0.38248-0.14352,0.53,0c0.46,0.48,0.92,1,1.39,1.42999c0.14635,0.14261,0.14939,0.37686,0.00678,0.52321
	c-0.00223,0.0023-0.00449,0.00456-0.00678,0.00679C43.25169,214.7415,43.15875,214.78441,43.06,214.78999z M184.64,214
	c-0.09639,0.0018-0.18967-0.03407-0.25999-0.10001c-0.14352-0.14751-0.14352-0.38249,0-0.53c0.46667-0.48,0.92668-0.96001,1.38-1.44
	c0.16563-0.12888,0.40439-0.09909,0.53326,0.06654c0.10028,0.12888,0.10701,0.30739,0.01674,0.44345
	c-0.46001,0.49001-0.92,1-1.39,1.45C184.84721,213.96577,184.74492,214.00595,184.64,214z M40.3,211.89999
	c-0.10527,0.00081-0.20498-0.04721-0.27-0.13c-0.46-0.49001-0.9-1-1.34-1.49001c-0.13531-0.15463-0.11964-0.38969,0.035-0.52501
	c0.15464-0.1353,0.38969-0.11963,0.52501,0.035c0.44,0.49001,0.88,1,1.33,1.48c0.14353,0.14751,0.14353,0.38249,0,0.53
	C40.5011,211.86479,40.40211,211.90016,40.3,211.89999z M187.38,211.12c-0.09256-0.00259-0.18118-0.03806-0.25-0.10001
	c-0.14636-0.14261-0.1494-0.37686-0.00679-0.52321c0.00224-0.0023,0.0045-0.00456,0.00679-0.00679l1.32001-1.49001
	c0.14261-0.14636,0.37686-0.1494,0.52321-0.00679c0.0023,0.00224,0.00456,0.0045,0.00679,0.00679
	c0.14352,0.14751,0.14352,0.38249,0,0.53c-0.42999,0.5-0.88,1-1.32001,1.5C187.58101,211.09358,187.48126,211.12566,187.38,211.12z
	 M37.66,208.89c-0.10844,0.0024-0.21185-0.04562-0.28-0.13c-0.44-0.52-0.86-1-1.28-1.55
	c-0.12979-0.16016-0.10516-0.39522,0.055-0.52501c0.16016-0.12978,0.39521-0.10515,0.525,0.05501c0.42,0.50999,0.84,1,1.27,1.53999
	c0.12944,0.1575,0.10708,0.39005-0.05,0.52C37.83376,208.85843,37.74834,208.89046,37.66,208.89z M189.99001,208.09
	c-0.08801-0.0013-0.17284-0.03311-0.24001-0.09c-0.15709-0.12996-0.17944-0.3625-0.05-0.52c0.42999-0.52,0.85001-1,1.25999-1.55
	c0.12692-0.16016,0.35963-0.18709,0.51979-0.06017c0.00008,0.00006,0.00014,0.00011,0.00021,0.00017
	c0.15924,0.11905,0.19183,0.34465,0.07278,0.50389c-0.0041,0.00549-0.00838,0.01086-0.01279,0.01611
	c-0.40668,0.53334-0.82666,1.05334-1.25999,1.56c-0.06802,0.0858-0.17055,0.13705-0.28,0.14H189.99001z M35.15,205.78
	c-0.11583,0.0002-0.22575-0.0511-0.3-0.14c-0.41-0.53-0.81-1.07001-1.21-1.60001c-0.15141-0.14532-0.15635-0.38588-0.01103-0.53729
	c0.14532-0.15141,0.38587-0.15634,0.53728-0.01103c0.02975,0.02856,0.05466,0.06177,0.07374,0.09833l1.2,1.59
	c0.12704,0.16005,0.10027,0.39279-0.05978,0.51984c-0.00007,0.00005-0.00014,0.00011-0.00022,0.00017
	C35.31584,205.75415,35.23392,205.78264,35.15,205.78z M192.48,205c-0.08311-0.00212-0.16351-0.03008-0.23-0.08
	c-0.15846-0.12683-0.18929-0.35579-0.07001-0.52c0.41-0.53999,0.8-1.07001,1.19-1.60001
	c0.11722-0.16739,0.34793-0.20805,0.51532-0.09084c0.00497,0.00349,0.00987,0.0071,0.01468,0.01083
	c0.16174,0.12387,0.19704,0.35326,0.08,0.52c-0.39,0.53999-0.78999,1.08-1.2,1.61
	C192.7097,204.94505,192.59822,205.00079,192.48,205z M32.76,202.57001c-0.12093,0.00208-0.23436-0.05841-0.3-0.16
	c-0.39-0.53999-0.77-1.09-1.15-1.64999c-0.11664-0.16779-0.07518-0.39836,0.09261-0.515
	c0.00244-0.00169,0.00491-0.00337,0.00739-0.005c0.17185-0.11281,0.40225-0.0685,0.52,0.10001c0.37,0.55,0.75,1.10001,1.14,1.64
	c0.11917,0.166,0.0812,0.39717-0.0848,0.51634c-0.00172,0.00124-0.00345,0.00246-0.0052,0.00366
	C32.91634,202.54686,32.83903,202.57146,32.76,202.57001z M194.84,201.73001c-0.07903,0.00145-0.15634-0.02315-0.22-0.07001
	c-0.16803-0.1163-0.20996-0.34679-0.09366-0.51482c0.00121-0.00174,0.00243-0.00346,0.00366-0.00519l1.12-1.64999
	c0.11255-0.17055,0.34206-0.21758,0.51262-0.10501c0.00247,0.00163,0.00494,0.00331,0.00739,0.005
	c0.17195,0.11459,0.22083,0.3456,0.11,0.52c-0.37,0.55-0.75,1.11-1.14,1.66c-0.06923,0.09758-0.18039,0.15686-0.3,0.15999V201.73001
	z M30.51,199.25999c-0.12547-0.00044-0.24218-0.06444-0.31-0.17c-0.37-0.56-0.73-1.13-1.08-1.69
	c-0.10892-0.17699-0.05546-0.40865,0.12-0.52c0.17107-0.11177,0.40036-0.06369,0.51212,0.10739
	c0.00271,0.00415,0.00534,0.00835,0.00788,0.0126c0.35,0.56,0.7,1.12,1.07,1.67999c0.11082,0.17441,0.06195,0.40541-0.11,0.52
	C30.65714,199.23958,30.58429,199.26041,30.51,199.25999z M197.06,198.39999c-0.07114,0.0002-0.14072-0.02068-0.2-0.06
	c-0.17543-0.1048-0.23268-0.33197-0.12788-0.50739c0.00255-0.00426,0.00517-0.00847,0.00789-0.01262
	c0.36-0.56,0.71001-1.12,1.06-1.69c0.09962-0.17207,0.31985-0.2308,0.49193-0.13118
	c0.00613,0.00356,0.01216,0.00728,0.01807,0.01118c0.17632,0.1033,0.2355,0.32997,0.1322,0.50629
	c-0.00072,0.00124-0.00145,0.00247-0.0022,0.00371c-0.35001,0.57001-0.7,1.14-1.07001,1.71001
	C197.30217,198.33556,197.18547,198.39955,197.06,198.39999z M28.4,195.86c-0.13101,0.00089-0.25272-0.06757-0.32-0.17999
	c-0.34-0.58-0.68-1.16-1-1.74001c-0.10299-0.1765-0.04342-0.40306,0.13308-0.50606c0.00229-0.00133,0.0046-0.00266,0.00692-0.00394
	c0.17649-0.103,0.40306-0.04343,0.50606,0.13307c0.00134,0.00229,0.00266,0.00461,0.00394,0.00693c0.32,0.58,0.66,1.16,1,1.73
	c0.10299,0.1765,0.04342,0.40306-0.13308,0.50606c-0.00229,0.00133-0.0046,0.00266-0.00692,0.00394
	C28.53407,195.84752,28.46715,195.86513,28.4,195.86z M199.14,195c-0.06187,0.01924-0.12813,0.01924-0.19,0
	c-0.17867-0.09917-0.24312-0.3244-0.14394-0.50307c0.00128-0.00232,0.00259-0.00464,0.00394-0.00693c0.34-0.58,0.66-1.14999,1-1.73
	c0.1264-0.16753,0.36469-0.20088,0.53221-0.07448c0.13368,0.10086,0.18558,0.27731,0.12779,0.43448
	c-0.32001,0.58-0.64999,1.17-1,1.75C199.39046,194.96828,199.2652,195.01762,199.14,195z M26.44,192.39999
	c-0.14013,0.00546-0.27-0.07324-0.33-0.2c-0.32-0.59-0.63-1.17999-0.93-1.78c-0.0657-0.19933,0.04262-0.41415,0.24194-0.47986
	c0.15792-0.05206,0.33134,0.00461,0.42806,0.13986c0.3,0.59,0.61,1.17999,0.92,1.77c0.09702,0.1825,0.03038,0.40907-0.15,0.50999
	c-0.0576,0.02071-0.11926,0.02756-0.18,0.02L26.44,192.39999z M201.07001,191.5c-0.05569,0.01485-0.1143,0.01485-0.17,0
	c-0.18314-0.09065-0.2581-0.31261-0.16745-0.49574c0.00238-0.00481,0.00487-0.00955,0.00745-0.01425
	c0.31334-0.58667,0.61333-1.17667,0.89999-1.77c0.11086-0.17819,0.34518-0.23279,0.52339-0.12193
	c0.15234,0.09479,0.21764,0.28322,0.1566,0.45193c-0.3,0.60001-0.61,1.2-0.92,1.78999
	c-0.07594,0.10373-0.20262,0.15747-0.32999,0.14V191.5z M24.63,188.82001c-0.14697,0.0007-0.28042-0.08565-0.34-0.22
	C24,188,23.71,187.39,23.44,186.78c-0.0856-0.18777-0.00278-0.40939,0.185-0.495s0.4094-0.00278,0.495,0.185l0.84,1.81
	c0.09199,0.18246,0.01865,0.40497-0.16382,0.49695c-0.00205,0.00104-0.00411,0.00206-0.00618,0.00305
	C24.73944,188.80266,24.68527,188.81621,24.63,188.82001z M202.85001,187.90001c-0.05247,0.01355-0.10753,0.01355-0.16,0
	c-0.18623-0.08409-0.26904-0.30325-0.18494-0.48949c0.00159-0.00352,0.00323-0.00703,0.00494-0.01051
	c0.28-0.60001,0.56-1.2,0.83-1.81c0.08167-0.18732,0.29971-0.27298,0.48703-0.19131
	c0.00099,0.00043,0.00198,0.00087,0.00298,0.00131c0.18977,0.08632,0.27455,0.30943,0.19,0.5c-0.27,0.61-0.55,1.21001-0.83,1.82001
	c-0.07236,0.11717-0.20244,0.18602-0.34001,0.17998V187.90001z M23,185.17c-0.14697,0.0007-0.28042-0.08565-0.34-0.22
	c-0.26-0.62-0.52-1.24001-0.77-1.86c-0.10191-0.18346-0.0358-0.41481,0.14766-0.51672c0.18346-0.1019,0.4148-0.0358,0.51672,0.14767
	c0.01559,0.02806,0.02756,0.05798,0.03562,0.08905c0.24,0.61,0.5,1.23,0.76,1.84c0.08134,0.18745-0.00469,0.40536-0.19214,0.48671
	c-0.00261,0.00113-0.00522,0.00223-0.00786,0.0033C23.1024,185.15956,23.05146,185.16974,23,185.17z M204.5,184.24001
	c-0.0461,0.01033-0.0939,0.01033-0.14,0c-0.19113-0.07227-0.28751-0.28581-0.21523-0.47694
	c0.00165-0.00438,0.00339-0.00874,0.00522-0.01306c0.25999-0.61,0.50999-1.23,0.75-1.85001
	c0.07422-0.19038,0.28873-0.28456,0.47911-0.21036c0.00031,0.00012,0.0006,0.00023,0.00089,0.00035
	c0.19205,0.0786,0.28554,0.29672,0.21001,0.49001c-0.24001,0.62-0.49001,1.24001-0.74001,1.86
	c-0.07526,0.13667-0.22472,0.21535-0.37999,0.20001H204.5z M21.5,181.46001c-0.15551,0.00151-0.29537-0.09439-0.35-0.24001
	c-0.24-0.64-0.47-1.27-0.68-1.89999c-0.06628-0.1933,0.0367-0.40373,0.23-0.47c0.1933-0.06628,0.40373,0.0367,0.47,0.23
	c0.22,0.62,0.44,1.25,0.68,1.87c0.06875,0.19586-0.02795,0.41124-0.22,0.49001L21.5,181.46001z M205.92999,180.46001h-0.13
	c-0.19463-0.07062-0.29689-0.28406-0.23-0.48c0.23-0.63,0.45-1.25999,0.66-1.88c0.06129-0.19493,0.26901-0.30327,0.46396-0.24196
	c0.00201,0.00063,0.00403,0.00128,0.00604,0.00195c0.19862,0.06651,0.30597,0.28119,0.24001,0.48
	c-0.20667,0.62668-0.42665,1.25667-0.66,1.89c-0.04138,0.16499-0.18991,0.28052-0.36,0.28L205.92999,180.46001z M20.18,177.67999
	c-0.16342-0.00024-0.30839-0.10493-0.36-0.25999c-0.2-0.64-0.4-1.28-0.59-1.92c-0.05222-0.2009,0.06207-0.40749,0.26-0.47
	c0.19634-0.05663,0.40142,0.05663,0.45805,0.25298c0.00067,0.00233,0.00132,0.00467,0.00195,0.00702
	c0.19,0.63,0.38,1.25999,0.59,1.89999c0.05866,0.19862-0.05252,0.40764-0.25,0.47L20.18,177.67999z M207.17999,176.67999h-0.11
	c-0.19348-0.06651-0.29958-0.27428-0.24001-0.47c0.19-0.63,0.38-1.27,0.56-1.91c0.05275-0.19742,0.25555-0.3147,0.45297-0.26195
	c0.00235,0.00063,0.0047,0.00128,0.00703,0.00195c0.19653,0.05814,0.31157,0.26164,0.25999,0.46001
	c-0.17999,0.64999-0.37,1.28999-0.57001,1.92999c-0.04063,0.16693-0.18823,0.28583-0.35999,0.29001V176.67999z M19.06,173.84
	c-0.17262,0.00154-0.32458-0.11346-0.37-0.28c-0.17333-0.66667-0.33333-1.31667-0.48-1.95
	c-0.04892-0.19841,0.07226-0.3989,0.27066-0.44781c0.00311-0.00078,0.00622-0.0015,0.00934-0.00218
	c0.20108-0.04393,0.40058,0.0802,0.45,0.28c0.15,0.64,0.31,1.28,0.48,1.92999c0.05081,0.20135-0.06943,0.4062-0.27,0.46001
	L19.06,173.84z M208.25999,172.84h-0.09c-0.19839-0.04898-0.3195-0.24951-0.27052-0.44791
	c0.00017-0.00069,0.00034-0.00139,0.00052-0.00209c0.16-0.64999,0.31-1.28999,0.46001-1.94
	c0.04477-0.19841,0.2413-0.32347,0.44-0.28c0.20068,0.03851,0.33215,0.23241,0.29366,0.43309
	c-0.0011,0.00566-0.00232,0.01131-0.00366,0.01691c-0.14999,0.64999-0.3,1.3-0.47,2c-0.05243,0.15309-0.19824,0.25435-0.36,0.25
	V172.84z M18.14,170c-0.17848-0.0007-0.33243-0.12552-0.37-0.3c-0.14-0.66-0.26-1.32001-0.38-2
	c-0.03623-0.20111,0.09744-0.39351,0.29854-0.42973c0.00049-0.00009,0.00097-0.00017,0.00146-0.00026
	c0.20393-0.03668,0.39965,0.09677,0.44,0.3c0.11,0.64999,0.24,1.3,0.38,2c0.04157,0.20007-0.08691,0.39597-0.28698,0.43755
	c-0.00432,0.00089-0.00867,0.00171-0.01302,0.00246L18.14,170z M209.14,169h-0.07001
	c-0.20125-0.03542-0.33568-0.22728-0.30026-0.42853c0.00009-0.00049,0.00017-0.00098,0.00026-0.00146c0.13-0.66,0.25-1.31,0.35001-2
	c0.03006-0.20212,0.21828-0.34161,0.42039-0.31155c0.0032,0.00047,0.00641,0.00099,0.0096,0.00156
	c0.19742,0.02354,0.33838,0.20267,0.31485,0.40009c-0.00121,0.01004-0.00282,0.02002-0.00485,0.02991
	c-0.10001,0.66-0.22,1.31-0.35001,2c-0.03017,0.18448-0.19319,0.31749-0.37997,0.31H209.14z M17.44,166
	c-0.18632,0.00171-0.34483-0.13539-0.37-0.32001c-0.1-0.67-0.19-1.34-0.27-2c0.00352-0.20984,0.17648-0.37709,0.38632-0.37358
	c0.17419,0.00293,0.32408,0.12393,0.36368,0.29358c0.07,0.64999,0.16,1.31,0.26,2c0.02921,0.20224-0.11106,0.38988-0.31331,0.4191
	c-0.00223,0.00032-0.00446,0.00063-0.00669,0.0009L17.44,166z M209.78,165h-0.05c-0.20366-0.03088-0.34818-0.21481-0.33-0.42
	c0.09334-0.66667,0.17332-1.33334,0.24001-2c0.00815-0.19313,0.17133-0.34308,0.36446-0.33493
	c0.01527,0.00066,0.03049,0.00229,0.04555,0.00493c0.20216,0.02605,0.34776,0.20695,0.33,0.41c-0.06,0.66-0.14,1.33-0.23,2
	C210.1299,164.85034,209.97136,164.99603,209.78,165z M17,162c-0.19484-0.00453-0.35467-0.15572-0.37-0.35001
	c-0.06-0.67-0.1-1.34-0.14-2c-0.03393-0.20711,0.10645-0.40251,0.31356-0.43645c0.20711-0.03392,0.40251,0.10646,0.43644,0.31357
	c0.00667,0.04068,0.00667,0.08218,0,0.12288c0,0.64999,0.08,1.31,0.14,2c0.01683,0.20364-0.13462,0.38239-0.33827,0.39922
	c-0.0039,0.00032-0.00781,0.00058-0.01173,0.00078L17,162z M210.21001,161L210.21001,161
	c-0.20602-0.01599-0.3615-0.19368-0.35001-0.39999c0-0.66,0.08-1.32001,0.10001-2c0.0316-0.19548,0.19261-0.34412,0.39-0.36
	c0.19882-0.00031,0.36024,0.16061,0.36055,0.35944c0.00002,0.00687-0.00017,0.01372-0.00055,0.02057c0,0.67-0.05,1.34-0.10001,2
	c0.00826,0.20418-0.15059,0.37639-0.35477,0.38464c-0.02516,0.00101-0.05038-0.00055-0.07524-0.00465H210.21001z M16.77,158
	c-0.20434,0-0.37-0.16565-0.37-0.37c0-0.27,0-0.55,0-0.83v-1.17999c0.00525-0.20213,0.16787-0.36475,0.37-0.37l0,0
	c0.20596,0.00542,0.37008,0.17398,0.37,0.38v1.17c0,0.27,0,0.55,0,0.82001c0.00553,0.20427-0.15559,0.37434-0.35986,0.37987
	c-0.00338,0.00009-0.00676,0.00014-0.01014,0.00014V158z M210.31,157c-0.20987,0-0.38-0.17012-0.38-0.37999
	c0-0.00002,0-0.00002,0-0.00002c0-0.67,0-1.33,0-2c-0.00552-0.20427,0.15559-0.37434,0.35986-0.37987
	c0.00337-0.00009,0.00676-0.00014,0.01013-0.00014c0.19836,0.01764,0.35707,0.17216,0.38,0.37c0,0.66,0,1.33,0,2
	c0.00552,0.20427-0.15559,0.37434-0.35986,0.37987c-0.00337,0.00009-0.00676,0.00014-0.01013,0.00014V157z M16.8,154L16.8,154
	c-0.20435,0.00008-0.37006-0.16551-0.37014-0.36986c0-0.00339,0.00004-0.00677,0.00014-0.01015l0.06-2
	c-0.00069-0.19882,0.15992-0.36057,0.35875-0.36125c0.01043-0.00003,0.02086,0.00038,0.03125,0.00125
	c0.20595,0.01077,0.36571,0.18385,0.36,0.39l-0.06,2C17.16432,153.84807,16.99869,154.00063,16.8,154z M210.25,153
	c-0.2023,0.00029-0.36935-0.15797-0.38-0.36c0-0.67,0-1.34-0.07001-2c-0.00571-0.20615,0.15405-0.37923,0.36-0.39
	c0.20404-0.01111,0.37846,0.14529,0.38957,0.34933c0.0002,0.00356,0.00034,0.00711,0.00043,0.01067c0,0.66,0,1.33,0.07001,2
	c0.01111,0.20404-0.14529,0.37846-0.34933,0.38957c-0.00356,0.0002-0.00711,0.00034-0.01067,0.00043H210.25z M17,150L17,150
	c-0.19876-0.00482-0.35598-0.16988-0.35116-0.36864c0.00017-0.00713,0.00056-0.01425,0.00116-0.02136c0-0.67,0.08-1.34,0.12-2
	c0.00359-0.19879,0.16765-0.35704,0.36644-0.35344c0.01458,0.00026,0.02913,0.0014,0.04356,0.00343
	c0.20202,0.02104,0.35178,0.19722,0.34,0.39999c-0.05,0.66-0.09,1.32001-0.13,2C17.37403,149.86049,17.20081,150.01151,17,150z
	 M210.11,149c-0.2005,0.00008-0.36458-0.15958-0.37-0.36c0-0.66-0.09-1.33-0.14-2c-0.01176-0.20828,0.14246-0.38895,0.35001-0.41
	c0.20364-0.01683,0.38239,0.13463,0.39922,0.33827c0.00032,0.00391,0.00058,0.00781,0.00078,0.01173c0.05,0.66,0.10001,1.33,0.14,2
	c0.00594,0.20802-0.1525,0.38406-0.36,0.39999L210.11,149z M17.28999,146L17.28999,146c-0.20354-0.02594-0.35217-0.20517-0.34-0.41
	c0.07-0.67,0.13-1.34,0.2-2c0.0477-0.20438,0.25205-0.33138,0.45643-0.28368c0.16965,0.0396,0.29065,0.18948,0.29357,0.36368
	c-0.07,0.66-0.14,1.32001-0.2,2c0.00915,0.20967-0.1534,0.38705-0.36307,0.39621c-0.02912,0.00127-0.05828-0.00081-0.08692-0.00621
	L17.28999,146z M209.81,145c-0.19318,0.00064-0.35432-0.14746-0.37-0.34c-0.07001-0.67-0.13-1.33-0.21001-2
	c-0.01773-0.20856,0.13232-0.39392,0.34-0.42c0.20483-0.01218,0.38406,0.13646,0.41,0.34c0.07001,0.64999,0.14,1.32001,0.2,2
	c0.02267,0.20308-0.1236,0.38609-0.32668,0.40875c-0.00443,0.0005-0.00887,0.00092-0.01332,0.00125L209.81,145z M17.70999,142
	L17.70999,142c-0.20643-0.02605-0.35354-0.21326-0.33-0.42c0.08-0.67,0.17-1.33,0.27-2c0.03038-0.20435,0.22066-0.34538,0.425-0.315
	c0.20435,0.03038,0.34538,0.22066,0.315,0.425l0,0c-0.09,0.64999-0.18,1.31-0.26,2c0.0035,0.21536-0.16825,0.39279-0.38361,0.39629
	c-0.02561,0.00041-0.05119-0.00169-0.07638-0.00629L17.70999,142z M209.37,141c-0.1897,0.00111-0.34949-0.14142-0.37-0.33l-0.27-2
	c-0.0302-0.20364,0.10725-0.3943,0.31-0.42999c0.19487-0.03949,0.38484,0.08647,0.42432,0.28134
	c0.00259,0.01277,0.00449,0.02568,0.00568,0.03867c0.09,0.64999,0.19,1.32001,0.27,2
	c0.02921,0.20224-0.11105,0.38988-0.31331,0.4191c-0.00223,0.00032-0.00446,0.00063-0.0067,0.0009L209.37,141z M18.28999,138h-0.07
	c-0.20275-0.03569-0.3402-0.22635-0.31-0.42999c0.11-0.66,0.23-1.32001,0.35-2c0.04035-0.20323,0.23607-0.33669,0.44-0.3
	c0.20016,0.04494,0.33128,0.23726,0.3,0.44c-0.12,0.64999-0.24,1.3-0.34,2c0.02285,0.20862-0.12775,0.39626-0.33637,0.41911
	c-0.02445,0.00267-0.04911,0.00298-0.07362,0.00089L18.28999,138z M208.78999,137c-0.18155-0.00168-0.33656-0.13155-0.37-0.31
	c-0.11-0.66-0.23-1.32001-0.35001-2c-0.03668-0.20393,0.09677-0.39966,0.3-0.44c0.20393-0.03668,0.39966,0.09677,0.44,0.3
	c0.12,0.64999,0.24001,1.31,0.35001,2c0.02492,0.20232-0.11017,0.38971-0.31,0.42999L208.78999,137z M19,134.19h-0.08
	c-0.20061-0.0495-0.3278-0.24686-0.29-0.45c0.14-0.66,0.28-1.31,0.43-2c0.03832-0.1951,0.22755-0.32217,0.42264-0.28386
	c0.00582,0.00114,0.0116,0.00243,0.01736,0.00386c0.20385,0.04489,0.33333,0.2458,0.29,0.45c-0.15,0.64-0.29,1.28999-0.42,1.94
	C19.34989,134.04034,19.19136,134.18602,19,134.19z M208,133.19c-0.17551,0.00037-0.32843-0.11949-0.37-0.28999
	c-0.14-0.66-0.28-1.31-0.42999-1.95c-0.04393-0.20108,0.0802-0.40057,0.28-0.45c0.19841-0.04892,0.3989,0.07225,0.44781,0.27066
	c0.00078,0.0031,0.0015,0.00621,0.00218,0.00934c0.14999,0.64999,0.3,1.3,0.44,2c0.0378,0.20314-0.08939,0.4005-0.28999,0.45
	L208,133.19z M19.85,130.3h-0.09c-0.20057-0.0538-0.32081-0.25865-0.27-0.46001c0.16-0.64999,0.33-1.3,0.51-1.94
	c0.04578-0.19348,0.23973-0.31322,0.43321-0.26744c0.00902,0.00214,0.01796,0.00462,0.02678,0.00744
	c0.19742,0.05275,0.3147,0.25555,0.26195,0.45296c-0.00063,0.00235-0.00128,0.0047-0.00195,0.00703c-0.17,0.63-0.34,1.27-0.5,1.92
	C20.17459,130.18654,20.02262,130.30154,19.85,130.3z M207.11,129.3c-0.17261,0.00154-0.32457-0.11346-0.37-0.28
	c-0.16-0.66667-0.33002-1.30666-0.50999-1.92c-0.09056-0.18932-0.0105-0.41621,0.17882-0.50677
	c0.18932-0.09057,0.41621-0.01051,0.50677,0.17882c0.01779,0.03719,0.02942,0.07703,0.03441,0.11796
	c0.17999,0.64,0.35001,1.29,0.52,1.93999c0.05081,0.20135-0.06943,0.4062-0.27,0.46001L207.11,129.3z M20.91,126.43H20.8
	c-0.19748-0.06237-0.30866-0.27139-0.25-0.47c0.19-0.64,0.39-1.28,0.59-1.92c0.07054-0.18994,0.27478-0.29424,0.47-0.24
	c0.19748,0.06237,0.30866,0.27139,0.25,0.47c-0.21,0.63-0.4,1.26-0.59,1.9c-0.04519,0.16101-0.19277,0.2717-0.36,0.27L20.91,126.43z
	 M206.03,125.43c-0.16342-0.00024-0.3084-0.10494-0.36-0.26c-0.19-0.64-0.39-1.28-0.60001-1.9
	c-0.06596-0.1988,0.04138-0.4135,0.24001-0.48c0.19522-0.05424,0.39946,0.05006,0.47,0.24c0.21001,0.63,0.41,1.27,0.61,1.92
	c0.05806,0.19592-0.0537,0.40182-0.24962,0.45988c-0.00012,0.00004-0.00026,0.00008-0.00038,0.00011
	c-0.03944,0.03241-0.08894,0.05009-0.14,0.05001L206.03,125.43z M22.13,122.61c-0.03949,0.009-0.08051,0.009-0.12,0
	c-0.18982-0.05916-0.29574-0.26099-0.23658-0.45081c0.00201-0.00645,0.00421-0.01286,0.00658-0.01919c0.22-0.64,0.45-1.27,0.68-1.89
	c0.0694-0.1922,0.28147-0.29175,0.47367-0.22235c0.00212,0.00076,0.00423,0.00155,0.00633,0.00235
	c0.19067,0.0746,0.28796,0.28687,0.22,0.48c-0.23,0.62-0.45,1.24-0.67,1.87c-0.05161,0.15506-0.19658,0.25976-0.36,0.25999
	L22.13,122.61z M204.77,121.61c-0.15463-0.00133-0.29305-0.09624-0.35001-0.24c-0.22-0.63-0.46001-1.25-0.69-1.87
	c-0.07455-0.19054,0.01947-0.40544,0.21001-0.48c0.19054-0.07456,0.40544,0.01946,0.48,0.21l0,0
	c0.24001,0.62,0.48,1.25,0.71001,1.88c0.06691,0.19594-0.03537,0.40938-0.23,0.48c-0.036,0.03496-0.08101,0.0592-0.13,0.07V121.61z
	 M23.53,118.89c-0.04619,0.00943-0.09381,0.00943-0.14,0c-0.19039-0.07422-0.28456-0.28873-0.21034-0.47912
	c0.00011-0.0003,0.00023-0.00059,0.00035-0.00089c0.25-0.63,0.51-1.25,0.77-1.86c0.077-0.18928,0.29287-0.2803,0.48215-0.20329
	c0.00263,0.00107,0.00524,0.00217,0.00785,0.0033c0.1895,0.08651,0.27757,0.30666,0.2,0.5c-0.26,0.6-0.51,1.22-0.76,1.84
	C23.81123,118.81815,23.67533,118.89581,23.53,118.89z M203.33,117.89c-0.14856-0.00359-0.28139-0.09345-0.34-0.23
	c-0.25999-0.62-0.52-1.22-0.78999-1.83c-0.08284-0.18777,0.00221-0.40716,0.18999-0.49
	c0.18779-0.08284,0.40717,0.00222,0.49001,0.18999l0,0c0.28,0.6,0.53999,1.22,0.8,1.84
	c0.08134,0.18746-0.00468,0.40536-0.19215,0.4867c-0.00259,0.00113-0.00522,0.00223-0.00784,0.0033
	c-0.04369,0.03712-0.09485,0.0644-0.15001,0.08002V117.89z M25.11,115.22c-0.05284,0.01025-0.10716,0.01025-0.16,0
	c-0.18977-0.08633-0.27455-0.30943-0.19-0.5c0.28-0.61,0.57-1.21,0.86-1.81c0.09113-0.18501,0.31499-0.26112,0.5-0.17
	c0.18501,0.09113,0.26113,0.31499,0.17,0.5l0,0c-0.28,0.59-0.57,1.19-0.84,1.8C25.37485,115.15414,25.24664,115.22202,25.11,115.22z
	 M201.7,114.29c-0.14331-0.0022-0.27386-0.08284-0.34-0.21c-0.28-0.6-0.58-1.2-0.88-1.79
	c-0.092-0.18246-0.01865-0.40496,0.16382-0.49696c0.00204-0.00103,0.0041-0.00204,0.00618-0.00304
	c0.18135-0.09418,0.40471-0.02351,0.49889,0.15784c0.00037,0.00072,0.00075,0.00144,0.00111,0.00217c0.31,0.6,0.60001,1.2,0.89,1.8
	c0.0899,0.1835,0.01402,0.40515-0.16948,0.49505c-0.00348,0.00171-0.00699,0.00336-0.01051,0.00495
	C201.81166,114.27854,201.75607,114.29243,201.7,114.29z M26.85,111.62c-0.05581,0.01397-0.11419,0.01397-0.17,0
	c-0.18409-0.09743-0.25545-0.32488-0.16-0.51c0.31-0.59,0.62-1.18,0.94-1.77c0.12641-0.16753,0.36469-0.20087,0.53222-0.07446
	c0.13366,0.10085,0.18556,0.27731,0.12778,0.43446c-0.32,0.58-0.63,1.17-0.93,1.76
	C27.11281,111.56956,26.98362,111.63036,26.85,111.62z M199.85001,110.73c-0.13655,0.00147-0.26149-0.07661-0.32001-0.2
	c-0.32001-0.58-0.64999-1.16-1-1.73c-0.103-0.17649-0.04343-0.40306,0.13307-0.50606
	c0.00229-0.00134,0.00461-0.00266,0.00693-0.00394c0.17509-0.10535,0.40244-0.04881,0.5078,0.12629
	c0.00073,0.00123,0.00146,0.00246,0.0022,0.00371c0.34,0.58,0.66,1.16,1,1.75c0.10072,0.1778,0.03824,0.40358-0.13956,0.5043
	c-0.00345,0.00196-0.00693,0.00386-0.01044,0.0057c-0.04553,0.02789-0.09683,0.045-0.14999,0.05H199.85001z M28.77,108.11
	c-0.06205,0.01806-0.12795,0.01806-0.19,0c-0.17435-0.09557-0.2382-0.31438-0.14263-0.48873
	c0.00397-0.00723,0.00818-0.01433,0.01263-0.02127c0.33-0.58,0.67-1.15,1-1.72c0.10805-0.17902,0.34042-0.23711,0.52-0.13
	c0.17546,0.11136,0.22892,0.34301,0.12,0.52c-0.34,0.56-0.67333,1.13-1,1.71C29.01364,108.07661,28.89211,108.12598,28.77,108.11z
	 M197.88,107.27c-0.13101,0.00089-0.25273-0.06757-0.32001-0.18c-0.34-0.57-0.7-1.13-1.06-1.68
	c-0.11081-0.17441-0.06195-0.4054,0.11-0.52c0.16948-0.11417,0.39941-0.06934,0.51358,0.10014
	c0.0022,0.00325,0.00433,0.00654,0.00642,0.00986c0.37,0.56,0.72,1.13,1.07001,1.7c0.105,0.18172,0.0428,0.41414-0.13892,0.51913
	C198.00595,107.251,197.94368,107.26849,197.88,107.27z M30.88,104.7c-0.07113,0.0002-0.14073-0.02068-0.2-0.06
	c-0.17195-0.11459-0.22081-0.34559-0.11-0.52c0.36-0.56,0.73-1.12,1.1-1.67c0.13105-0.16393,0.37017-0.19057,0.53409-0.05952
	c0.14423,0.1153,0.18469,0.3176,0.09591,0.47952c-0.37,0.55-0.74,1.1-1.1,1.66c-0.07505,0.11839-0.21056,0.18419-0.35,0.16998
	L30.88,104.7z M195.73001,103.91c-0.12238-0.00309-0.23659-0.06204-0.31-0.16c-0.37-0.55-0.75999-1.09-1.14-1.63
	c-0.12151-0.16569-0.08568-0.3985,0.08-0.52s0.3985-0.08569,0.52,0.08c0.39999,0.54,0.78,1.09,1.16,1.64
	c0.11894,0.17291,0.07518,0.4095-0.09772,0.52844c-0.00076,0.00052-0.00153,0.00104-0.00229,0.00156
	c-0.07076,0.04695-0.1555,0.06814-0.24002,0.06001H195.73001z M33.09,101.39c-0.07597,0.00154-0.15015-0.02319-0.21-0.07
	c-0.16802-0.11629-0.20995-0.34679-0.09366-0.51481c0.00121-0.00174,0.00243-0.00347,0.00366-0.00519c0.39-0.55,0.78-1.09,1.18-1.63
	c0.15141-0.14532,0.39196-0.14038,0.53729,0.01103c0.11296,0.11769,0.1382,0.29435,0.06271,0.43896c-0.4,0.53-0.79,1.07-1.17,1.61
	C33.33113,101.33318,33.214,101.39364,33.09,101.39z M193.34999,100.67c-0.11549,0.00091-0.224-0.05521-0.28999-0.15
	c-0.41-0.53-0.81-1-1.23-1.57c-0.12817-0.16338-0.10146-0.39941,0.06-0.53c0.16005-0.12704,0.39279-0.10027,0.51984,0.05978
	c0.00006,0.00007,0.00011,0.00014,0.00017,0.00021c0.42,0.52,0.84,1,1.24001,1.58c0.12785,0.15941,0.10228,0.39228-0.05713,0.52013
	c-0.00423,0.00338-0.00851,0.00667-0.01288,0.00986c-0.06648,0.04992-0.14688,0.07789-0.23,0.08H193.34999z M35.48,98.18
	c-0.08392,0.00265-0.16584-0.02586-0.23-0.08c-0.16176-0.11561-0.19917-0.34045-0.08356-0.50221
	c0.00434-0.00607,0.00886-0.012,0.01357-0.01778c0.41-0.53,0.83-1,1.25-1.57c0.12979-0.16016,0.36484-0.18478,0.525-0.055
	s0.18479,0.36484,0.055,0.525c-0.42,0.52-0.83,1-1.24,1.56C35.69978,98.12849,35.59297,98.18005,35.48,98.18z M190.84999,97.55
	c-0.10945-0.00294-0.21198-0.05421-0.28-0.14c-0.42999-0.5-0.86-1-1.3-1.5c-0.11369-0.1764-0.06287-0.41158,0.11354-0.52527
	c0.13855-0.0893,0.31886-0.07909,0.44646,0.02527c0.45,0.5,0.88,1,1.31,1.52c0.13831,0.15043,0.12848,0.38449-0.02196,0.5228
	C191.04526,97.51971,190.94873,97.55471,190.84999,97.55z M38,95.09c-0.08833,0.00047-0.17375-0.03157-0.24-0.09
	c-0.14353-0.14751-0.14353-0.38248,0-0.53c0.44-0.51,0.87-1,1.31-1.52c0.14886-0.14794,0.38946-0.14719,0.5374,0.00166
	c0.13382,0.13465,0.14774,0.3474,0.0326,0.49834L38.28,95C38.20253,95.06637,38.10163,95.09879,38,95.09z M188.23,94.55
	c-0.10574-0.00039-0.20679-0.04369-0.28-0.12c-0.44-0.49-0.89999-1-1.36-1.45c-0.1436-0.14912-0.13911-0.3864,0.00999-0.52999
	c0.14912-0.1436,0.3864-0.13912,0.53,0.00999l0,0l1.38,1.46c0.13849,0.14953,0.13849,0.38047,0,0.53
	c-0.07613,0.07618-0.18309,0.11306-0.28999,0.10001L188.23,94.55z M40.63,92.09c-0.09333,0.00134-0.18333-0.03466-0.25-0.1
	c-0.14635-0.14261-0.14939-0.37686-0.00678-0.52322c0.00223-0.00229,0.00449-0.00455,0.00678-0.00678c0.45-0.49,0.91-1,1.37-1.46
	c0.14261-0.14635,0.37686-0.14939,0.52322-0.00678C42.27551,89.99545,42.27777,89.99771,42.28,90
	c0.14359,0.13752,0.14852,0.3654,0.011,0.509c-0.00359,0.00375-0.00725,0.00742-0.011,0.011c-0.45,0.49-0.91,1-1.35,1.46
	C40.8503,92.05782,40.74112,92.09785,40.63,92.09z M185.46001,91.67c-0.09946,0.00233-0.19604-0.03345-0.27-0.1
	c-0.46001-0.47-0.94-0.94-1.42-1.4c-0.14352-0.14751-0.14352-0.38248,0-0.53c0.14261-0.14635,0.37686-0.14939,0.52321-0.00678
	c0.0023,0.00223,0.00456,0.00449,0.00679,0.00678c0.49001,0.46,1,0.93,1.44,1.4c0.13983,0.15285,0.13983,0.38715,0,0.54
	C185.66199,91.64539,185.56151,91.67769,185.46001,91.67z M43.38,89.19c-0.09638,0.00181-0.18967-0.03407-0.26-0.1
	c-0.14353-0.14751-0.14353-0.38248,0-0.53c0.47-0.48,0.94-1,1.42-1.42c0.14261-0.14635,0.37686-0.14939,0.52322-0.00678
	c0.00229,0.00223,0.00455,0.00449,0.00678,0.00678c0.14353,0.14751,0.14353,0.38248,0,0.53c-0.48,0.46666-0.95,0.93666-1.41,1.41
	C43.58719,89.15578,43.48491,89.19596,43.38,89.19z M182.58,88.9c-0.09334,0.00134-0.18333-0.03466-0.25-0.1
	c-0.49001-0.45-1-0.9-1.48-1.34c-0.14352-0.14751-0.14352-0.38248,0-0.53c0.13751-0.14359,0.3654-0.14852,0.509-0.01101
	c0.00374,0.00359,0.00742,0.00726,0.011,0.01101l1.49001,1.35c0.14352,0.14751,0.14352,0.38248,0,0.53
	C182.782,88.8754,182.6815,88.9077,182.58,88.9z M46.23,86.39c-0.10084-0.00038-0.19761-0.03981-0.27-0.11
	c-0.14353-0.14751-0.14353-0.38248,0-0.53c0.49-0.47,1-0.92,1.47-1.38c0.14261-0.14635,0.37686-0.14939,0.52322-0.00678
	c0.00229,0.00223,0.00455,0.00449,0.00678,0.00678c0.14233,0.14411,0.14233,0.37589,0,0.52l-1.46,1.37
	C46.43404,86.34162,46.33494,86.38934,46.23,86.39z M179.59999,86.23c-0.08801-0.0013-0.17284-0.0331-0.24001-0.09
	c-0.5-0.44-1-0.87-1.52-1.3c-0.1436-0.13752-0.14851-0.3654-0.011-0.509c0.00359-0.00375,0.00726-0.00742,0.011-0.011
	c0.14412-0.14233,0.37589-0.14233,0.52,0c0.52,0.43,1,0.87,1.53,1.3c0.14352,0.14751,0.14352,0.38248,0,0.53
	c-0.08096,0.06653-0.18636,0.0956-0.28998,0.08L179.59999,86.23z M49.17,83.68c-0.1067-0.0052-0.20716-0.05184-0.28-0.13
	c-0.13848-0.14953-0.13848-0.38047,0-0.53l1.51-1.33c0.1372-0.15881,0.37716-0.17634,0.53597-0.03915
	c0.15882,0.1372,0.17634,0.37716,0.03915,0.53597C50.95052,82.2153,50.92184,82.23996,50.89,82.26l-1.5,1.32
	C49.33086,83.6384,49.25288,83.67384,49.17,83.68z M176.54001,83.68c-0.08542,0.0009-0.16786-0.03136-0.23-0.09l-1.56-1.25
	c-0.16016-0.12692-0.18709-0.35964-0.06017-0.51979c0.00006-0.00007,0.00011-0.00014,0.00017-0.00021
	c0.12418-0.16228,0.3564-0.19318,0.51869-0.06901c0.00383,0.00293,0.0076,0.00594,0.01131,0.00901L176.78,83
	c0.15831,0.13352,0.18054,0.36922,0.05,0.53c-0.07219,0.08476-0.1787,0.13251-0.29001,0.13L176.54001,83.68z M173.41,81.19
	c-0.08391,0.00264-0.16583-0.02586-0.23-0.08l-1.59-1.21c-0.14532-0.15141-0.14038-0.39197,0.01103-0.53728
	c0.11769-0.11296,0.29436-0.1382,0.43896-0.06271l1.60001,1.22c0.15979,0.13037,0.19048,0.36261,0.07001,0.53
	c-0.07936,0.07938-0.18781,0.12275-0.30002,0.12V81.19z M52.19,81.05c-0.11016,0-0.2139-0.05186-0.28-0.14
	c-0.14635-0.14261-0.14939-0.37686-0.00678-0.52322C51.90545,80.3845,51.90771,80.38224,51.91,80.38l1.54-1.29
	c0.16016-0.12978,0.39521-0.10516,0.525,0.055s0.10516,0.39522-0.055,0.525L52.43,81
	C52.35831,81.04424,52.27338,81.06193,52.19,81.05z M170.19,78.77c-0.07967-0.00414-0.15628-0.03199-0.22-0.08l-1.61-1.17
	c-0.16803-0.1163-0.20995-0.34679-0.09366-0.51481c0.00121-0.00174,0.00243-0.00347,0.00366-0.00519
	c0.1214-0.17119,0.3586-0.21155,0.52979-0.09015c0.00008,0.00005,0.00014,0.0001,0.00021,0.00015l1.62,1.18
	c0.16174,0.12386,0.19704,0.35324,0.08,0.52c-0.06902,0.09272-0.17476,0.15106-0.28999,0.15999L170.19,78.77z M55.27,78.49
	c-0.11264-0.00137-0.21886-0.05266-0.29-0.14c-0.12817-0.16338-0.10146-0.39941,0.06-0.53l1.56-1.25
	c0.17888-0.10976,0.41287-0.05371,0.52262,0.12517c0.09121,0.14866,0.06952,0.34032-0.05262,0.46483l-1.56,1.25
	C55.44043,78.4613,55.35643,78.4893,55.27,78.49z M167,76.43c-0.07903,0.00145-0.15634-0.02315-0.22-0.07l-1.63-1.14
	c-0.17055-0.11256-0.21756-0.34206-0.10501-0.51261c0.00165-0.00249,0.00331-0.00494,0.005-0.00739
	c0.10468-0.16904,0.32657-0.22121,0.49561-0.11653c0.00835,0.00518,0.01649,0.01069,0.0244,0.01653
	c0.55,0.38,1.10001,0.76,1.64,1.15c0.16803,0.1163,0.20995,0.34679,0.09366,0.51481
	c-0.00121,0.00174-0.00243,0.00347-0.00366,0.00519C167.23076,76.36759,167.11961,76.42687,167,76.43z M58.41,76
	c-0.11297,0.00005-0.21978-0.05151-0.29-0.14c-0.12817-0.16338-0.10146-0.39941,0.06-0.53l1.59-1.23
	c0.15267-0.144,0.39317-0.13698,0.53717,0.01569c0.144,0.15267,0.13698,0.39317-0.01569,0.53717
	C60.27265,74.67062,60.25205,74.68642,60.23,74.7l-1.59,1.22C58.57495,75.97257,58.49363,76.00086,58.41,76z M163.67999,74.15
	c-0.07573,0-0.14941-0.02456-0.21001-0.07L161.82001,73c-0.19087-0.08724-0.27489-0.3127-0.18765-0.50357
	c0.08723-0.19088,0.3127-0.27489,0.50357-0.18765c0.03423,0.01564,0.06593,0.03627,0.09409,0.06123l1.66,1.13
	c0.17055,0.11256,0.21756,0.34206,0.10501,0.51261c-0.00165,0.00249-0.00331,0.00494-0.005,0.00739
	C163.91251,74.10918,163.79793,74.15722,163.67999,74.15z M61.6,73.57c-0.11822,0.0008-0.22971-0.05495-0.3-0.15
	c-0.12047-0.16739-0.08979-0.39963,0.07-0.53L63,71.7c0.14532-0.15141,0.38588-0.15635,0.53729-0.01102
	s0.15635,0.38588,0.01102,0.53729C63.51976,72.25601,63.48655,72.28091,63.45,72.3l-1.6,1.19
	C61.77804,73.54403,61.68996,73.57221,61.6,73.57z M160.36,71.92c-0.07407-0.00113-0.14651-0.02183-0.21001-0.06l-1.67-1.1
	c-0.17195-0.11459-0.22081-0.34559-0.11-0.52c0.11459-0.17195,0.3456-0.22082,0.52-0.11l1.67999,1.11
	c0.16731,0.10741,0.21587,0.33012,0.10846,0.49743c-0.00273,0.00425-0.00555,0.00845-0.00845,0.01257
	C160.60217,71.85557,160.48547,71.91956,160.36,71.92z M64.82,71.18999c-0.11961-0.00313-0.23077-0.06241-0.3-0.16
	c-0.12174-0.16412-0.08739-0.39586,0.07674-0.5176c0.00108-0.00081,0.00217-0.0016,0.00327-0.0024l1.62-1.18
	c0.16991-0.11819,0.40255-0.08308,0.53,0.08c0.12152,0.1711,0.08132,0.40833-0.08978,0.52985
	c-0.00007,0.00005-0.00014,0.0001-0.00021,0.00015L65,71.11C64.9489,71.15335,64.88642,71.18111,64.82,71.18999z M157,69.73
	c-0.07114,0.0002-0.14072-0.02068-0.2-0.06l-1.67999-1.08c-0.17543-0.1048-0.23268-0.33197-0.12787-0.50739
	c0.00253-0.00426,0.00516-0.00845,0.00787-0.0126c0.11459-0.17195,0.3456-0.22082,0.52-0.11L157.22,69
	c0.17195,0.11459,0.22081,0.34559,0.11,0.52C157.26901,69.64718,157.14104,69.72862,157,69.73z M68.06,68.84
	c-0.12093,0.00208-0.23437-0.05842-0.3-0.16c-0.11916-0.166-0.08119-0.39718,0.08481-0.51634
	c0.00172-0.00123,0.00345-0.00245,0.00519-0.00365L69.49,67c0.18555-0.09808,0.41546-0.02717,0.51353,0.15838
	c0.08179,0.15475,0.0473,0.34535-0.08353,0.46162l-1.63,1.15c-0.06366,0.04685-0.14098,0.07145-0.22,0.06999L68.06,68.84z
	 M153.63,67.58c-0.07072-0.0024-0.13963-0.02307-0.2-0.06l-1.69-1.07c-0.17195-0.11459-0.22081-0.34559-0.11-0.52
	c0.1048-0.17543,0.33197-0.23268,0.50739-0.12788c0.00426,0.00254,0.00847,0.00517,0.01262,0.00788l1.69,1.07
	c0.17674,0.11316,0.2283,0.34818,0.11514,0.52492C153.88432,67.51556,153.76137,67.58177,153.63,67.58z M71.33,66.52
	c-0.12101,0.0008-0.23553-0.05462-0.31-0.15c-0.11916-0.166-0.08119-0.39718,0.08481-0.51634
	c0.00172-0.00123,0.00345-0.00245,0.00519-0.00365l1.6-1.19c0.15427-0.12543,0.381-0.10205,0.50643,0.05222
	C73.22114,64.718,73.22566,64.72394,73.23,64.73c0.12589,0.16599,0.09467,0.40239-0.07,0.53l-1.61,1.19
	c-0.0615,0.04366-0.13461,0.06802-0.21,0.06999L71.33,66.52z M150.27,65.41c-0.07407-0.00113-0.14651-0.02183-0.21001-0.06
	l-1.64999-1.14c-0.16844-0.11874-0.20874-0.35155-0.09001-0.52c0.11874-0.16845,0.35156-0.20874,0.52-0.09
	c0.53,0.37,1.08,0.75,1.64,1.12c0.17055,0.11256,0.21756,0.34206,0.10501,0.51261c-0.00165,0.00249-0.00331,0.00494-0.005,0.00739
	c-0.06587,0.10265-0.1781,0.16624-0.3,0.17H150.27z M74.51,64.11c-0.11549,0.00092-0.22401-0.05521-0.29-0.15
	c-0.12794-0.15218-0.1083-0.37928,0.04388-0.50722C74.26913,63.44836,74.27451,63.4441,74.28,63.44c0.52-0.42,1-0.84,1.54-1.26
	c0.1574-0.13255,0.39246-0.1124,0.525,0.045s0.1124,0.39245-0.045,0.525c-0.51,0.42-1,0.85-1.56,1.27
	c-0.05961,0.05629-0.13804,0.08837-0.22001,0.09H74.51z M147,63.11c-0.07903,0.00145-0.15634-0.02315-0.22-0.07
	c-0.55-0.41-1.08-0.81-1.60001-1.22c-0.15846-0.12682-0.18929-0.35579-0.07001-0.52
	c0.12074-0.16486,0.35228-0.20061,0.51712-0.07987c0.00436,0.0032,0.00867,0.00648,0.01288,0.00987c0.50999,0.4,1,0.8,1.58,1.2
	c0.16739,0.11722,0.20805,0.34793,0.09084,0.51532c-0.00349,0.00498-0.0071,0.00988-0.01083,0.01468
	C147.23082,63.05637,147.11861,63.11248,147,63.11z M77.58,61.54c-0.10724-0.00298-0.20852-0.05-0.28-0.13
	c-0.14353-0.14751-0.14353-0.38248,0-0.53c0.51-0.45,1-0.89,1.48-1.34c0.17487-0.11604,0.4107-0.06834,0.52673,0.10654
	c0.09029,0.13606,0.08355,0.31459-0.01673,0.44346c-0.48,0.45-1,0.9-1.49,1.35C77.73911,61.49579,77.66208,61.5308,77.58,61.54z
	 M143.86,60.65c-0.08717,0.00419-0.17278-0.02434-0.24001-0.08c-0.53-0.43-1-0.87-1.53999-1.3
	c-0.17641-0.1137-0.22723-0.34887-0.11353-0.52527c0.11369-0.1764,0.34888-0.22723,0.52527-0.11353
	c0.03336,0.0215,0.06313,0.04809,0.08826,0.0788c0.49001,0.42,1,0.85,1.52,1.28c0.15831,0.13353,0.18054,0.36922,0.05,0.53
	C144.07782,60.60476,143.97131,60.6525,143.86,60.65z M80.5,58.81c-0.20983-0.00404-0.37666-0.17742-0.37261-0.38725
	c0.00191-0.0989,0.0423-0.19316,0.11261-0.26275c0.48-0.47,0.94-0.95,1.39-1.42c0.14751-0.14353,0.38248-0.14353,0.53,0
	c0.14635,0.14261,0.14939,0.37686,0.00678,0.52322C82.16455,57.26551,82.16228,57.26777,82.16,57.27c-0.45,0.48-0.92,1-1.4,1.44
	C80.68811,58.77341,80.59585,58.8089,80.5,58.81z M140.84,58c-0.09334,0.00134-0.18333-0.03466-0.25-0.1
	c-0.50999-0.46-1-0.92-1.46001-1.38c-0.14912-0.1436-0.15359-0.38089-0.00999-0.53c0.14359-0.14912,0.38087-0.15359,0.53-0.01l0,0
	c0.47,0.46,0.94,0.91,1.44,1.37c0.14636,0.14261,0.1494,0.37686,0.00679,0.52322c-0.00224,0.00229-0.0045,0.00455-0.00679,0.00678
	C141.02419,57.94928,140.93521,57.99198,140.84,58z M83.26,55.91c-0.09333,0.00134-0.18333-0.03466-0.25-0.1
	c-0.14635-0.14261-0.14939-0.37686-0.00678-0.52322C83.00545,55.2845,83.00771,55.28223,83.01,55.28c0.45-0.5,0.88-1,1.29-1.5
	c0.11044-0.17846,0.34464-0.2336,0.5231-0.12315c0.17846,0.11044,0.2336,0.34464,0.12315,0.5231
	C84.92794,54.20954,84.90565,54.23648,84.88,54.26c-0.42,0.5-0.86,1-1.31,1.52C83.49001,55.86565,83.37717,55.91297,83.26,55.91z
	 M138,55.23c-0.10085-0.00038-0.1976-0.03981-0.27-0.11c-0.48-0.5-0.92999-1-1.37-1.48c-0.13849-0.14953-0.13849-0.38047,0-0.53
	c0.14261-0.14635,0.37686-0.14939,0.52321-0.00678c0.0023,0.00223,0.00456,0.00449,0.00679,0.00678
	c0.42999,0.48,0.88,1,1.35001,1.46c0.14352,0.14751,0.14352,0.38248,0,0.53C138.17827,55.17083,138.09305,55.21699,138,55.23z
	 M85.82,52.83c-0.08392,0.00264-0.16584-0.02585-0.23-0.08c-0.16282-0.12348-0.19471-0.35557-0.07123-0.51839
	c0.0004-0.00054,0.00082-0.00108,0.00123-0.00161c0.42-0.54,0.81-1.07,1.18-1.6c0.11629-0.16802,0.34679-0.20995,0.51481-0.09366
	c0.00174,0.00121,0.00347,0.00243,0.00519,0.00366c0.17119,0.1214,0.21155,0.3586,0.09015,0.52979
	c-0.00005,0.00007-0.0001,0.00014-0.00015,0.00021c-0.37,0.53-0.77,1.07-1.19,1.61C86.04655,52.77664,85.93136,52.83238,85.81,52.83
	L85.82,52.83z M135.35001,52.24c-0.11296,0.00005-0.21977-0.05151-0.28999-0.14c-0.44-0.53-0.86-1.06-1.25-1.58
	c-0.11928-0.16422-0.08846-0.39318,0.07001-0.52c0.15941-0.12785,0.39227-0.10228,0.52013,0.05713
	c0.00339,0.00422,0.00668,0.00851,0.00987,0.01287c0.39,0.51,0.78999,1,1.23,1.56c0.14352,0.14751,0.14352,0.38248,0,0.53
	c-0.08771,0.06063-0.19376,0.08892-0.30002,0.08001L135.35001,52.24z M88.12,49.57c-0.07113,0.0002-0.14072-0.02068-0.2-0.06
	c-0.17389-0.10733-0.22784-0.33531-0.1205-0.50919C87.79967,49.00053,87.79984,49.00027,87.8,49c0.38-0.57,0.72-1.14,1-1.69
	c0.10805-0.17902,0.34042-0.23711,0.52-0.13c0.17435,0.09557,0.2382,0.31439,0.14262,0.48873
	C89.45866,47.67596,89.45444,47.68306,89.45,47.69c-0.33,0.56-0.68,1.13-1.06,1.72C88.3282,49.50075,88.22929,49.55937,88.12,49.57z
	 M132.93001,49.05c-0.125-0.00222-0.24092-0.06578-0.31-0.17c-0.39-0.57-0.75999-1.14-1.10001-1.68
	c-0.10892-0.17698-0.05547-0.40864,0.12-0.52c0.17107-0.11176,0.40036-0.06369,0.51212,0.10739
	c0.00272,0.00415,0.00534,0.00835,0.00789,0.01261c0.33,0.54,0.69,1.09,1.08,1.66c0.11664,0.16779,0.07516,0.39836-0.09262,0.515
	c-0.00244,0.0017-0.0049,0.00337-0.00739,0.005c-0.05986,0.04682-0.13403,0.07154-0.21001,0.07H132.93001z M90.14,46.12
	c-0.05918,0.01403-0.12082,0.01403-0.18,0c-0.18038-0.10091-0.24702-0.3275-0.15-0.51c0.32-0.61,0.6-1.21,0.87-1.78
	c0.07883-0.18253,0.2907-0.26659,0.47323-0.18776c0.00565,0.00244,0.01125,0.00503,0.01677,0.00776
	c0.18732,0.08166,0.27297,0.29971,0.19131,0.48703C91.36088,44.13802,91.36044,44.13902,91.36,44.14c-0.27,0.59-0.56,1.19-0.89,1.82
	C90.39472,46.0664,90.27016,46.12679,90.14,46.12z M130.83,45.65c-0.13818-0.0017-0.26456-0.07829-0.33-0.2
	c-0.34-0.62-0.64999-1.22-0.92-1.79c-0.0899-0.18351-0.01402-0.40515,0.16948-0.49505
	c0.00348-0.00171,0.00699-0.00335,0.01051-0.00495c0.18524-0.08733,0.40637-0.01215,0.5,0.17c0.25999,0.57,0.56,1.15,0.89999,1.76
	c0.09702,0.1825,0.03038,0.40908-0.14999,0.51C130.95465,45.63029,130.89305,45.6474,130.83,45.65z M91.83,42.48H91.7
	c-0.19598-0.07464-0.29444-0.29394-0.22-0.49c0.25-0.62,0.47-1.25,0.66-1.86c0.03331-0.20721,0.22829-0.34818,0.43549-0.31487
	c0.20721,0.03331,0.34818,0.22829,0.31487,0.43549c-0.00552,0.03436-0.01574,0.0678-0.03036,0.09938c-0.2,0.63-0.43,1.27-0.68,1.91
	C92.11417,42.4126,91.95466,42.50258,91.79,42.48L91.83,42.48z M129.11,42c-0.15184-0.00264-0.28667-0.09781-0.34-0.24
	c-0.25999-0.64-0.49001-1.28-0.69-1.9c-0.06351-0.19606,0.04395-0.40649,0.24001-0.47c0.19606-0.06351,0.40649,0.04394,0.47,0.24
	l0,0c0.2,0.61,0.42,1.23,0.67,1.85c0.07948,0.18826-0.0087,0.4053-0.19695,0.48478
	c-0.00432,0.00182-0.00868,0.00356-0.01306,0.00522C129.20619,41.99044,129.15834,42.0007,129.11,42z M93,38.66h-0.1
	c-0.1998-0.04942-0.32394-0.24892-0.28-0.45c0.16151-0.63598,0.28837-1.28026,0.38-1.93
	c0.02486-0.20435,0.21066-0.34985,0.415-0.325c0.20435,0.02486,0.34985,0.21066,0.325,0.415l0,0
	c-0.07924,0.67336-0.19946,1.34127-0.36,2C93.34505,38.54895,93.18183,38.67351,93,38.66z M127.92,38.23
	c-0.17551,0.00038-0.32844-0.11949-0.37-0.29c-0.15394-0.65783-0.25758-1.32643-0.31-2h0.37H128
	c0.05809,0.63659,0.16168,1.26821,0.31,1.89c0.03781,0.20314-0.08939,0.40051-0.28999,0.45L127.92,38.23z M93.45,34.7L93.45,34.7
	c-0.2036-0.01571-0.3606-0.1858-0.36-0.39l0.09-2c-0.00681-0.19318,0.14429-0.3553,0.33746-0.3621
	c0.01754-0.00062,0.0351,0.00009,0.05254,0.0021c0.20428,0.00522,0.36565,0.17505,0.36043,0.37933
	c-0.00009,0.00356-0.00024,0.00711-0.00043,0.01067l-0.09,2c-0.00522,0.20428-0.17505,0.36565-0.37933,0.36043
	C93.45711,34.70034,93.45355,34.7002,93.45,34.7z M127.55,34.25c-0.2005,0.00008-0.36459-0.15957-0.37-0.36l-0.07-2
	c-0.00027-0.20782,0.16246-0.37934,0.37-0.39c0.19852-0.01104,0.3684,0.14093,0.37944,0.33945
	c0.00038,0.00684,0.00056,0.0137,0.00056,0.02055l0.07,2c0.00571,0.20615-0.15405,0.37922-0.36,0.39H127.55z M93.62,30.7L93.62,30.7
	c-0.20428-0.00522-0.36565-0.17505-0.36043-0.37933c0.00009-0.00356,0.00024-0.00711,0.00043-0.01067V30
	c0.01064-0.20202,0.1777-0.36028,0.38-0.36h1.67c0.20711,0.03393,0.34749,0.22933,0.31356,0.43644
	C95.59718,30.23743,95.47099,30.36362,95.31,30.39H94C93.96589,30.57218,93.80532,30.70317,93.62,30.7z M127.31,30.37h-2
	c-0.20711,0.03393-0.40251-0.10645-0.43644-0.31356c-0.03394-0.20711,0.10645-0.40251,0.31356-0.43644
	c0.04069-0.00667,0.08219-0.00667,0.12288,0h2c0.20711,0.03393,0.34749,0.22933,0.31356,0.43644
	C127.59718,30.21743,127.47099,30.34362,127.31,30.37z M123.31,30.37h-2c-0.20711,0.03393-0.40251-0.10645-0.43644-0.31356
	c-0.03394-0.20711,0.10645-0.40251,0.31356-0.43644c0.04069-0.00667,0.08219-0.00667,0.12288,0h2
	c0.20711,0.03393,0.34749,0.22933,0.31356,0.43644C123.59718,30.21743,123.47099,30.34362,123.31,30.37z M119.31,30.37h-2
	c-0.20711,0.03393-0.40251-0.10645-0.43644-0.31356c-0.03394-0.20711,0.10645-0.40251,0.31356-0.43644
	c0.04069-0.00667,0.08219-0.00667,0.12288,0h2c0.20711,0.03393,0.34749,0.22933,0.31356,0.43644
	C119.59718,30.21743,119.47099,30.34362,119.31,30.37z M115.31,30.37h-2c-0.20711,0.03393-0.40251-0.10645-0.43644-0.31356
	c-0.03394-0.20711,0.10645-0.40251,0.31356-0.43644c0.04069-0.00667,0.08219-0.00667,0.12288,0h2
	c0.20711,0.03393,0.34749,0.22933,0.31356,0.43644C115.59718,30.21743,115.47099,30.34362,115.31,30.37z M111.31,30.37h-2
	c-0.20711,0.03393-0.40251-0.10645-0.43644-0.31356c-0.03394-0.20711,0.10645-0.40251,0.31356-0.43644
	c0.04069-0.00667,0.08219-0.00667,0.12288,0h2c0.20711,0.03393,0.34749,0.22933,0.31356,0.43644
	C111.59718,30.21743,111.47099,30.34362,111.31,30.37z M107.31,30.37h-2c-0.20711,0.03393-0.40251-0.10645-0.43644-0.31356
	c-0.03394-0.20711,0.10645-0.40251,0.31356-0.43644c0.04069-0.00667,0.08219-0.00667,0.12288,0h2
	c0.20711,0.03393,0.34749,0.22933,0.31356,0.43644C107.59718,30.21743,107.47099,30.34362,107.31,30.37z M103.31,30.37h-2
	c-0.20711,0.03393-0.40251-0.10645-0.43644-0.31356c-0.03394-0.20711,0.10645-0.40251,0.31356-0.43644
	c0.04069-0.00667,0.08219-0.00667,0.12288,0h2c0.20711,0.03393,0.34749,0.22933,0.31356,0.43644
	C103.59718,30.21743,103.47099,30.34362,103.31,30.37z M99.31,30.37h-2c-0.20711,0.03393-0.40251-0.10645-0.43644-0.31356
	c-0.03394-0.20711,0.10645-0.40251,0.31356-0.43644c0.04069-0.00667,0.08219-0.00667,0.12288,0h2
	c0.20711,0.03393,0.34749,0.22933,0.31356,0.43644C99.59718,30.21743,99.47099,30.34362,99.31,30.37z"/>
<path class="st0" d="M149.39999,71.26c-26.85-17-27.49-34.71-27.5-35.28s0-0.66,0-0.66l-0.18-5.51l-16.87-0.12H99.36l-0.24,5.49
	c0,0,0,0.22,0,0.51c-0.06,1.86-1.22,18.74-25.57,35.89C45.6,91.26,22.47,111.26,22.47,156.84
	c0,19.74001,11.7,44.75999,33.72,61.60001h102.60001v7.66c29.81-16,45.82001-46.23,45.82001-69.26001
	C204.61,109.78,181.73,91.69,149.39999,71.26z"/>
<path class="st1" d="M113.32,231.49001c-54.83,0-85.15-44.14-85.15-74.65001c0-42.93,21.08-61.19,48.65-80.61
	c26.5-18.66,27.91-37.9,28-40.38c0-0.3,0-0.46,0-0.46l11.39,0.08c0,0,0,0.15,0,0.44c0,2.5,1.37,22,30.16,40.17
	c31.74001,20.06,52.55,36.52,52.55,80.76C198.91,187.35001,168.42999,231.49001,113.32,231.49001z"/>
<path class="st2" d="M113.32,225.78999c52.37,0,79.88999-41.84999,79.88999-68.95c0-42.28-19.85001-57-49.89999-75.95
	c-33.69-21.29-32.8-45.28-32.8-45.28s0.56,23.47-30.41,45.28c-27.71,19.52-46.24,36-46.24,76
	C33.86,183.94,61.87,225.78999,113.32,225.78999z"/>
<path class="st4" d="M173.66,103.47c-17.82001-7.93-40.61-7.89-56.19,1.1c-6.25,3.61-12.11,8.58-18.34,12.24
	c-13,7.63-27.5,9.31-41.23,4.77c-4.82591-1.66917-9.46439-3.83759-13.84-6.47c-2.61186,4.33832-4.70933,8.96619-6.25,13.79
	c6.57,4.32001,13.26,8.14999,20.22,10.45c13.72,4.53,28.24,2.86,41.22-4.77c6.24-3.66,12.1-8.63,18.34-12.24
	c18.91-10.91,48.42-8.65,66.78999,5c2.10915,1.59246,4.11331,3.31937,6,5.17001
	C187.56819,121.48272,181.78497,111.43819,173.66,103.47z"/>
<path class="st5" d="M190.41,132.53999c-1.88669-1.85062-3.89085-3.57755-6-5.17c-18.37-13.68-47.88-15.94-66.79-5
	c-6.24,3.61-12.1,8.58-18.34,12.24001c-13,7.63-27.5,9.3-41.22,4.77c-7-2.3-13.65-6.13-20.22-10.45
	c-1.8024,5.68016-2.96953,11.54263-3.48,17.48c2.15,1.47,4.31,2.91,6.48,4.28999c5.49221,3.63356,11.40982,6.57893,17.62,8.77
	c13.7692,4.57388,28.85566,2.83173,41.22-4.75999c6.24-3.66,12.1-8.64,18.35-12.25c18.89999-10.89999,48.41-8.64,66.79001,5
	c3.00462,2.27916,5.81128,4.80817,8.39,7.56C193.19481,147.44066,192.25453,139.89149,190.41,132.53999z"/>
<path class="st6" d="M193.17999,155c-2.57872-2.75183-5.38538-5.28084-8.39-7.56c-18.38-13.67-47.89-15.92999-66.79-5
	c-6.25,3.61-12.11,8.59-18.35,12.25c-12.36434,7.59172-27.4508,9.33388-41.22,4.75999c-6.21018-2.19107-12.1278-5.13644-17.62-8.77
	c-2.17-1.38-4.33-2.82001-6.48-4.28999c-0.07,0.77-0.13,1.56-0.18,2.35001c-0.18,2.60001-0.29,5.28999-0.29,8.11
	c0.02596,3.33121,0.40814,6.65007,1.14001,9.89999c0.23,1.07001,0.49,2.14,0.79,3.22c7.5,5.11,15.12,9.75,23.11,12.39
	c7.76544,2.57562,16.05722,3.13988,24.1,1.64c6.04164-1.12624,11.83717-3.30971,17.12-6.45c3-1.78,6-3.88,9-6
	s6.19-4.39999,9.39-6.25c18.9-10.91,48.41-8.64999,66.79,5c1.63948,1.22798,3.21175,2.54321,4.71001,3.94
	c2.0562-5.6031,3.15488-11.51227,3.25-17.48C193.21001,156.22,193.19,155.63,193.17999,155z"/>
<path class="st7" d="M185.25,170.38c-18.38-13.67999-47.89-15.94-66.79-5c-3.2,1.85001-6.3,4.05-9.39,6.25s-5.91,4.21001-9,6
	c-5.27293,3.10686-11.05079,5.26297-17.07,6.37c-8.04614,1.487-16.33799,0.90898-24.1-1.67999c-8-2.64-15.61-7.28-23.11-12.39
	c1.72324,6.08302,4.2666,11.90314,7.56,17.3c12.2,20.23,36,38.52,70,38.52c11.49723,0.09348,22.89607-2.12373,33.52-6.52
	c15.94084-6.68866,29.23552-18.44055,37.83-33.44c2.10403-3.65822,3.87772-7.49675,5.29999-11.47
	C188.48878,172.92207,186.90314,171.60683,185.25,170.38z"/>
<path class="st0" d="M112.24,170.11l1.68-5.17999c0.30376-0.92915-0.20322-1.92862-1.13237-2.23239
	c-0.1768-0.0578-0.36162-0.08737-0.54763-0.08762l0,0c-0.97753-0.00421-1.7734,0.78482-1.77761,1.76236
	c-0.00082,0.18936,0.02876,0.37764,0.08761,0.55765L112.24,170.11z"/>
<path class="st0" d="M109.93,170.73l-1.13-5.33c-0.19967-0.95694-1.13728-1.57083-2.09422-1.37115
	c-0.18487,0.03857-0.36238,0.10648-0.52579,0.20116l0,0c-0.84708,0.48788-1.13827,1.5701-0.65038,2.41719
	c0.09322,0.16185,0.21148,0.30794,0.35037,0.43282L109.93,170.73z"/>
<path class="st0" d="M108.25,172.42l-3.65-4.06c-0.65358-0.72693-1.77271-0.78639-2.49963-0.1328
	c-0.13889,0.12488-0.25714,0.27095-0.35036,0.4328l0,0c-0.49005,0.84584-0.20162,1.92879,0.64422,2.41884
	c0.16341,0.09467,0.34091,0.16258,0.52578,0.20116L108.25,172.42z"/>
<path class="st0" d="M107.63,174.72l-5.18-1.72c-0.92915-0.30377-1.92863,0.2032-2.23239,1.13235
	c-0.05885,0.18001-0.08842,0.36827-0.08761,0.55765l0,0c0.00132,0.97754,0.79484,1.76894,1.77238,1.76761
	c0.186-0.00024,0.37081-0.02982,0.54762-0.08762L107.63,174.72z"/>
<path class="st0" d="M108.25,177l-5.33,1.13c-0.95693,0.19966-1.57082,1.13728-1.37115,2.09421
	c0.03857,0.18488,0.10648,0.36238,0.20116,0.52579l0,0c0.47849,0.8461,1.55228,1.1441,2.39837,0.6656
	c0.16976-0.09599,0.32238-0.21956,0.45163-0.3656L108.25,177z"/>
<path class="st0" d="M116.23,177l3.64,4c0.64417,0.72792,1.75648,0.79581,2.48439,0.15163
	c0.14605-0.12924,0.26961-0.28188,0.36561-0.45163l0,0c0.49109-0.84523,0.20399-1.92854-0.64124-2.41963
	c-0.16129-0.0937-0.33636-0.16133-0.51876-0.20036L116.23,177z"/>
<path class="st0" d="M116.84,174.72l5.16,1.67999c0.92915,0.30376,1.92862-0.20323,2.23238-1.13237
	c0.05779-0.1768,0.08736-0.36162,0.08762-0.54762l0,0c0.02085-0.97733-0.75452-1.7865-1.73184-1.80736
	C122.38858,172.90839,122.18972,172.93793,122,173L116.84,174.72z"/>
<path class="st0" d="M116.23,172.42l5.33-1.14c0.95206-0.19594,1.56503-1.12659,1.36909-2.07864
	c-0.03926-0.19078-0.10992-0.37372-0.20909-0.54135l0,0c-0.48789-0.84708-1.57011-1.13826-2.41719-0.65038
	c-0.16185,0.09323-0.30793,0.21149-0.43281,0.35037L116.23,172.42z"/>
<path class="st0" d="M114.54,170.73l4-3.64999c0.72792-0.64417,0.79581-1.75647,0.15164-2.48439
	c-0.12926-0.14606-0.28188-0.26961-0.45164-0.36562l0,0c-0.84584-0.49005-1.92879-0.20163-2.41884,0.64421
	c-0.09468,0.16341-0.16259,0.34091-0.20116,0.52579L114.54,170.73z"/>
<circle class="st0" cx="112.24" cy="174.72" r="2.92"/>
<path class="st0" d="M112,150.75999V128H71.47v85.37H98v-47.64c0.02449-7.87813,6.13936-14.39482,14-14.92
	C112.00097,150.79335,112.00097,150.77664,112,150.75999z M84.24,138c2.76128-0.02762,5.02214,2.18846,5.04975,4.94975
	c0.02762,2.76128-2.18846,5.02213-4.94975,5.04974s-5.02214-2.18846-5.04975-4.94974C79.29008,143.03317,79.29,143.01659,79.29,143
	C79.28986,140.25798,81.49812,138.02742,84.24,138z M80,206.42999V155.3c0-0.5,0.27-0.91,0.6-0.91h7.35c0.33,0,0.6,0.41,0.6,0.91
	v51.13L80,206.42999z"/>
<path class="st0" d="M114.54,150.81c7.86065,0.52516,13.97552,7.04187,14.00001,14.92v47.61h26.56V128h-40.55v22.79001
	C114.54649,150.79659,114.54316,150.80325,114.54,150.81z M147.25999,143c0,2.76143-2.23857,5-5,5s-5-2.23857-5-5s2.23857-5,5-5
	S147.25999,140.23857,147.25999,143z M138,206.42999V155.3c0-0.5,0.27-0.91,0.60001-0.91H146c0.33,0,0.60001,0.41,0.60001,0.91
	v51.13L138,206.42999z"/>
<path class="st0" d="M74,102.17v10.18h76.87v-10.18H74z M80,108.9c-0.90573,0.00552-1.64445-0.72424-1.64997-1.62997
	s0.72424-1.64445,1.62997-1.64997s1.64445,0.72424,1.64997,1.62997c0.00002,0.00333,0.00003,0.00665,0.00003,0.00997
	C81.63001,108.16186,80.90184,108.8945,80,108.9z M87,108.9c-0.90575,0-1.64-0.73425-1.64-1.64s0.73425-1.64,1.64-1.64
	s1.64,0.73425,1.64,1.64l0,0C88.64,108.16575,87.90575,108.9,87,108.9z M94,108.9c-0.90575,0-1.64-0.73425-1.64-1.64
	s0.73425-1.64,1.64-1.64s1.64,0.73425,1.64,1.64l0,0C95.63454,108.16348,94.90347,108.89454,94,108.9z M101,108.9
	c-0.90575,0-1.64-0.73425-1.64-1.64s0.73425-1.64,1.64-1.64s1.64,0.73425,1.64,1.64l0,0
	c0.0006,0.90575-0.73315,1.64049-1.6389,1.6411c-0.02037,0.00002-0.04074-0.00035-0.0611-0.0011H101z M108,108.9
	c-0.90573,0.00552-1.64445-0.72424-1.64997-1.62997s0.72424-1.64445,1.62997-1.64997s1.64445,0.72424,1.64997,1.62997
	c0.00002,0.00333,0.00003,0.00665,0.00003,0.00997c0.0006,0.90575-0.73315,1.64049-1.6389,1.6411
	c-0.02037,0.00002-0.04074-0.00035-0.0611-0.0011H108z M115,108.9c-0.90575,0-1.64-0.73425-1.64-1.64s0.73425-1.64,1.64-1.64
	s1.64,0.73425,1.64,1.64l0,0c0.00137,0.90575-0.73178,1.64111-1.63753,1.64247c-0.03084,0.00005-0.06168-0.00078-0.09247-0.00247
	H115z M122,108.9c-0.90575,0-1.64-0.73425-1.64-1.64s0.73425-1.64,1.64-1.64s1.64,0.73425,1.64,1.64l0,0
	c-0.00385,0.91126-0.74569,1.64687-1.65695,1.64302c-0.03104-0.00013-0.06207-0.00114-0.09305-0.00302H122z M129,108.9
	c-0.90575,0-1.64-0.73425-1.64-1.64s0.73425-1.64,1.64-1.64s1.64,0.73425,1.64,1.64l0,0
	c0.00285,0.90574-0.7291,1.6423-1.63483,1.64515c-0.04512,0.00014-0.09021-0.00157-0.13518-0.00515H129z M136,108.9
	c-0.90573,0.00552-1.64444-0.72424-1.64996-1.62997s0.72424-1.64445,1.62997-1.64996
	c0.90573-0.00552,1.64444,0.72424,1.64996,1.62997c0.00002,0.00332,0.00003,0.00665,0.00003,0.00996
	c0.00285,0.90574-0.7291,1.6423-1.63483,1.64515c-0.04512,0.00014-0.09021-0.00157-0.13518-0.00515H136z M143,108.9
	c-0.90575,0-1.64-0.73425-1.64-1.64s0.73425-1.64,1.64-1.64s1.64,0.73425,1.64,1.64l0,0
	c0.00432,0.90574-0.72643,1.64349-1.63216,1.6478c-0.05605,0.00027-0.11206-0.00233-0.16785-0.0078H143z"/>
<rect x="90.87" y="89.59" class="st0" width="43.08001" height="4.95"/>
<rect x="90.87" y="95.89" class="st0" width="43.08001" height="3.88"/>
<polygon class="st0" points="157.96001,120.16 159.36,115.07 64.42,115.07 66.34,120.16 "/>
<polygon class="st0" points="66.86,121.51 68.27,125.25 156.55,125.25 157.58,121.51 "/>
<circle class="st0" cx="26.43" cy="212.77" r="1.85"/>
<circle class="st0" cx="198.41" cy="212.77" r="1.85001"/>
<circle class="st0" cx="112.24" cy="242.78" r="1.85"/>
<path class="st0" d="M134,31.5H86.76c-0.82843-0.09582-1.42233-0.84507-1.32651-1.67349
	C85.51405,29.12999,86.06348,28.58056,86.76,28.5H134c0.82843-0.09582,1.57768,0.49808,1.67349,1.32651
	c0.09583,0.82843-0.49808,1.57767-1.32651,1.67349C134.2317,31.51333,134.11528,31.51333,134,31.5z"/>
<path class="st0" d="M125.47,24.76H95.24c-0.82843,0.09582-1.57767-0.49808-1.67349-1.32651
	c-0.09582-0.82843,0.49808-1.57767,1.32651-1.67349c0.11528-0.01333,0.2317-0.01333,0.34698,0h30.23
	c0.82843-0.09582,1.57767,0.49808,1.67349,1.32651c0.09582,0.82843-0.49808,1.57767-1.32651,1.67349
	C125.70171,24.77333,125.58528,24.77333,125.47,24.76z"/>
<path class="st0" d="M112.27,242.17c4.62-8.10001,12.84-8.19,20.14001-8.10001c10.22,0.14,20.44,1,30.64,1.64999
	c7.45,0.45,16.53,1.07001,22.11-6.47c2-2.64,3.39-5.84,5.06-8.77c1.84-3.25,4.58-7.71001,8-7.71001h0.16v0.07001h-0.16
	c-3.45,0-6.19-4.47-8-7.72c-1.67-2.92-3.10001-6.13-5.06-8.77c-5.58-7.53-14.66-6.91-22.11-6.46001
	c-10.2,0.62-20.42,1.50999-30.64,1.64c-7.3,0.10001-15.52,0-20.14-8.10001h0.15c-4.63,8.11-12.85,8.2-20.15,8.10001
	c-10.22-0.13-20.44-1-30.64-1.64c-7.45-0.45-16.53-1.07001-22.11,6.46001c-2,2.64-3.39,5.85001-5.06,8.77
	c-1.84,3.25-4.57,7.72-8,7.72c-0.06,0-0.06-0.07001,0-0.07001c3.46,0,6.19,4.46001,8,7.71001c1.67,2.92999,3.11,6.13,5.06,8.77
	c5.58,7.53999,14.66,6.92,22.11,6.47c10.2-0.62,20.42-1.50999,30.64-1.64999c7.3-0.09,15.52,0,20.15,8.10001"/>
<path class="st1" d="M94.71,230.78999c5.81,0,12.78,0.55,17.63,6c4.85-5.46001,11.82-6,17.64-6h2.22
	c7.46001,0.10001,15,0.59,22.3,1.06l8.07001,0.5h0.2c1.78999,0.11,3.64999,0.21001,5.5,0.21001c5.39,0,10.71001-0.91,14.25-5.48
	c1.23308-1.70322,2.33939-3.49471,3.31-5.36c0.5-0.92,1-1.83,1.53999-2.72c1.24094-2.31406,2.84077-4.41679,4.74001-6.23
	c-1.89871-1.80231-3.49869-3.89511-4.74001-6.2c-0.53-0.89-1-1.81-1.53999-2.72c-0.97061-1.8653-2.07692-3.65678-3.31-5.36
	C178.98001,193.92,173.65001,193,168.27,193c-1.85001,0-3.7,0.11-5.49001,0.21001h-0.21001c-2.67,0.14999-5.33,0.32001-8,0.49001
	c-7.32001,0.48-14.89,1-22.37,1.06h-2.25c-5.81,0-12.76-0.55-17.61-6c-4.85,5.46001-11.8,6-17.61,6h-2.25
	c-7.48-0.09-15-0.58-22.37-1.06c-2.67-0.17-5.33-0.34-8-0.49001h-0.21c-1.79-0.10001-3.64-0.21001-5.48-0.21001
	c-5.39,0-10.71,0.92-14.25,5.49001c-1.23996,1.70058-2.34978,3.49234-3.32,5.36c-0.5,0.91-1,1.83-1.54,2.72
	c-1.23997,2.30341-2.83255,4.39873-4.72,6.21001c1.8877,1.81726,3.4832,3.91536,4.73001,6.21999c0.52,0.89,1,1.8,1.53,2.72
	c0.97021,1.86766,2.08004,3.65942,3.32,5.36c3.53,4.57001,8.85,5.48,14.24,5.48c1.85,0,3.71-0.10001,5.51-0.21001h0.19l8.07-0.5
	c7.3-0.47,14.84-1,22.3-1.06H94.71z"/>
<text transform="matrix(1 0 0 1 51.92999 211.16003)" class="st8"><tspan x="0" y="0" class="st0 st9 st10">Drupal</tspan><tspan x="45.23242" y="0" class="st0 st11 st10">Camp</tspan><tspan x="83.87207" y="0" class="st0 st9 st10"> </tspan></text>
<text transform="matrix(1 0 0 1 140.54999 211.16003)" class="st0 st9 st10">Delhi</text>
<text transform="matrix(1 0 0 1 100.13 224.90002)" class="st0 st11 st12">2019</text>
<path class="st0" d="M97.75,222.11H85.28c-0.16006,0.00563-0.29438-0.11958-0.3-0.27963c-0.00024-0.00679-0.00024-0.01358,0-0.02037
	c0-0.16568,0.13431-0.3,0.3-0.3H85.28h12.47c0.16349,0.00519,0.29481,0.13652,0.3,0.3C98.05,221.97568,97.9157,222.11,97.75,222.11
	L97.75,222.11z"/>
<circle class="st0" cx="84.21" cy="221.81" r="1.07"/>
<path class="st0" d="M138.73,222.11H126.26c-0.16006,0.00563-0.29438-0.11958-0.3-0.27963
	c-0.00024-0.00679-0.00024-0.01358,0-0.02037c0-0.16568,0.13431-0.3,0.3-0.3H126.26H138.73c0.16568,0,0.3,0.13431,0.3,0.3l0,0
	c0.00563,0.16006-0.11958,0.29437-0.27963,0.3C138.74358,222.11024,138.73679,222.11024,138.73,222.11z"/>
<circle class="st0" cx="139.8" cy="221.81" r="1.07001"/>
</svg>
