<?xml version="1.0" encoding="utf-8"?>
<!-- Generator: Adobe Illustrator 23.0.2, SVG Export Plug-In . SVG Version: 6.00 Build 0)  -->
<svg version="1.1" id="Layer_1" xmlns="http://www.w3.org/2000/svg" xmlns:xlink="http://www.w3.org/1999/xlink" x="0px" y="0px"
	 viewBox="0 0 316.7 363.4" style="enable-background:new 0 0 316.7 363.4;" xml:space="preserve">
<style type="text/css">
	.st0{fill:#0E144F;}
	.st1{fill:#FFFFFF;}
	.st2{fill:#FFD96E;}
	.st3{fill:#FFC648;}
	.st4{fill:#FFB53E;}
	.st5{fill:#FF841F;}
	.st6{fill:#DB2A4C;}
	.st7{enable-background:new    ;}
</style>
<g>
	<path class="st0" d="M245.9,300.7c-0.1,0-0.3,0-0.4-0.1c-0.1-0.1-0.1-0.5,0-0.7c0.7-0.5,1.4-1.2,2.1-1.8c0.1-0.1,0.5-0.1,0.7,0l0,0
		c0.1,0.1,0.1,0.5,0,0.7l-2.1,1.8C246.2,300.7,246,300.7,245.9,300.7z M243.7,300.7h-2.7c-0.3,0-0.4-0.3-0.4-0.5
		c0-0.3,0.3-0.4,0.4-0.4h2.7c0.3,0,0.5,0.1,0.5,0.4c0,0.3-0.1,0.5-0.4,0.5C243.8,300.7,243.7,300.7,243.7,300.7z M238.2,300.7h-2.7
		c-0.3,0-0.4-0.3-0.4-0.5c0-0.3,0.3-0.4,0.4-0.4h2.7c0.3,0,0.5,0.1,0.5,0.4c0,0.3-0.1,0.5-0.4,0.5
		C238.3,300.7,238.2,300.7,238.2,300.7z M232.7,300.7h-2.7c-0.3,0-0.4-0.3-0.4-0.5c0-0.3,0.3-0.4,0.4-0.4h2.7c0.3,0,0.5,0.1,0.5,0.4
		c0,0.3-0.1,0.5-0.4,0.5C232.8,300.7,232.7,300.7,232.7,300.7z M227.2,300.7h-2.7c-0.3,0-0.4-0.3-0.4-0.5c0-0.3,0.3-0.4,0.4-0.4h2.7
		c0.3,0,0.5,0.1,0.5,0.4c0,0.3-0.1,0.5-0.4,0.5C227.3,300.7,227.2,300.7,227.2,300.7z M221.7,300.7H219c-0.3,0-0.4-0.3-0.4-0.5
		c0-0.3,0.3-0.4,0.4-0.4h2.7c0.3,0,0.5,0.1,0.5,0.4c0,0.3-0.1,0.5-0.4,0.5C221.8,300.7,221.7,300.7,221.7,300.7z M216.2,300.7h-2.7
		c-0.3,0-0.4-0.3-0.4-0.5c0-0.3,0.3-0.4,0.4-0.4h2.7c0.3,0,0.5,0.1,0.5,0.4c0,0.3-0.1,0.5-0.4,0.5
		C216.3,300.7,216.2,300.7,216.2,300.7z M210.7,300.7H208c-0.3,0-0.4-0.3-0.4-0.5c0-0.3,0.3-0.4,0.4-0.4h2.7c0.3,0,0.5,0.1,0.5,0.4
		c0,0.3-0.1,0.5-0.4,0.5C210.9,300.7,210.7,300.7,210.7,300.7z M205.2,300.7h-2.7c-0.3,0-0.4-0.3-0.4-0.5c0-0.3,0.3-0.4,0.4-0.4h2.7
		c0.3,0,0.5,0.1,0.5,0.4c0,0.3-0.1,0.5-0.4,0.5C205.4,300.7,205.2,300.7,205.2,300.7z M199.7,300.7H197c-0.3,0-0.4-0.3-0.4-0.5
		c0-0.3,0.3-0.4,0.4-0.4h2.7c0.3,0,0.5,0.1,0.5,0.4c0,0.3-0.1,0.5-0.4,0.5C199.9,300.7,199.7,300.7,199.7,300.7z M194.2,300.7h-2.7
		c-0.3,0-0.4-0.3-0.4-0.5c0-0.3,0.3-0.4,0.4-0.4h2.7c0.3,0,0.5,0.1,0.5,0.4c0,0.3-0.1,0.5-0.4,0.5
		C194.4,300.7,194.2,300.7,194.2,300.7z M188.7,300.7H186c-0.3,0-0.4-0.3-0.4-0.5c0-0.3,0.3-0.4,0.4-0.4h2.7c0.3,0,0.5,0.1,0.5,0.4
		c0,0.3-0.1,0.5-0.4,0.5C188.9,300.7,188.7,300.7,188.7,300.7z M183.2,300.7h-2.7c-0.3,0-0.4-0.3-0.4-0.5c0-0.3,0.3-0.4,0.4-0.4h2.7
		c0.3,0,0.5,0.1,0.5,0.4c0,0.3-0.1,0.5-0.4,0.5C183.4,300.7,183.2,300.7,183.2,300.7z M177.7,300.7H175c-0.3,0-0.4-0.3-0.4-0.5
		c0-0.3,0.3-0.4,0.4-0.4h2.7c0.3,0,0.5,0.1,0.5,0.4c0,0.3-0.1,0.5-0.4,0.5C177.9,300.7,177.7,300.7,177.7,300.7z M172.3,300.7h-2.7
		c-0.3,0-0.4-0.3-0.4-0.5c0-0.3,0.3-0.4,0.4-0.4h2.7c0.3,0,0.5,0.1,0.5,0.4c0,0.3-0.1,0.5-0.4,0.5
		C172.4,300.7,172.3,300.7,172.3,300.7z M166.8,300.7H164c-0.3,0-0.4-0.3-0.4-0.5c0-0.3,0.3-0.4,0.4-0.4h2.7c0.3,0,0.5,0.1,0.5,0.4
		c0,0.3-0.1,0.5-0.4,0.5C166.9,300.7,166.8,300.7,166.8,300.7z M161.3,300.7h-2.7c-0.3,0-0.4-0.3-0.4-0.5c0-0.3,0.3-0.4,0.4-0.4h2.7
		c0.3,0,0.5,0.1,0.5,0.4c0,0.3-0.1,0.5-0.4,0.5C161.4,300.7,161.3,300.7,161.3,300.7z M155.8,300.7H153c-0.3,0-0.4-0.3-0.4-0.5
		c0-0.3,0.3-0.4,0.4-0.4h2.7c0.3,0,0.5,0.1,0.5,0.4c0,0.3-0.1,0.5-0.4,0.5C155.9,300.7,155.8,300.7,155.8,300.7z M150.3,300.7h-2.7
		c-0.3,0-0.4-0.3-0.4-0.5c0-0.3,0.3-0.4,0.4-0.4h2.7c0.3,0,0.5,0.1,0.5,0.4c0,0.3-0.1,0.5-0.4,0.5
		C150.4,300.7,150.3,300.7,150.3,300.7z M144.8,300.7H142c-0.3,0-0.4-0.3-0.4-0.5c0-0.3,0.3-0.4,0.4-0.4h2.7c0.3,0,0.5,0.1,0.5,0.4
		c0,0.3-0.1,0.5-0.4,0.5C144.9,300.7,144.8,300.7,144.8,300.7z M139.3,300.7h-2.7c-0.3,0-0.4-0.3-0.4-0.5c0-0.3,0.3-0.4,0.4-0.4h2.7
		c0.3,0,0.5,0.1,0.5,0.4c0,0.3-0.1,0.5-0.4,0.5C139.4,300.7,139.3,300.7,139.3,300.7z M133.8,300.7H131c-0.3,0-0.4-0.3-0.4-0.5
		c0-0.3,0.3-0.4,0.4-0.4h2.7c0.3,0,0.5,0.1,0.5,0.4c0,0.3-0.1,0.5-0.4,0.5C133.9,300.7,133.8,300.7,133.8,300.7z M128.3,300.7h-2.7
		c-0.3,0-0.4-0.3-0.4-0.5c0-0.3,0.3-0.4,0.4-0.4h2.7c0.3,0,0.5,0.1,0.5,0.4c0,0.3-0.1,0.5-0.4,0.5
		C128.4,300.7,128.3,300.7,128.3,300.7z M122.8,300.7h-2.7c-0.3,0-0.4-0.3-0.4-0.5c0-0.3,0.3-0.4,0.4-0.4h2.7c0.3,0,0.5,0.1,0.5,0.4
		c0,0.3-0.1,0.5-0.4,0.5C122.9,300.7,122.8,300.7,122.8,300.7z M117.3,300.7h-2.7c-0.3,0-0.4-0.3-0.4-0.5c0-0.3,0.3-0.4,0.4-0.4h2.7
		c0.3,0,0.5,0.1,0.5,0.4c0,0.3-0.1,0.5-0.4,0.5C117.4,300.7,117.3,300.7,117.3,300.7z M111.8,300.7h-2.7c-0.3,0-0.4-0.3-0.4-0.5
		c0-0.3,0.3-0.4,0.4-0.4h2.7c0.3,0,0.5,0.1,0.5,0.4c0,0.3-0.1,0.5-0.4,0.5C111.9,300.7,111.8,300.7,111.8,300.7z M106.3,300.7h-2.7
		c-0.3,0-0.4-0.3-0.4-0.5c0-0.3,0.3-0.4,0.4-0.4h2.7c0.3,0,0.5,0.1,0.5,0.4c0,0.3-0.1,0.5-0.4,0.5
		C106.5,300.7,106.3,300.7,106.3,300.7z M100.8,300.7h-2.7c-0.3,0-0.4-0.3-0.4-0.5c0-0.3,0.3-0.4,0.4-0.4h2.7c0.3,0,0.5,0.1,0.5,0.4
		c0,0.3-0.1,0.5-0.4,0.5C101,300.7,100.8,300.7,100.8,300.7z M95.3,300.7h-2.7c-0.3,0-0.4-0.3-0.4-0.5c0-0.3,0.3-0.4,0.4-0.4h2.7
		c0.3,0,0.5,0.1,0.5,0.4c0,0.3-0.1,0.5-0.4,0.5C95.5,300.7,95.3,300.7,95.3,300.7z M89.8,300.7h-2.7c-0.3,0-0.4-0.3-0.4-0.5
		c0-0.3,0.3-0.4,0.4-0.4h2.7c0.3,0,0.5,0.1,0.5,0.4c0,0.3-0.1,0.5-0.4,0.5C90,300.7,89.8,300.7,89.8,300.7z M84.3,300.7h-2.7
		c-0.3,0-0.4-0.3-0.4-0.5c0-0.3,0.3-0.4,0.4-0.4h2.7c0.3,0,0.5,0.1,0.5,0.4c0,0.3-0.1,0.5-0.4,0.5C84.5,300.7,84.3,300.7,84.3,300.7
		z M78.8,300.7h-2.7c-0.3,0-0.4-0.3-0.4-0.5c0-0.3,0.3-0.4,0.4-0.4h2.7c0.3,0,0.5,0.1,0.5,0.4c0,0.3-0.1,0.5-0.4,0.5
		C79,300.7,78.8,300.7,78.8,300.7z M73.4,300.7h-2.7c-0.3,0-0.4-0.3-0.4-0.5c0-0.3,0.3-0.4,0.4-0.4h2.7c0.3,0,0.5,0.1,0.5,0.4
		c0,0.3-0.1,0.5-0.4,0.5C73.5,300.7,73.4,300.7,73.4,300.7z M67.9,300.7h-1.5c-0.1,0-0.3,0-0.3-0.1l-1-0.8c-0.1-0.3-0.1-0.5,0.1-0.7
		c0.1-0.1,0.4-0.1,0.5,0l0.8,0.7h1.2c0.3,0,0.5,0.1,0.5,0.4c0,0.3-0.1,0.5-0.4,0.5C68,300.7,67.9,300.7,67.9,300.7L67.9,300.7z
		 M63.3,298c-0.1,0-0.3,0-0.3-0.1l-2.1-1.9c-0.1-0.1-0.1-0.5,0-0.7c0.1-0.1,0.5-0.1,0.7,0l0,0l2.1,1.9c0.1,0.1,0.1,0.5,0,0.7
		C63.6,298,63.5,298.1,63.3,298L63.3,298z M250,297c-0.1,0-0.3,0-0.4-0.1c-0.1-0.1-0.1-0.5,0-0.7l1.9-1.9c0.1-0.1,0.5-0.1,0.7,0
		c0.1,0.1,0.1,0.5,0,0.7l-2.1,1.9C250.1,297,250.1,297,250,297L250,297z M59.5,294.3c-0.1,0-0.3,0-0.4-0.1l-1.9-1.9
		c-0.1-0.1-0.1-0.5,0-0.7l0,0c0.1-0.1,0.5-0.1,0.7,0c0.7,0.7,1.2,1.4,1.9,1.9c0.1,0.1,0.1,0.5,0,0.7l0,0
		C59.8,294.1,59.6,294.3,59.5,294.3z M253.8,293.2c-0.1,0-0.3,0-0.4-0.1c-0.1-0.1-0.1-0.5,0-0.7c0.7-0.7,1.2-1.4,1.9-1.9
		c0.3-0.1,0.5-0.1,0.7,0.1c0.1,0.1,0.1,0.4,0,0.5c-0.7,0.7-1.2,1.4-1.9,1.9C254.1,293.2,254,293.2,253.8,293.2z M55.6,290.3
		c-0.1,0-0.3,0-0.4-0.1c-0.7-0.7-1.2-1.4-1.8-2.1c-0.1-0.3-0.1-0.5,0-0.7c0.3-0.1,0.5-0.1,0.7,0c0.5,0.7,1.2,1.4,1.8,2.1
		c0.1,0.1,0.1,0.5,0,0.7C55.9,290.3,55.8,290.3,55.6,290.3z M257.7,289.2c-0.1,0-0.3,0-0.3-0.1c-0.1-0.1-0.1-0.5,0-0.7l0,0l1.8-2.1
		c0.1-0.1,0.5-0.1,0.7,0l0,0c0.1,0.1,0.1,0.5,0,0.7c-0.5,0.7-1.2,1.4-1.8,2.1C258,289.2,257.8,289.2,257.7,289.2z M52.1,286.2
		c-0.1,0-0.3,0-0.4-0.1c-0.5-0.7-1.2-1.4-1.8-2.2c-0.1-0.3-0.1-0.5,0.1-0.7c0.3-0.1,0.5-0.1,0.7,0.1c0.5,0.7,1.1,1.4,1.8,2.1
		c0.1,0.3,0.1,0.5,0,0.7C52.2,286.2,52.1,286.2,52.1,286.2z M261.3,285.1c-0.1,0-0.3,0-0.3-0.1c-0.3-0.1-0.3-0.5-0.1-0.7
		c0.5-0.7,1.2-1.4,1.8-2.2c0.1-0.3,0.5-0.3,0.7-0.1l0,0c0.3,0.1,0.3,0.4,0.1,0.7l0,0c-0.5,0.7-1.1,1.5-1.8,2.2
		C261.5,284.9,261.4,285.1,261.3,285.1L261.3,285.1z M48.6,281.9c-0.1,0-0.3-0.1-0.4-0.1c-0.5-0.7-1.1-1.5-1.6-2.2
		c-0.3-0.1-0.3-0.5,0-0.7c0.3-0.1,0.5-0.3,0.7,0l0.1,0.1l1.6,2.2c0.1,0.3,0.1,0.5-0.1,0.7l0,0C48.8,281.9,48.6,281.9,48.6,281.9z
		 M264.7,280.8c-0.1,0-0.3,0-0.3-0.1c-0.3-0.1-0.3-0.5-0.1-0.7c0.5-0.7,1.1-1.5,1.6-2.2c0.1-0.3,0.4-0.3,0.7-0.1l0,0
		c0.3,0.1,0.3,0.5,0.1,0.7c-0.5,0.7-1.1,1.5-1.6,2.2C265,280.7,264.8,280.8,264.7,280.8z M45.3,277.5c-0.1,0-0.3-0.1-0.4-0.3
		c-0.5-0.7-1.1-1.5-1.5-2.2c-0.1-0.3-0.1-0.5,0.1-0.7l0,0c0.3-0.1,0.5-0.1,0.7,0.1c0.5,0.8,1.1,1.5,1.5,2.2c0.1,0.3,0.1,0.5-0.1,0.7
		l0,0C45.5,277.4,45.3,277.5,45.3,277.5z M267.9,276.3c-0.1,0-0.3,0-0.3-0.1c-0.3-0.1-0.3-0.4-0.1-0.7l0,0l1.5-2.2
		c0.1-0.3,0.4-0.3,0.7-0.1l0,0c0.3,0.1,0.3,0.4,0.1,0.7c-0.5,0.8-1.1,1.5-1.5,2.3C268.3,276.3,268.1,276.3,267.9,276.3L267.9,276.3z
		 M42.2,273c-0.1,0-0.3-0.1-0.4-0.3c-0.5-0.8-1-1.5-1.5-2.3c-0.1-0.3-0.1-0.5,0.1-0.7c0.3-0.1,0.5-0.1,0.7,0.1l0,0
		c0.5,0.8,1,1.5,1.5,2.3c0.1,0.3,0.1,0.5-0.1,0.7C42.4,272.8,42.3,273,42.2,273z M271,271.7c-0.1,0-0.1,0-0.3-0.1
		c-0.3-0.1-0.3-0.4-0.1-0.7l0,0c0.5-0.8,1-1.5,1.5-2.3c0.1-0.3,0.4-0.3,0.7-0.1l0,0c0.3,0.1,0.3,0.4,0.1,0.7l0,0
		c-0.5,0.8-1,1.5-1.5,2.3C271.3,271.6,271.2,271.7,271,271.7z M39.3,268.3c-0.1,0-0.4-0.1-0.4-0.3c-0.4-0.8-1-1.6-1.4-2.3
		c-0.1-0.3,0-0.5,0.1-0.7l0,0c0.3-0.1,0.5,0,0.7,0.1l0,0c0.4,0.8,1,1.6,1.4,2.3c0.1,0.3,0,0.5-0.1,0.7l0,0
		C39.4,268.2,39.4,268.3,39.3,268.3z M273.8,267.1c-0.1,0-0.1,0-0.3,0c-0.3-0.1-0.3-0.4-0.1-0.7l0,0c0.4-0.8,1-1.5,1.4-2.3
		c0.1-0.3,0.5-0.3,0.7-0.1c0.1,0.1,0.3,0.4,0.1,0.5c-0.4,0.8-0.8,1.6-1.4,2.5C274.2,267.1,274,267.1,273.8,267.1z M36.5,263.5
		c-0.1,0-0.4-0.1-0.4-0.3c-0.4-0.8-0.8-1.6-1.2-2.5c-0.1-0.3,0-0.5,0.3-0.7c0.3-0.1,0.4,0,0.5,0.1c0.4,0.8,0.8,1.6,1.2,2.5
		c0.1,0.3,0,0.5-0.1,0.7C36.8,263.5,36.7,263.5,36.5,263.5L36.5,263.5z M276.5,262.3c-0.1,0-0.1,0-0.3,0c-0.3-0.1-0.4-0.4-0.3-0.7
		l0,0c0.4-0.8,0.8-1.6,1.2-2.5c0.1-0.3,0.4-0.3,0.7-0.1s0.3,0.4,0.3,0.7c-0.4,0.8-0.8,1.6-1.2,2.5
		C276.8,262.1,276.7,262.3,276.5,262.3L276.5,262.3z M34.1,258.6c-0.1,0-0.4-0.1-0.4-0.3c-0.4-0.8-0.8-1.6-1.1-2.5
		c-0.1-0.3,0-0.5,0.3-0.7s0.5,0,0.7,0.3l1.1,2.5c0.1,0.3,0,0.5-0.3,0.7l0,0C34.2,258.6,34.2,258.6,34.1,258.6z M279,257.3
		c-0.1,0-0.1,0-0.3,0c-0.3-0.1-0.4-0.4-0.3-0.7l0,0c0.4-0.8,0.8-1.6,1.1-2.5c0.1-0.3,0.4-0.4,0.7-0.3l0,0c0.3,0.1,0.4,0.4,0.3,0.7
		c-0.4,0.8-0.8,1.6-1.1,2.5C279.3,257.2,279.1,257.3,279,257.3L279,257.3z M31.9,253.6c-0.1,0-0.4-0.1-0.4-0.3
		c-0.4-0.8-0.7-1.6-1.1-2.6c-0.1-0.3,0-0.5,0.1-0.7c0.3-0.1,0.5,0,0.7,0.1v0.1c0.3,0.8,0.7,1.6,1.1,2.5c0.1,0.3,0,0.5-0.3,0.7l0,0
		C32,253.6,32,253.6,31.9,253.6z M281.2,252.2H281c-0.3-0.1-0.4-0.4-0.3-0.7l0,0c0.4-0.8,0.7-1.6,1.1-2.6c0.1-0.3,0.4-0.4,0.7-0.3
		l0,0c0.3,0.1,0.4,0.4,0.3,0.7c-0.3,0.8-0.7,1.6-1,2.6C281.6,252.2,281.3,252.4,281.2,252.2L281.2,252.2z M29.8,248.5
		c-0.3,0-0.4-0.1-0.5-0.3c-0.3-0.8-0.7-1.8-1-2.6c-0.1-0.3,0-0.5,0.3-0.7s0.5,0,0.7,0.3c0.3,0.8,0.5,1.6,1,2.6
		c0.1,0.3,0,0.5-0.3,0.7H29.8z M283.1,247.2H283c-0.3-0.1-0.4-0.4-0.3-0.7c0.3-0.8,0.5-1.8,1-2.6c0.1-0.3,0.4-0.4,0.7-0.3l0,0
		c0.3,0.1,0.4,0.4,0.3,0.7c-0.3,0.8-0.5,1.8-1,2.6C283.5,247,283.4,247.2,283.1,247.2L283.1,247.2z M28,243.3
		c-0.3,0-0.4-0.1-0.5-0.4c-0.3-0.8-0.5-1.8-0.8-2.6c-0.1-0.3,0.1-0.5,0.4-0.7c0.3-0.1,0.5,0.1,0.7,0.4l0,0c0.3,0.8,0.5,1.8,0.8,2.6
		c0.1,0.3-0.1,0.5-0.3,0.7H28z M284.9,241.9h-0.1c-0.3-0.1-0.4-0.4-0.3-0.7c0.3-0.8,0.5-1.8,0.8-2.6c0.1-0.3,0.4-0.4,0.7-0.4l0,0
		c0.3,0.1,0.4,0.4,0.4,0.7c-0.3,0.8-0.5,1.8-0.8,2.6C285.3,241.8,285.2,241.9,284.9,241.9L284.9,241.9z M26.5,237.9
		c-0.3,0-0.4-0.1-0.5-0.4c-0.3-1-0.4-1.8-0.7-2.6c0-0.3,0.1-0.5,0.4-0.5l0,0c0.3,0,0.5,0.1,0.7,0.4c0.1,0.8,0.4,1.8,0.7,2.6
		C27.1,237.7,26.9,237.9,26.5,237.9L26.5,237.9z M286.4,236.6L286.4,236.6c-0.4,0-0.5-0.3-0.5-0.5l0,0c0.3-0.8,0.4-1.8,0.7-2.6
		c0-0.3,0.3-0.4,0.5-0.4c0.3,0,0.4,0.3,0.4,0.5l0,0c-0.1,0.8-0.4,1.8-0.7,2.7C286.8,236.6,286.5,236.7,286.4,236.6L286.4,236.6z
		 M25.1,232.7c-0.3,0-0.4-0.1-0.5-0.4c-0.1-1-0.4-1.8-0.5-2.7c0-0.3,0.1-0.5,0.4-0.5l0,0c0.3,0,0.5,0.1,0.5,0.4
		c0.1,0.8,0.3,1.8,0.5,2.7C25.8,232.5,25.5,232.7,25.1,232.7C25.3,232.7,25.3,232.7,25.1,232.7L25.1,232.7z M287.5,231.4
		L287.5,231.4c-0.4,0-0.5-0.3-0.5-0.5l0,0c0.1-1,0.3-1.8,0.5-2.7c0-0.3,0.3-0.4,0.5-0.4l0,0c0.3,0,0.4,0.3,0.4,0.5l0,0
		c-0.1,1-0.3,1.8-0.5,2.7C288.1,231.2,287.8,231.4,287.5,231.4L287.5,231.4z M24.2,227.2c-0.3,0-0.4-0.1-0.5-0.4
		c-0.1-1-0.3-1.8-0.4-2.7c0-0.3,0.3-0.5,0.5-0.5c0.3,0,0.4,0.1,0.5,0.4c0.1,0.8,0.3,1.8,0.4,2.7C24.7,227,24.6,227.2,24.2,227.2
		C24.3,227.2,24.3,227.2,24.2,227.2L24.2,227.2z M288.5,225.9L288.5,225.9c-0.4,0-0.5-0.3-0.5-0.5c0.1-1,0.3-1.8,0.3-2.7
		c0-0.3,0.3-0.4,0.5-0.4l0,0c0.3,0,0.4,0.3,0.4,0.5c-0.1,1-0.1,1.8-0.3,2.7C288.9,225.7,288.7,225.9,288.5,225.9z M23.6,221.7
		c-0.3,0-0.5-0.3-0.5-0.5c-0.1-1-0.1-1.8-0.1-2.7c0-0.3,0.1-0.5,0.4-0.5c0.3,0,0.5,0.1,0.5,0.4v0.1c0,0.8,0.1,1.8,0.1,2.7
		C24.2,221.6,23.9,221.7,23.6,221.7L23.6,221.7L23.6,221.7z M289,220.4L289,220.4c-0.3,0-0.5-0.3-0.5-0.5c0-1,0.1-1.8,0.1-2.7
		c0-0.3,0.3-0.4,0.5-0.5c0.3,0,0.5,0.3,0.5,0.5l0,0c0,1-0.1,1.8-0.1,2.7C289.6,220.1,289.4,220.4,289,220.4L289,220.4L289,220.4z
		 M23.3,216.2c-0.3,0-0.5-0.3-0.5-0.5c0-0.4,0-0.8,0-1.1v-1.6c0-0.3,0.3-0.5,0.5-0.5l0,0c0.3,0,0.5,0.3,0.5,0.5v1.6
		c0,0.4,0,0.8,0,1.1C23.8,216,23.6,216.2,23.3,216.2L23.3,216.2L23.3,216.2z M289.2,214.9c-0.3,0-0.5-0.3-0.5-0.5l0,0
		c0-1,0-1.8,0-2.7c0-0.3,0.3-0.5,0.5-0.5l0,0c0.3,0,0.5,0.3,0.5,0.5c0,1,0,1.8,0,2.7C289.7,214.6,289.4,214.9,289.2,214.9
		L289.2,214.9L289.2,214.9z M23.3,210.8L23.3,210.8c-0.3,0-0.5-0.3-0.5-0.5l0,0l0.1-2.7c0-0.3,0.3-0.5,0.5-0.5l0,0
		c0.3,0,0.5,0.3,0.5,0.5l-0.1,2.7C23.9,210.5,23.6,210.8,23.3,210.8z M289,209.4c-0.3,0-0.5-0.3-0.5-0.5c0-1,0-1.8-0.1-2.7
		c0-0.3,0.3-0.5,0.5-0.5s0.5,0.1,0.5,0.4l0,0c0,1,0,1.8,0.1,2.7C289.6,209.1,289.4,209.4,289,209.4
		C289.2,209.4,289.2,209.4,289,209.4L289,209.4z M23.6,205.3L23.6,205.3c-0.3,0-0.5-0.3-0.5-0.5l0,0c0-1,0.1-1.8,0.1-2.7
		c0-0.3,0.3-0.5,0.5-0.5l0,0c0.3,0,0.5,0.3,0.4,0.5c0,1-0.1,1.8-0.1,2.7C24.2,205.1,23.9,205.3,23.6,205.3z M288.9,203.9
		c-0.3,0-0.5-0.3-0.5-0.5c0-1-0.1-1.8-0.1-2.7c0-0.3,0.1-0.5,0.5-0.5c0.3,0,0.5,0.1,0.5,0.4l0,0c0.1,1,0.1,1.8,0.1,2.7
		C289.4,203.6,289.2,203.9,288.9,203.9L288.9,203.9z M24,199.8L24,199.8c-0.3,0-0.5-0.3-0.4-0.5c0.1-1,0.1-1.8,0.3-2.7
		c0-0.3,0.4-0.4,0.7-0.4s0.4,0.3,0.4,0.5c-0.1,1-0.1,1.8-0.3,2.7C24.6,199.6,24.3,199.9,24,199.8C24,199.9,24,199.9,24,199.8
		L24,199.8z M288.5,198.4c-0.3,0-0.5-0.1-0.5-0.4c-0.1-1-0.1-1.8-0.3-2.7c0-0.3,0.1-0.5,0.4-0.5s0.5,0.1,0.5,0.4
		c0.1,0.8,0.1,1.8,0.3,2.7C289,198.1,288.9,198.4,288.5,198.4L288.5,198.4L288.5,198.4z M24.6,194.3L24.6,194.3
		c-0.3,0-0.5-0.3-0.4-0.5c0.1-1,0.3-1.8,0.4-2.7c0-0.3,0.3-0.4,0.5-0.4c0.3,0,0.4,0.3,0.4,0.5l0,0c-0.1,0.8-0.3,1.8-0.4,2.7
		C25.1,194.1,25,194.4,24.6,194.3C24.6,194.4,24.6,194.4,24.6,194.3L24.6,194.3z M287.9,192.9c-0.3,0-0.4-0.1-0.5-0.4l-0.4-2.7
		c0-0.3,0.1-0.5,0.4-0.5c0.3,0,0.5,0.1,0.5,0.4l0,0c0.1,0.8,0.3,1.8,0.4,2.7C288.5,192.6,288.2,192.8,287.9,192.9L287.9,192.9
		L287.9,192.9z M25.4,188.8L25.4,188.8c-0.4,0-0.5-0.3-0.5-0.5c0.1-1,0.3-1.8,0.5-2.7c0-0.3,0.3-0.4,0.5-0.4c0.3,0,0.4,0.3,0.4,0.5
		c-0.1,0.8-0.3,1.8-0.4,2.7c0,0.3-0.1,0.5-0.4,0.5c0,0,0,0-0.1,0V188.8z M287.1,187.4c-0.3,0-0.4-0.1-0.5-0.4
		c-0.1-1-0.3-1.8-0.5-2.7c0-0.3,0.1-0.5,0.4-0.5c0.3,0,0.5,0.1,0.5,0.4c0.1,0.8,0.3,1.8,0.5,2.7
		C287.6,187.1,287.4,187.3,287.1,187.4L287.1,187.4z M26.4,183.6L26.4,183.6c-0.4,0-0.5-0.3-0.5-0.5c0.1-1,0.4-1.8,0.5-2.7
		c0-0.3,0.3-0.4,0.5-0.4l0,0c0.3,0,0.4,0.3,0.4,0.5c-0.1,0.8-0.4,1.8-0.5,2.6C26.8,183.3,26.6,183.6,26.4,183.6z M286,182.2
		c-0.3,0-0.4-0.1-0.5-0.4c-0.1-1-0.4-1.8-0.5-2.6c0-0.3,0.1-0.5,0.4-0.5s0.5,0.1,0.5,0.4l0,0c0.1,0.8,0.4,1.8,0.5,2.7
		C286.5,181.9,286.4,182.2,286,182.2L286,182.2z M27.6,178.2L27.6,178.2c-0.4-0.1-0.5-0.4-0.5-0.7c0.3-0.8,0.4-1.8,0.7-2.6
		c0-0.3,0.3-0.4,0.5-0.4l0,0c0.3,0.1,0.4,0.4,0.4,0.7l0,0c-0.3,0.8-0.4,1.8-0.7,2.6C28,178.1,27.7,178.2,27.6,178.2z M284.8,176.8
		c-0.3,0-0.4-0.1-0.5-0.4c-0.3-1-0.4-1.8-0.7-2.6c-0.1-0.3,0-0.5,0.3-0.7c0.3-0.1,0.5,0,0.7,0.3v0.1c0.3,0.8,0.5,1.8,0.7,2.6
		C285.3,176.4,285.2,176.7,284.8,176.8L284.8,176.8z M29,172.8h-0.1c-0.3-0.1-0.4-0.4-0.3-0.7c0.3-0.8,0.5-1.8,0.8-2.6
		c0.1-0.3,0.4-0.4,0.7-0.3c0.3,0.1,0.4,0.4,0.3,0.7c-0.3,0.8-0.5,1.8-0.8,2.6C29.4,172.7,29.3,172.8,29,172.8L29,172.8z
		 M283.2,171.5c-0.3,0-0.4-0.1-0.5-0.4c-0.3-0.8-0.5-1.8-0.8-2.6c-0.1-0.3,0-0.5,0.3-0.7s0.5,0.1,0.7,0.3c0.3,0.8,0.5,1.8,0.8,2.6
		c0.1,0.3-0.1,0.5-0.3,0.7l0,0C283.4,171.5,283.4,171.6,283.2,171.5L283.2,171.5z M30.6,167.6h-0.1c-0.3-0.1-0.4-0.4-0.3-0.7l0,0
		c0.3-0.8,0.7-1.8,1-2.6c0.1-0.3,0.4-0.4,0.7-0.3l0,0c0.3,0.1,0.4,0.4,0.3,0.7c-0.3,0.8-0.7,1.6-1,2.6
		C31,167.5,30.9,167.6,30.6,167.6L30.6,167.6z M281.6,166.2c-0.3,0-0.4-0.1-0.5-0.3c-0.3-0.8-0.7-1.6-1-2.6c-0.1-0.3,0-0.5,0.3-0.7
		c0.3-0.1,0.5,0,0.7,0.3l0,0c0.3,0.8,0.7,1.6,1,2.6c0.1,0.3,0,0.5-0.3,0.7C281.7,166.2,281.6,166.2,281.6,166.2L281.6,166.2z
		 M32.6,162.5h-0.1c-0.3-0.1-0.4-0.4-0.3-0.7l0,0c0.3-0.8,0.7-1.6,1.1-2.6c0.1-0.3,0.4-0.4,0.7-0.3l0,0c0.3,0.1,0.4,0.4,0.3,0.7
		c-0.4,0.8-0.7,1.6-1.1,2.5C33,162.4,32.8,162.5,32.6,162.5z M279.5,161.2c-0.1,0-0.4-0.1-0.4-0.3c-0.4-0.8-0.7-1.6-1.1-2.5
		c-0.1-0.3,0-0.5,0.3-0.7s0.5,0,0.7,0.3l0,0c0.4,0.8,0.7,1.6,1.1,2.5c0.1,0.3,0,0.5-0.3,0.7l0,0
		C279.7,161.2,279.7,161.2,279.5,161.2L279.5,161.2z M34.8,157.5c-0.1,0-0.1,0-0.3,0c-0.3-0.1-0.4-0.4-0.3-0.7
		c0.4-0.8,0.8-1.6,1.2-2.5c0.1-0.3,0.4-0.4,0.7-0.3c0.3,0.1,0.4,0.4,0.3,0.7l0,0c-0.4,0.8-0.8,1.6-1.1,2.5
		C35.2,157.5,34.9,157.5,34.8,157.5z M277.3,156.2c-0.1,0-0.4-0.1-0.4-0.3c-0.4-0.8-0.8-1.6-1.2-2.5c-0.1-0.3,0-0.5,0.3-0.7l0,0
		c0.3-0.1,0.5,0,0.7,0.3l0,0c0.4,0.8,0.8,1.6,1.2,2.5c0.1,0.3,0,0.5-0.3,0.7l0,0C277.5,156.2,277.5,156.2,277.3,156.2z M37.2,152.5
		c-0.1,0-0.1,0-0.3,0c-0.3-0.1-0.4-0.4-0.3-0.7c0.4-0.8,0.8-1.6,1.2-2.5c0.1-0.3,0.5-0.3,0.7-0.1c0.1,0.1,0.3,0.4,0.1,0.5
		c-0.4,0.8-0.8,1.6-1.2,2.5C37.5,152.5,37.4,152.5,37.2,152.5z M274.9,151.3c-0.1,0-0.4-0.1-0.4-0.3c-0.4-0.8-0.8-1.6-1.4-2.3
		c-0.1-0.3,0-0.5,0.1-0.7l0,0c0.3-0.1,0.5,0,0.7,0.1l0,0c0.4,0.8,1,1.6,1.4,2.5c0.1,0.3,0,0.5-0.1,0.7l0,0
		C275,151.3,274.9,151.3,274.9,151.3L274.9,151.3z M39.8,147.7c-0.1,0-0.1,0-0.3,0c-0.3-0.1-0.3-0.4-0.1-0.7l0,0
		c0.4-0.8,1-1.6,1.4-2.3c0.1-0.3,0.4-0.3,0.7-0.1s0.3,0.4,0.1,0.7c-0.4,0.8-1,1.5-1.4,2.3C40.1,147.7,40,147.7,39.8,147.7z
		 M272.1,146.6c-0.1,0-0.4-0.1-0.4-0.3c-0.4-0.8-1-1.5-1.5-2.3c-0.1-0.3-0.1-0.5,0.1-0.7c0.3-0.1,0.5-0.1,0.7,0.1l0,0
		c0.5,0.8,1,1.5,1.5,2.3c0.1,0.3,0,0.5-0.1,0.7C272.3,146.6,272.1,146.6,272.1,146.6z M42.7,143c-0.1,0-0.1,0-0.3-0.1
		c-0.3-0.1-0.3-0.4-0.1-0.7c0.5-0.8,1-1.5,1.5-2.3c0.1-0.3,0.5-0.3,0.7-0.1c0.1,0.1,0.3,0.4,0.1,0.7c-0.5,0.8-1,1.5-1.5,2.3
		C43,142.9,42.9,143,42.7,143L42.7,143z M269.1,141.9c-0.1,0-0.3-0.1-0.4-0.3c-0.5-0.8-1.1-1.5-1.5-2.2c-0.1-0.3-0.1-0.5,0.1-0.7
		s0.5-0.1,0.7,0.1c0.5,0.7,1.1,1.5,1.6,2.2c0.1,0.3,0.1,0.5-0.1,0.7l0,0C269.4,141.9,269.2,141.9,269.1,141.9L269.1,141.9
		L269.1,141.9z M45.7,138.5c-0.1,0-0.3,0-0.3-0.1c-0.3-0.1-0.3-0.4-0.1-0.7l0,0c0.5-0.8,1.1-1.5,1.6-2.2c0.3-0.1,0.5-0.1,0.7,0
		c0.1,0.1,0.1,0.4,0.1,0.5c-0.5,0.7-1.1,1.5-1.6,2.2C46,138.4,45.9,138.5,45.7,138.5z M265.8,137.5c-0.1,0-0.3-0.1-0.4-0.3
		c-0.5-0.7-1.1-1.4-1.6-2.2c-0.1-0.3-0.1-0.5,0.1-0.7c0.3-0.1,0.5-0.1,0.7,0.1l0,0c0.5,0.7,1.1,1.4,1.6,2.2c0.1,0.3,0.1,0.5-0.1,0.7
		l0,0C266.1,137.4,265.9,137.5,265.8,137.5L265.8,137.5L265.8,137.5z M49,134.1c-0.1,0-0.3,0-0.3-0.1c-0.3-0.1-0.3-0.4-0.1-0.7l0,0
		c0.5-0.7,1.1-1.4,1.6-2.2c0.1-0.3,0.5-0.3,0.7-0.1c0.1,0.1,0.3,0.5,0.1,0.7c-0.5,0.7-1.1,1.4-1.6,2.2C49.3,134,49.2,134.1,49,134.1
		z M262.4,133.3c-0.1,0-0.3-0.1-0.4-0.1c-0.5-0.7-1.2-1.4-1.8-2.1c-0.1-0.3-0.1-0.5,0.1-0.7c0.1-0.1,0.4-0.1,0.5,0
		c0.5,0.7,1.2,1.4,1.8,2.1c0.1,0.3,0.1,0.5,0,0.7C262.6,133.1,262.5,133.3,262.4,133.3z M52.5,129.8c-0.1,0-0.3,0-0.3-0.1
		c-0.1-0.1-0.1-0.5,0-0.7c0.5-0.7,1.2-1.4,1.8-2.1c0.1-0.1,0.5-0.1,0.7,0c0.1,0.1,0.1,0.4,0,0.7l-1.8,2.1
		C52.7,129.8,52.6,129.8,52.5,129.8z M258.8,129.2c-0.1,0-0.3,0-0.4-0.1c-0.5-0.7-1.2-1.4-1.9-1.9c-0.1-0.1-0.1-0.5,0-0.7
		c0.1-0.1,0.5-0.1,0.7,0l0,0l1.9,2.1c0.1,0.1,0.1,0.5,0,0.7C259.1,129,258.9,129.2,258.8,129.2L258.8,129.2z M56,125.7
		c-0.1,0-0.3,0-0.3-0.1c-0.1-0.1-0.1-0.5,0-0.7l0,0c0.7-0.7,1.2-1.4,1.9-2.1c0.1-0.1,0.5-0.1,0.7,0l0,0c0.1,0.1,0.1,0.5,0,0.7l0,0
		c-0.7,0.7-1.2,1.4-1.8,2.1C56.5,125.7,56.2,125.7,56,125.7z M255.1,125.2c-0.1,0-0.3,0-0.4-0.1c-0.7-0.7-1.2-1.2-1.9-1.9
		c-0.1-0.1-0.1-0.5,0-0.7c0.1-0.1,0.5-0.1,0.7,0l0,0c0.7,0.7,1.4,1.2,1.9,1.9c0.1,0.3,0.1,0.5,0,0.7
		C255.4,125,255.2,125.2,255.1,125.2z M59.9,121.7c-0.1,0-0.3,0-0.4-0.1c-0.1-0.1-0.1-0.5,0-0.7c0.7-0.7,1.2-1.4,1.9-1.9
		c0.1-0.1,0.5-0.1,0.7,0l0,0c0.1,0.1,0.1,0.5,0,0.7c-0.7,0.7-1.4,1.2-1.9,1.9C60.2,121.7,60,121.7,59.9,121.7z M251.1,121.3
		c-0.1,0-0.3,0-0.3-0.1c-0.7-0.5-1.4-1.2-2.1-1.8c-0.1-0.1-0.1-0.5,0-0.7c0.1-0.1,0.5-0.1,0.7,0l0,0l2.1,1.8c0.1,0.1,0.1,0.5,0,0.7
		C251.4,121.3,251.2,121.3,251.1,121.3z M63.7,117.9c-0.1,0-0.3,0-0.4-0.1c-0.1-0.1-0.1-0.5,0-0.7c0.7-0.7,1.4-1.2,2.1-1.9
		c0.1-0.1,0.5-0.1,0.7,0l0,0c0.1,0.1,0.1,0.5,0,0.7l-2.1,1.9C64,117.8,63.9,117.9,63.7,117.9z M247,117.6c-0.1,0-0.3,0-0.3-0.1
		c-0.7-0.5-1.4-1.2-2.1-1.8c-0.1-0.1-0.1-0.5,0-0.7l0,0c0.1-0.1,0.5-0.1,0.7,0c0.7,0.5,1.4,1.2,2.1,1.8c0.1,0.1,0.1,0.5,0,0.7
		C247.3,117.6,247.1,117.6,247,117.6L247,117.6z M67.9,114.2c-0.1,0-0.3-0.1-0.4-0.1c-0.1-0.1-0.1-0.5,0-0.7l2.1-1.8
		c0.1-0.3,0.5-0.3,0.7,0c0.3,0.1,0.3,0.5,0,0.7l-0.1,0.1l-2.1,1.8C68,114,68,114.2,67.9,114.2z M242.7,114.2c-0.1,0-0.3,0-0.3-0.1
		l-2.2-1.6c-0.3-0.1-0.3-0.5-0.1-0.7l0,0c0.1-0.3,0.5-0.3,0.7-0.1l0,0l2.2,1.6c0.3,0.1,0.3,0.5,0.1,0.7
		C243.1,114,243,114.2,242.7,114.2L242.7,114.2z M238.5,110.7c-0.1,0-0.3,0-0.3-0.1L236,109c-0.1-0.3-0.1-0.5,0-0.7s0.4-0.1,0.5-0.1
		l2.2,1.6c0.3,0.1,0.3,0.5,0.1,0.7C238.7,110.6,238.6,110.7,238.5,110.7L238.5,110.7z M72,110.6c-0.1,0-0.3-0.1-0.4-0.1
		c-0.1-0.1-0.1-0.5,0-0.7l0,0l2.1-1.8c0.3-0.1,0.5-0.1,0.7,0.1c0.1,0.3,0.1,0.5-0.1,0.7l-1.9,1.6C72.3,110.5,72.1,110.6,72,110.6z
		 M234.1,107.5c-0.1,0-0.3,0-0.3-0.1l-2.2-1.6c-0.3-0.1-0.3-0.4-0.1-0.7l0,0c0.1-0.3,0.5-0.3,0.7-0.1l0,0l2.2,1.6
		c0.3,0.1,0.3,0.5,0.1,0.7C234.3,107.3,234.2,107.5,234.1,107.5L234.1,107.5z M76.2,107c-0.1,0-0.3-0.1-0.4-0.1
		c-0.1-0.3-0.1-0.5,0.1-0.7l2.2-1.6c0.3-0.1,0.5-0.1,0.7,0.1c0.1,0.1,0.1,0.4-0.1,0.7l-2.2,1.6C76.4,107,76.4,107,76.2,107z
		 M229.7,104.2c-0.1,0-0.3,0-0.3-0.1l-2.2-1.5c-0.3-0.1-0.3-0.4-0.1-0.7l0,0c0.1-0.3,0.4-0.3,0.7-0.1l0,0c0.8,0.5,1.5,1.1,2.2,1.6
		c0.3,0.1,0.3,0.4,0.1,0.7l0,0C229.9,104.2,229.8,104.2,229.7,104.2z M80.5,103.6c-0.1,0-0.3-0.1-0.4-0.1c-0.1-0.3-0.1-0.5,0.1-0.7
		l2.2-1.6c0.3-0.1,0.5-0.1,0.7,0c0.1,0.1,0.1,0.5,0,0.7c0,0,0,0-0.1,0l-2.2,1.6C80.8,103.6,80.6,103.6,80.5,103.6z M225.1,101.1
		c-0.1,0-0.1,0-0.3-0.1l-2.2-1.5c-0.3-0.1-0.4-0.4-0.3-0.7s0.4-0.4,0.7-0.3c0,0,0.1,0,0.1,0.1l2.3,1.5c0.3,0.1,0.3,0.4,0.1,0.7l0,0
		C225.4,101,225.3,101.1,225.1,101.1z M84.9,100.3c-0.1,0-0.3-0.1-0.4-0.3c-0.1-0.3-0.1-0.5,0.1-0.7l2.2-1.6c0.1-0.3,0.5-0.3,0.7,0
		c0.1,0.3,0.3,0.5,0,0.7l-0.1,0.1l-2.2,1.6C85.2,100.2,85,100.3,84.9,100.3z M220.6,98c-0.1,0-0.1,0-0.3-0.1l-2.3-1.5
		c-0.3-0.1-0.3-0.4-0.1-0.7c0.1-0.3,0.4-0.3,0.7-0.1l2.3,1.5c0.3,0.1,0.3,0.4,0.1,0.7l0,0C220.9,98,220.7,98,220.6,98z M89.3,97
		c-0.1,0-0.3-0.1-0.4-0.3c-0.1-0.3-0.1-0.5,0.1-0.7l0,0l2.2-1.6c0.3-0.1,0.5-0.1,0.7,0.1c0.1,0.3,0.1,0.5-0.1,0.7l0,0l-2.2,1.6
		C89.4,97,89.4,97,89.3,97z M215.9,95c-0.1,0-0.1,0-0.3-0.1l-2.3-1.5c-0.3-0.1-0.3-0.4-0.1-0.7l0,0c0.1-0.3,0.4-0.3,0.7-0.1l2.3,1.4
		c0.3,0.1,0.3,0.4,0.1,0.7C216.3,94.8,216.1,95,215.9,95z M93.8,93.7c-0.1,0-0.3-0.1-0.4-0.3c-0.1-0.3-0.1-0.5,0.1-0.7l0,0l2.2-1.6
		c0.3-0.1,0.5,0,0.7,0.3c0.1,0.3,0,0.4-0.1,0.7l-2.2,1.6C94,93.7,93.8,93.7,93.8,93.7L93.8,93.7z M211.3,92.1c-0.1,0-0.1,0-0.3-0.1
		l-2.3-1.5c-0.3-0.1-0.3-0.4-0.1-0.7c0.1-0.3,0.4-0.3,0.7-0.1l0,0l2.3,1.5c0.3,0.1,0.3,0.4,0.1,0.7
		C211.7,91.9,211.5,92.1,211.3,92.1z M98.2,90.6c-0.1,0-0.3-0.1-0.4-0.3c-0.1-0.3-0.1-0.5,0.1-0.7l0,0l2.2-1.6
		c0.3-0.1,0.5-0.1,0.7,0.1l0,0c0.1,0.3,0.1,0.5-0.1,0.7l-2.2,1.6C98.5,90.6,98.4,90.6,98.2,90.6L98.2,90.6z M206.7,89
		c-0.1,0-0.1,0-0.3-0.1l-2.2-1.5c-0.3-0.1-0.3-0.5-0.1-0.7c0.1-0.3,0.5-0.3,0.7-0.1c0.7,0.5,1.5,1.1,2.2,1.5
		c0.3,0.1,0.3,0.4,0.1,0.7l0,0C207,88.9,206.9,89,206.7,89L206.7,89z M102.6,87.3c-0.1,0-0.3-0.1-0.4-0.3c-0.1-0.3-0.1-0.5,0-0.7
		l0,0c0.7-0.5,1.4-1.1,2.1-1.8c0.3-0.1,0.5-0.1,0.7,0c0.1,0.1,0.1,0.5,0,0.7c-0.7,0.5-1.4,1.1-2.2,1.8
		C102.9,87.3,102.7,87.3,102.6,87.3L102.6,87.3z M202.2,85.9c-0.1,0-0.3,0-0.3-0.1c-0.8-0.5-1.5-1.1-2.2-1.6
		c-0.3-0.1-0.3-0.5-0.1-0.7c0.1-0.3,0.5-0.3,0.7-0.1l0,0c0.7,0.5,1.4,1.1,2.2,1.6c0.3,0.1,0.3,0.4,0.1,0.7l0,0
		C202.5,85.9,202.3,85.9,202.2,85.9z M106.9,83.7c-0.1,0-0.3,0-0.4-0.1c-0.1-0.1-0.1-0.5,0-0.7c0.7-0.7,1.4-1.2,2.1-1.8
		c0.3-0.1,0.5-0.1,0.7,0.1c0.1,0.1,0.1,0.4,0,0.5c-0.7,0.7-1.4,1.2-2.1,1.8C107,83.7,107,83.7,106.9,83.7z M197.9,82.6
		c-0.1,0-0.3,0-0.3-0.1c-0.7-0.5-1.4-1.2-2.1-1.8c-0.3-0.1-0.3-0.4-0.1-0.7c0.1-0.3,0.4-0.3,0.7-0.1c0,0,0.1,0,0.1,0.1
		c0.7,0.5,1.4,1.1,2.1,1.8c0.3,0.1,0.3,0.5,0.1,0.7C198.2,82.5,198.1,82.6,197.9,82.6z M110.9,80c-0.3,0-0.5-0.3-0.5-0.5
		c0-0.1,0-0.3,0.1-0.4c0.7-0.7,1.2-1.4,1.9-1.9c0.1-0.1,0.5-0.1,0.7,0c0.1,0.1,0.1,0.5,0,0.7l0,0c-0.5,0.7-1.2,1.4-1.9,1.9
		C111.1,80,111,80,110.9,80z M193.7,78.9c-0.1,0-0.3,0-0.3-0.1c-0.7-0.7-1.4-1.2-2.1-1.9c-0.1-0.1-0.3-0.5,0-0.7
		c0.1-0.1,0.5-0.3,0.7,0l0,0c0.7,0.7,1.2,1.2,1.9,1.9c0.1,0.1,0.1,0.5,0,0.7l0,0C194,78.7,193.8,78.9,193.7,78.9z M114.7,76
		c-0.1,0-0.3,0-0.3-0.1c-0.1-0.1-0.1-0.5,0-0.7l0,0c0.5-0.7,1.2-1.4,1.8-2.1c0.1-0.3,0.4-0.3,0.7-0.1c0.3,0.1,0.3,0.4,0.1,0.7
		c0,0,0,0.1-0.1,0.1c-0.5,0.7-1.2,1.4-1.8,2.1C115,76,114.8,76,114.7,76z M189.8,75c-0.1,0-0.3,0-0.4-0.1c-0.7-0.7-1.2-1.4-1.9-2.1
		c-0.1-0.1-0.1-0.5,0-0.7s0.5-0.1,0.7,0l0,0c0.5,0.7,1.2,1.4,1.9,2.1c0.1,0.1,0.1,0.5,0,0.7C190.1,75,190,75,189.8,75z M118.1,71.7
		c-0.1,0-0.3,0-0.3-0.1c-0.3-0.1-0.3-0.5-0.1-0.7l0,0c0.5-0.7,1.1-1.5,1.6-2.2c0.1-0.3,0.4-0.3,0.7-0.1l0,0c0.3,0.1,0.3,0.5,0.1,0.7
		l0,0c-0.5,0.7-1.1,1.5-1.6,2.2C118.4,71.7,118.3,71.7,118.1,71.7L118.1,71.7z M186.3,70.9c-0.1,0-0.3-0.1-0.4-0.1
		c-0.5-0.7-1.2-1.5-1.6-2.2c-0.1-0.3-0.1-0.5,0.1-0.7c0.3-0.1,0.5-0.1,0.7,0.1l0,0c0.5,0.7,1.1,1.4,1.6,2.2c0.1,0.1,0.1,0.5,0,0.7
		C186.5,70.9,186.3,70.9,186.3,70.9L186.3,70.9z M121.3,67.3c-0.1,0-0.1,0-0.3-0.1c-0.3-0.1-0.3-0.4-0.1-0.7l0,0
		c0.5-0.8,1-1.5,1.4-2.3c0.1-0.3,0.4-0.3,0.7-0.1c0.3,0.1,0.3,0.4,0.1,0.7l0,0c-0.4,0.8-1,1.5-1.5,2.3
		C121.6,67.2,121.4,67.3,121.3,67.3z M182.8,66.5c-0.1,0-0.3-0.1-0.4-0.3c-0.5-0.8-1.1-1.5-1.5-2.3c-0.1-0.3-0.1-0.5,0.1-0.7
		c0.3-0.1,0.5-0.1,0.7,0.1l0,0c0.4,0.7,1,1.5,1.5,2.3c0.1,0.3,0.1,0.5-0.1,0.7l0,0C183.1,66.5,183,66.7,182.8,66.5
		C182.8,66.7,182.8,66.7,182.8,66.5z M124,62.5c-0.1,0-0.1,0-0.3,0c-0.3-0.1-0.3-0.4-0.3-0.7c0.4-0.8,0.8-1.6,1.2-2.5
		c0.1-0.3,0.4-0.4,0.7-0.3l0,0c0.3,0.1,0.4,0.4,0.3,0.7l0,0c-0.4,0.8-0.8,1.6-1.2,2.5C124.5,62.5,124.3,62.5,124,62.5z M179.9,62
		c-0.1,0-0.4-0.1-0.4-0.3c-0.4-0.8-0.8-1.6-1.2-2.5c-0.1-0.3,0-0.5,0.3-0.7l0,0c0.3-0.1,0.5,0,0.7,0.3c0.4,0.8,0.8,1.6,1.2,2.5
		c0.1,0.3,0,0.5-0.1,0.7C180.2,61.8,180.1,61.8,179.9,62z M126.4,57.6h-0.1c-0.3-0.1-0.4-0.4-0.3-0.7c0.3-0.8,0.7-1.6,1-2.6
		c0-0.3,0.3-0.4,0.5-0.4c0.3,0,0.4,0.3,0.4,0.5v0.1c-0.3,0.8-0.5,1.8-1,2.6C126.8,57.5,126.6,57.6,126.4,57.6L126.4,57.6z
		 M177.6,56.9c-0.3,0-0.4-0.1-0.4-0.3c-0.4-0.8-0.7-1.8-1-2.6c-0.1-0.3,0-0.5,0.3-0.7c0.3-0.1,0.5,0,0.7,0.3l0,0
		c0.3,0.8,0.5,1.6,1,2.5c0.1,0.3,0,0.5-0.3,0.7l0,0C177.7,56.9,177.7,56.9,177.6,56.9z M128,52.4L128,52.4c-0.4,0-0.5-0.3-0.5-0.7
		c0.3-0.8,0.4-1.8,0.5-2.6c0-0.3,0.3-0.4,0.5-0.4s0.4,0.3,0.4,0.5l0,0c-0.1,1-0.3,1.8-0.5,2.7C128.4,52.1,128.3,52.4,128,52.4z
		 M176,51.7c-0.3,0-0.4-0.1-0.5-0.4c-0.3-1-0.4-1.8-0.4-2.7h0.5h0.5c0.1,0.8,0.3,1.8,0.4,2.6c0,0.3-0.1,0.5-0.4,0.7L176,51.7z
		 M128.6,46.9L128.6,46.9c-0.3,0-0.5-0.3-0.5-0.5l0.1-2.7c0-0.3,0.1-0.5,0.4-0.5c0,0,0,0,0.1,0c0.3,0,0.5,0.3,0.5,0.5l0,0l-0.1,2.7
		C129.1,46.6,129,46.9,128.6,46.9C128.7,46.9,128.7,46.9,128.6,46.9z M175.5,46.2c-0.3,0-0.5-0.3-0.5-0.5l-0.1-2.7
		c0-0.3,0.3-0.5,0.5-0.5s0.5,0.1,0.5,0.4l0,0l0.1,2.7C176,46,175.8,46.2,175.5,46.2L175.5,46.2z M128.8,41.4L128.8,41.4
		c-0.3,0-0.5-0.3-0.5-0.5l0,0v-0.4c0-0.3,0.3-0.5,0.5-0.5h2.3c0.3,0,0.4,0.3,0.4,0.5c0,0.3-0.3,0.4-0.4,0.4h-1.8
		C129.4,41.2,129.1,41.4,128.8,41.4z M175.1,41h-2.7c-0.3,0-0.5-0.1-0.5-0.4c0-0.3,0.1-0.5,0.4-0.5h0.1h2.7c0.3,0,0.4,0.3,0.4,0.5
		C175.5,40.7,175.4,40.8,175.1,41z M169.6,41h-2.7c-0.3,0-0.5-0.1-0.5-0.4c0-0.3,0.1-0.5,0.4-0.5h0.1h2.7c0.3,0,0.4,0.3,0.4,0.5
		C170.1,40.7,169.9,40.8,169.6,41z M164.1,41h-2.7c-0.3,0-0.5-0.1-0.5-0.4c0-0.3,0.1-0.5,0.4-0.5h0.1h2.7c0.3,0,0.4,0.3,0.4,0.5
		C164.6,40.7,164.4,40.8,164.1,41z M158.7,41h-2.7c-0.3,0-0.5-0.1-0.5-0.4c0-0.3,0.1-0.5,0.4-0.5h0.1h2.7c0.3,0,0.4,0.3,0.4,0.5
		C159.1,40.7,158.9,40.8,158.7,41z M153.2,41h-2.7c-0.3,0-0.5-0.1-0.5-0.4c0-0.3,0.1-0.5,0.4-0.5h0.1h2.7c0.3,0,0.4,0.3,0.4,0.5
		C153.6,40.7,153.4,40.8,153.2,41z M147.7,41h-2.7c-0.3,0-0.5-0.1-0.5-0.4c0-0.3,0.1-0.5,0.4-0.5h0.1h2.7c0.3,0,0.4,0.3,0.4,0.5
		C148.1,40.7,147.9,40.8,147.7,41z M142.2,41h-2.7c-0.3,0-0.5-0.1-0.5-0.4c0-0.3,0.1-0.5,0.4-0.5h0.1h2.7c0.3,0,0.4,0.3,0.4,0.5
		C142.6,40.7,142.4,40.8,142.2,41z M136.7,41h-2.7c-0.3,0-0.5-0.1-0.5-0.4c0-0.3,0.1-0.5,0.4-0.5h0.1h2.7c0.3,0,0.4,0.3,0.4,0.5
		C137.1,40.7,137,40.8,136.7,41z"/>
</g>
<g>
	<path class="st0" d="M205.5,97.1c-36.8-23.4-37.8-47.7-37.8-48.5c0-0.8,0-1,0-1l-0.3-7.6L144.2,40h-7.6l-0.3,7.6c0,0,0,0.3,0,0.7
		c-0.1,2.6-1.6,25.7-35.2,49.3C62.8,124.6,31,152.1,31,214.7c0,27.1,16.1,61.5,46.3,84.6h140.9v10.6c40.9-22,62.9-63.5,62.9-95.2
		C281.3,150,249.9,125.2,205.5,97.1z"/>
</g>
<g>
	<path class="st1" d="M155.9,317.2c-75.3,0-117-60.6-117-102.6c0-58.9,29-84.1,66.9-110.7c36.4-25.7,38.3-52.1,38.5-55.5
		c0-0.4,0-0.7,0-0.7l15.7,0.1c0,0,0,0.3,0,0.5c0,3.4,1.9,30.2,41.5,55.2c43.5,27.6,72.3,50.1,72.3,111
		C273.5,256.6,231.6,317.2,155.9,317.2z"/>
</g>
<g>
	<path class="st2" d="M155.9,309.4c72,0,109.8-57.4,109.8-94.6c0-58.1-27.3-78.3-68.5-104.3c-46.3-29.3-45.1-62.2-45.1-62.2
		s0.8,32.3-41.8,62.2c-38.1,26.8-63.5,49.5-63.5,104.4C46.8,251.8,85.3,309.4,155.9,309.4z"/>
</g>
<g>
	<path class="st3" d="M238.9,141.4c-24.5-10.9-55.8-10.9-77.2,1.5c-8.5,4.9-16.6,11.8-25.1,16.8c-17.9,10.4-37.8,12.8-56.6,6.6
		c-6.6-2.3-13-5.2-19-8.9c-3.6,5.9-6.5,12.4-8.5,19c9.1,5.9,18.3,11.1,27.7,14.3c18.8,6.2,38.7,4,56.6-6.6
		c8.5-5.1,16.6-11.8,25.1-16.8c26-15,66.5-12,91.8,6.9c2.9,2.2,5.6,4.5,8.2,7.1C258,166.1,250,152.2,238.9,141.4z"/>
</g>
<g>
	<path class="st4" d="M261.8,181.2c-2.6-2.6-5.4-4.9-8.2-7.1c-25.3-18.8-65.8-21.8-91.8-6.9c-8.5,4.9-16.6,11.8-25.1,16.8
		c-17.9,10.4-37.8,12.8-56.6,6.6c-9.6-3.2-18.8-8.4-27.7-14.3c-2.5,7.8-4.1,15.8-4.8,24c3,2.1,5.9,4,8.9,5.9
		c7.6,4.9,15.7,9.1,24.2,12.1c19,6.3,39.7,3.8,56.6-6.6c8.5-5.1,16.6-11.8,25.1-16.8c26-15,66.5-11.8,91.8,6.9
		c4.1,3.2,8,6.6,11.5,10.4C265.7,201.7,264.4,191.4,261.8,181.2z"/>
</g>
<g>
	<path class="st5" d="M265.7,212.1c-3.6-3.8-7.4-7.3-11.5-10.4c-25.3-18.8-65.8-21.8-91.8-6.9c-8.5,4.9-16.6,11.8-25.1,16.8
		c-17,10.4-37.8,12.8-56.6,6.6c-8.5-3-16.6-7-24.2-12.1c-3-1.9-5.9-3.8-8.9-5.9c-0.1,1.1-0.1,2.2-0.3,3.3c-0.3,3.6-0.4,7.3-0.4,11.1
		c0,4.5,0.5,9.2,1.5,13.6c0.3,1.5,0.7,2.9,1.1,4.4c10.3,7,20.7,13.5,31.7,17c10.7,3.6,22.1,4.3,33.1,2.2c8.2-1.5,16.2-4.5,23.5-8.8
		c4.1-2.5,8.2-5.4,12.4-8.2c4.1-2.9,8.5-6,12.9-8.5c26-15,66.5-11.8,91.8,6.9c2.2,1.6,4.4,3.4,6.5,5.4c2.9-7.7,4.4-15.8,4.4-24
		C265.7,213.8,265.7,212.9,265.7,212.1z"/>
</g>
<g>
	<path class="st6" d="M254.7,233.3c-25.3-18.8-65.8-21.8-91.8-6.9c-4.4,2.6-8.7,5.6-12.9,8.5c-4.3,2.9-8.1,5.8-12.4,8.2
		c-7.3,4.3-15.2,7.3-23.5,8.8c-11,2.1-22.4,1.2-33.1-2.3c-11-3.6-21.4-10-31.7-17c2.3,8.4,5.9,16.3,10.4,23.8
		c16.8,27.7,49.5,52.9,96.2,52.9c15.8,0.1,31.5-2.9,46-8.9c21.8-9.2,40.1-25.3,51.9-45.9c2.9-5.1,5.4-10.3,7.3-15.8
		C259.2,236.7,257,234.9,254.7,233.3z"/>
</g>
<g>
	<path class="st0" d="M154.4,232.9l2.3-7.1c0.4-1.2-0.3-2.6-1.5-3c-0.3-0.1-0.5-0.1-0.7-0.1l0,0c-1.4,0-2.5,1.1-2.5,2.5
		c0,0.3,0,0.5,0.1,0.8L154.4,232.9z"/>
</g>
<g>
	<path class="st0" d="M151.2,233.7l-1.5-7.3c-0.3-1.4-1.5-2.2-2.9-1.9c-0.3,0-0.5,0.1-0.7,0.3l0,0c-1.1,0.7-1.5,2.2-1,3.3
		c0.1,0.3,0.3,0.4,0.5,0.5L151.2,233.7z"/>
</g>
<g>
	<path class="st0" d="M148.9,236l-5.1-5.6c-1-1-2.5-1.1-3.4-0.1c-0.1,0.1-0.4,0.4-0.5,0.5l0,0c-0.7,1.1-0.3,2.6,0.8,3.3
		c0.3,0.1,0.4,0.3,0.7,0.3L148.9,236z"/>
</g>
<g>
	<path class="st0" d="M148.1,239.2l-7.1-2.3c-1.2-0.4-2.6,0.3-3,1.5c-0.1,0.3-0.1,0.5-0.1,0.8l0,0c0,1.4,1.1,2.5,2.5,2.5
		c0.3,0,0.5,0,0.7-0.1L148.1,239.2z"/>
</g>
<g>
	<path class="st0" d="M148.9,242.3l-7.3,1.5c-1.4,0.3-2.2,1.5-1.9,2.9c0,0.3,0.1,0.5,0.3,0.7l0,0c0.7,1.1,2.2,1.5,3.3,1
		c0.3-0.1,0.4-0.3,0.7-0.5L148.9,242.3z"/>
</g>
<g>
	<path class="st0" d="M159.9,242.3l4.9,5.5c0.8,1,2.5,1.1,3.4,0.3c0.1-0.1,0.4-0.4,0.5-0.7l0,0c0.7-1.1,0.3-2.6-0.8-3.3
		c-0.3-0.1-0.4-0.3-0.7-0.3L159.9,242.3z"/>
</g>
<g>
	<path class="st0" d="M160.7,239.2l7.1,2.3c1.2,0.4,2.6-0.3,3-1.5c0.1-0.3,0.1-0.5,0.1-0.7l0,0c0-1.4-1.1-2.5-2.3-2.5
		c-0.3,0-0.5,0-0.8,0.1L160.7,239.2z"/>
</g>
<g>
	<path class="st0" d="M159.9,236l7.3-1.5c1.4-0.3,2.2-1.5,1.9-2.9c0-0.3-0.1-0.5-0.3-0.7l0,0c-0.7-1.1-2.2-1.5-3.3-1
		c-0.3,0.1-0.4,0.3-0.5,0.5L159.9,236z"/>
</g>
<g>
	<path class="st0" d="M157.6,233.7l5.5-4.9c1-0.8,1.1-2.5,0.3-3.4c-0.1-0.1-0.4-0.4-0.7-0.5l0,0c-1.1-0.7-2.6-0.3-3.3,0.8
		c-0.1,0.3-0.3,0.4-0.3,0.7L157.6,233.7z"/>
</g>
<g>
	<circle class="st0" cx="154.4" cy="239.2" r="4"/>
</g>
<g>
	<path class="st0" d="M154.1,206.4V175H98.5v117.3h36.4V227C134.9,216.1,143.3,207,154.1,206.4L154.1,206.4z M115.9,188.8
		c3.8,0,6.9,3,6.9,6.7c0,3.8-3,6.9-6.7,6.9c-3.7,0-6.9-3-6.9-6.7l0,0C109.2,191.9,112.2,188.8,115.9,188.8z M110.2,282.7v-70.2
		c0-0.7,0.4-1.2,0.8-1.2h10c0.4,0,0.8,0.5,0.8,1.2v70.2H110.2z"/>
</g>
<g>
	<path class="st0" d="M157.6,206.4c10.9,0.7,19.2,9.6,19.2,20.5v65.4h36.5V175h-55.8L157.6,206.4L157.6,206.4z M202.6,195.6
		c0,3.8-3,6.9-6.9,6.9s-6.9-3-6.9-6.9s3-6.9,6.9-6.9S202.6,191.8,202.6,195.6z M189.8,282.7v-70.2c0-0.7,0.4-1.2,0.8-1.2h10.2
		c0.4,0,0.8,0.5,0.8,1.2v70.2H189.8z"/>
</g>
<g>
	<path class="st0" d="M101.9,139.6v14h105.6v-14H101.9z M110.2,148.8c-1.2,0-2.2-1-2.2-2.2c0-1.2,1-2.2,2.2-2.2c1.2,0,2.2,1,2.2,2.2
		l0,0C112.4,147.8,111.4,148.8,110.2,148.8z M119.8,148.8c-1.2,0-2.2-1-2.2-2.2c0-1.2,1-2.2,2.2-2.2c1.2,0,2.2,1,2.2,2.2l0,0
		C122,147.8,121,148.8,119.8,148.8z M129.4,148.8c-1.2,0-2.2-1-2.2-2.2c0-1.2,1-2.2,2.2-2.2s2.2,1,2.2,2.2l0,0
		C131.6,147.8,130.6,148.8,129.4,148.8z M139,148.8c-1.2,0-2.2-1-2.2-2.2c0-1.2,1-2.2,2.2-2.2c1.2,0,2.2,1,2.2,2.2l0,0
		C141.2,147.8,140.2,148.8,139,148.8L139,148.8L139,148.8z M148.6,148.8c-1.2,0-2.2-1-2.2-2.2c0-1.2,1-2.2,2.2-2.2
		c1.2,0,2.2,1,2.2,2.2l0,0C150.8,147.8,149.9,148.8,148.6,148.8L148.6,148.8L148.6,148.8z M158.2,148.8c-1.2,0-2.2-1-2.2-2.2
		c0-1.2,1-2.2,2.2-2.2s2.2,1,2.2,2.2l0,0C160.4,147.8,159.5,148.8,158.2,148.8C158.2,148.8,158.1,148.8,158.2,148.8L158.2,148.8z
		 M167.9,148.8c-1.2,0-2.2-1-2.2-2.2c0-1.2,1-2.2,2.2-2.2s2.2,1,2.2,2.2l0,0C170.1,147.8,169.1,148.8,167.9,148.8h-0.1H167.9z
		 M177.5,148.8c-1.2,0-2.2-1-2.2-2.2c0-1.2,1-2.2,2.2-2.2c1.2,0,2.2,1,2.2,2.2l0,0C179.7,147.8,178.7,148.8,177.5,148.8h-0.1H177.5z
		 M187.1,148.8c-1.2,0-2.2-1-2.2-2.2c0-1.2,1-2.2,2.2-2.2c1.2,0,2.2,1,2.2,2.2l0,0C189.3,147.8,188.3,148.8,187.1,148.8H187H187.1z
		 M196.7,148.8c-1.2,0-2.2-1-2.2-2.2c0-1.2,1-2.2,2.2-2.2s2.2,1,2.2,2.2l0,0C198.9,147.8,197.9,148.8,196.7,148.8c0,0-0.1,0-0.3,0
		H196.7z"/>
</g>
<g>
	<rect x="125.1" y="122.3" class="st0" width="59.2" height="6.7"/>
</g>
<g>
	<rect x="125.1" y="130.9" class="st0" width="59.2" height="5.4"/>
</g>
<g>
	<polygon class="st0" points="217.3,164.3 219.2,157.3 88.7,157.3 91.3,164.3 	"/>
</g>
<g>
	<polygon class="st0" points="92.2,166.1 94.1,171.2 215.4,171.2 216.8,166.1 	"/>
</g>
<g>
	<circle class="st0" cx="36.5" cy="291.5" r="2.6"/>
</g>
<g>
	<circle class="st0" cx="272.8" cy="291.5" r="2.6"/>
</g>
<circle class="st0" cx="154.4" cy="332.7" r="2.6"/>
<g>
	<path class="st0" d="M184.3,42.5h-64.8c-1.1-0.1-1.9-1.1-1.8-2.3c0.1-1,0.8-1.6,1.8-1.8h64.8c1.1-0.1,2.2,0.7,2.3,1.8
		c0.1,1.1-0.7,2.2-1.8,2.3C184.6,42.5,184.5,42.5,184.3,42.5z"/>
</g>
<g>
	<path class="st0" d="M172.7,33.3H131c-1.1,0.1-2.2-0.7-2.3-1.8c-0.1-1.1,0.7-2.2,1.8-2.3c0.1,0,0.3,0,0.4,0h41.5
		c1.1-0.1,2.2,0.7,2.3,1.8c0.1,1.1-0.7,2.2-1.8,2.3C172.9,33.3,172.8,33.3,172.7,33.3z"/>
</g>
<g>
	<path class="st0" d="M154.5,331.9c6.3-11.1,17.6-11.3,27.6-11.1c14,0.1,28,1.4,42,2.2c10.2,0.5,22.7,1.5,30.4-8.9
		c2.7-3.6,4.7-8,7-12.1c2.5-4.4,6.3-10.6,11-10.6h0.3v0.1h-0.3c-4.7,0-8.5-6.2-11-10.6c-2.3-4-4.3-8.4-7-12.1
		c-7.7-10.3-20.2-9.5-30.4-8.9c-14,0.8-28,2.1-42,2.2c-10,0.1-21.3,0-27.6-11.1h0.3c-6.3,11.1-17.6,11.3-27.7,11.1
		c-14-0.1-28-1.4-42-2.2c-10.3-0.5-22.7-1.5-30.4,8.9c-2.7,3.6-4.7,8.1-7,12.1c-2.5,4.4-6.3,10.6-11,10.6c-0.1,0-0.1-0.1,0-0.1
		c4.8,0,8.5,6.2,11,10.6c2.3,4,4.3,8.4,7,12.1c7.7,10.3,20.2,9.5,30.4,8.9c14-0.8,28-2.1,42-2.2c10-0.1,21.3,0,27.7,11.1"/>
</g>
<g>
	<path class="st1" d="M130.4,316.2c8,0,17.6,0.8,24.2,8.2c6.6-7.6,16.2-8.2,24.2-8.2h3c10.3,0.1,20.6,0.8,30.6,1.5l11.1,0.7h0.3
		c2.5,0.1,4.9,0.3,7.6,0.3c7.4,0,14.7-1.2,19.5-7.6c1.6-2.3,3.2-4.8,4.5-7.4c0.7-1.2,1.4-2.5,2.1-3.7c1.6-3.2,3.8-6,6.5-8.5
		c-2.6-2.5-4.8-5.4-6.5-8.5c-0.7-1.2-1.4-2.5-2.1-3.7c-1.4-2.6-2.9-5.1-4.5-7.4c-4.8-6.3-12.2-7.6-19.5-7.6c-2.6,0-5.1,0.1-7.6,0.3
		h-0.3c-3.7,0.1-7.3,0.4-11,0.7c-10,0.7-20.5,1.4-30.8,1.5h-3c-8,0-17.6-0.8-24.2-8.2c-6.6,7.6-16.2,8.2-24.2,8.2h-3
		c-10.3-0.1-20.6-0.8-30.8-1.5c-3.7-0.3-7.3-0.4-11-0.7h-0.3c-2.5-0.1-4.9-0.3-7.6-0.3c-7.4,0-14.7,1.2-19.5,7.6
		c-1.6,2.3-3.2,4.8-4.5,7.4c-0.7,1.2-1.4,2.5-2.1,3.7c-1.6,3.2-3.8,6-6.5,8.5c2.6,2.5,4.8,5.4,6.5,8.5c0.7,1.2,1.4,2.5,2.1,3.7
		c1.4,2.6,2.9,5.1,4.5,7.4c4.8,6.3,12.2,7.6,19.5,7.6c2.5,0,5.1-0.1,7.6-0.3h0.3l11.1-0.7c10-0.7,20.3-1.4,30.6-1.5H130.4z"/>
</g>
<g class="st7">
	<path class="st0" d="M77.7,289.3h-4.9v-14h4.9c1.4,0,2.6,0.3,3.6,0.8c1,0.5,1.8,1.4,2.3,2.3c0.5,1.1,0.8,2.3,0.8,3.7
		c0,1.5-0.3,2.7-0.8,3.7c-0.5,1.1-1.4,1.8-2.3,2.3C80.4,289,79.1,289.3,77.7,289.3z M75.8,286.7h1.9c1.4,0,2.3-0.4,3-1.1
		c0.7-0.7,1-1.8,1-3.4c0-1.5-0.3-2.6-1-3.4c-0.7-0.7-1.6-1.1-3-1.1h-1.9V286.7z"/>
	<path class="st0" d="M86.7,289.3v-10.4h2.7v1.8h0.1c0.1-0.7,0.5-1.1,1-1.5c0.4-0.3,1-0.5,1.5-0.5c0.3,0,0.7,0,1,0.1v2.6
		c-0.1,0-0.3-0.1-0.5-0.1c-0.3,0-0.4,0-0.7,0c-0.7,0-1.2,0.1-1.6,0.5c-0.4,0.4-0.7,1-0.7,1.5v5.9h-2.7V289.3z"/>
	<path class="st0" d="M101.2,284.8v-6h2.9v10.4h-2.7v-1.9h-0.1c-0.3,0.5-0.7,1.1-1.2,1.5c-0.5,0.4-1.2,0.5-2.1,0.5
		c-1.1,0-1.9-0.4-2.6-1.1c-0.7-0.7-1-1.6-1-2.9v-6.6h2.9v6.2c0,0.5,0.1,1.1,0.5,1.5c0.3,0.4,0.8,0.5,1.4,0.5s1-0.1,1.4-0.5
		C101.1,286,101.2,285.5,101.2,284.8z"/>
	<path class="st0" d="M106.5,293.2v-14.4h2.9v1.8h0.1c0.1-0.3,0.3-0.5,0.5-0.8c0.3-0.3,0.5-0.5,1-0.7c0.4-0.1,0.8-0.3,1.5-0.3
		c0.8,0,1.5,0.1,2.1,0.5c0.7,0.4,1.1,1,1.5,1.8c0.4,0.8,0.5,1.8,0.5,3c0,1.1-0.1,2.2-0.5,2.9c-0.4,0.8-0.8,1.4-1.5,1.8
		c-0.7,0.4-1.4,0.5-2.2,0.5c-0.5,0-1.1-0.1-1.4-0.3c-0.4-0.1-0.7-0.4-1-0.7s-0.4-0.5-0.5-0.8h-0.1v5.6H106.5z M109.3,284.1
		c0,1,0.1,1.6,0.5,2.2c0.4,0.5,1,0.8,1.6,0.8c0.7,0,1.2-0.3,1.6-0.8c0.4-0.5,0.5-1.4,0.5-2.2c0-1-0.1-1.6-0.5-2.2
		c-0.4-0.5-1-0.8-1.6-0.8c-0.7,0-1.2,0.3-1.6,0.8C109.5,282.3,109.3,283.1,109.3,284.1z"/>
	<path class="st0" d="M121.6,289.5c-1,0-1.8-0.3-2.5-0.8c-0.7-0.5-1-1.2-1-2.3c0-0.8,0.1-1.4,0.5-1.8c0.4-0.4,0.8-0.8,1.5-1
		c0.5-0.3,1.2-0.3,1.9-0.4c1-0.1,1.5-0.1,1.9-0.3c0.4-0.1,0.5-0.3,0.5-0.7l0,0c0-0.4-0.1-0.8-0.4-1c-0.3-0.3-0.7-0.4-1.1-0.4
		c-0.5,0-1,0.1-1.2,0.3c-0.3,0.3-0.5,0.5-0.5,0.8l-2.7-0.3c0.1-1,0.7-1.6,1.5-2.2s1.8-0.8,3-0.8c0.8,0,1.5,0.1,2.2,0.4
		c0.7,0.3,1.2,0.7,1.6,1.1c0.4,0.5,0.7,1.2,0.7,2.1v7h-2.7v-1.5h-0.1c-0.3,0.5-0.7,0.8-1.1,1.2C122.9,289.3,122.3,289.5,121.6,289.5
		z M122.4,287.4c0.7,0,1.1-0.1,1.5-0.5c0.4-0.4,0.5-0.8,0.5-1.4v-1.1c-0.1,0.1-0.3,0.1-0.5,0.1c-0.3,0-0.5,0.1-0.8,0.1
		s-0.5,0.1-0.7,0.1c-0.5,0.1-1,0.3-1.2,0.4c-0.3,0.3-0.4,0.5-0.4,1c0,0.4,0.1,0.7,0.4,1C121.6,287.4,122,287.4,122.4,287.4z"/>
	<path class="st0" d="M132.6,275.3v13.9h-2.9v-13.9H132.6z"/>
</g>
<g class="st7">
	<path class="st0" d="M146.7,279.7h-1.6c-0.1-0.7-0.4-1.2-0.8-1.6c-0.4-0.4-0.8-0.8-1.4-1c-0.5-0.3-1.1-0.3-1.8-0.3
		c-0.8,0-1.6,0.3-2.3,0.7c-0.7,0.4-1.2,1.1-1.6,1.9s-0.5,1.8-0.5,3c0,1.2,0.1,2.2,0.5,3c0.4,0.8,1,1.5,1.6,1.9s1.5,0.7,2.3,0.7
		c0.5,0,1.2-0.1,1.8-0.3c0.5-0.3,1-0.5,1.4-1s0.7-1,0.8-1.6h1.6c-0.1,1-0.5,1.8-1.1,2.5c-0.5,0.7-1.2,1.2-1.9,1.5
		c-0.7,0.3-1.6,0.5-2.6,0.5c-1.2,0-2.2-0.3-3.2-0.8c-1-0.5-1.6-1.4-2.2-2.5c-0.5-1.1-0.8-2.3-0.8-3.8c0-1.5,0.3-2.7,0.8-3.8
		c0.5-1.1,1.2-1.9,2.2-2.5c1-0.5,1.9-0.8,3.2-0.8c1,0,1.8,0.1,2.6,0.5s1.5,0.8,1.9,1.5C146.2,277.9,146.4,278.7,146.7,279.7z"/>
	<path class="st0" d="M152.2,289.5c-0.7,0-1.2-0.1-1.8-0.4c-0.5-0.3-1-0.5-1.2-1.1c-0.3-0.4-0.4-1.1-0.4-1.8c0-0.5,0.1-1.1,0.4-1.5
		s0.5-0.7,1-0.8c0.4-0.3,0.8-0.4,1.4-0.4c0.4-0.1,1-0.1,1.5-0.3c0.7-0.1,1.1-0.1,1.5-0.1c0.4,0,0.7-0.1,0.8-0.3
		c0.1-0.1,0.3-0.3,0.3-0.5l0,0c0-0.7-0.1-1.2-0.5-1.5c-0.4-0.4-1-0.5-1.6-0.5c-0.8,0-1.4,0.1-1.8,0.5c-0.4,0.3-0.7,0.7-1,1.1
		l-1.5-0.5c0.3-0.7,0.7-1.1,1.1-1.5c0.4-0.4,1-0.5,1.5-0.7c0.5-0.1,1.1-0.3,1.6-0.3c0.3,0,0.7,0,1.1,0.1c0.4,0.1,0.8,0.3,1.2,0.5
		c0.4,0.3,0.7,0.5,1,1.1c0.3,0.5,0.4,1.1,0.4,1.9v6.9h-1.6v-1.4h-0.1c-0.1,0.3-0.3,0.4-0.5,0.7s-0.5,0.4-1,0.7
		C153.3,289.5,152.9,289.5,152.2,289.5z M152.5,288.1c0.7,0,1.2-0.1,1.6-0.4c0.4-0.3,0.8-0.5,1-1c0.1-0.4,0.3-0.8,0.3-1.2V284
		c0,0.1-0.3,0.1-0.4,0.3c-0.3,0-0.5,0.1-0.8,0.1c-0.3,0-0.5,0.1-0.8,0.1c-0.3,0-0.5,0-0.7,0.1c-0.4,0-0.8,0.1-1.1,0.3
		c-0.4,0.1-0.7,0.3-0.8,0.5c-0.3,0.3-0.3,0.5-0.3,1c0,0.5,0.3,1,0.7,1.2C151.2,287.9,151.8,288.1,152.5,288.1z"/>
	<path class="st0" d="M159.9,289.3v-10.4h1.5v1.6h0.1c0.3-0.5,0.5-1,1.1-1.2c0.5-0.3,1.1-0.4,1.8-0.4c0.7,0,1.2,0.1,1.8,0.4
		c0.4,0.3,0.8,0.7,1.1,1.2h0.1c0.3-0.5,0.7-1,1.2-1.2c0.5-0.3,1.2-0.4,1.9-0.4c1,0,1.6,0.3,2.3,0.8c0.5,0.5,0.8,1.5,0.8,2.7v7h-1.6
		v-7c0-0.8-0.3-1.4-0.7-1.6c-0.4-0.3-1-0.5-1.5-0.5c-0.7,0-1.2,0.3-1.6,0.7s-0.5,1-0.5,1.6v6.9h-1.6v-7.1c0-0.5-0.1-1.1-0.5-1.4
		c-0.4-0.4-0.8-0.5-1.5-0.5c-0.4,0-0.8,0.1-1.1,0.3c-0.3,0.1-0.7,0.5-0.8,1c-0.3,0.4-0.3,0.8-0.3,1.4v6.6h-1.9V289.3z"/>
	<path class="st0" d="M176.6,293.2v-14.4h1.5v1.6h0.1c0.1-0.1,0.3-0.4,0.5-0.7c0.3-0.3,0.5-0.5,1-0.8s1-0.3,1.6-0.3
		c0.8,0,1.6,0.3,2.3,0.7c0.7,0.4,1.2,1.1,1.5,1.9c0.4,0.8,0.5,1.8,0.5,2.9c0,1.1-0.1,2.1-0.5,2.9c-0.4,0.8-1,1.4-1.5,1.9
		c-0.7,0.4-1.4,0.7-2.3,0.7c-0.7,0-1.2-0.1-1.6-0.3c-0.4-0.3-0.7-0.4-1-0.8c-0.3-0.4-0.4-0.5-0.5-0.7h-0.1v5.5h-1.5V293.2z
		 M178.2,284.1c0,1.2,0.3,2.2,0.8,2.9c0.5,0.7,1.2,1.1,2.2,1.1c0.7,0,1.2-0.1,1.6-0.5c0.4-0.4,0.8-0.8,1-1.5
		c0.3-0.5,0.3-1.2,0.3-2.1c0-0.7-0.1-1.4-0.3-1.9c-0.3-0.5-0.5-1.1-1-1.4c-0.4-0.4-1-0.5-1.6-0.5c-1,0-1.8,0.4-2.2,1.1
		C178.6,281.9,178.2,282.9,178.2,284.1z"/>
</g>
<g class="st7">
	<path class="st0" d="M199.5,289.3h-4.9v-14h4.9c1.4,0,2.6,0.3,3.6,0.8c1,0.5,1.8,1.4,2.3,2.3c0.5,1.1,0.8,2.3,0.8,3.7
		c0,1.5-0.3,2.7-0.8,3.7c-0.5,1.1-1.4,1.8-2.3,2.3C202.1,289,201,289.3,199.5,289.3z M197.5,286.7h1.9c1.4,0,2.3-0.4,3-1.1
		s1-1.8,1-3.4c0-1.5-0.3-2.6-1-3.4c-0.7-0.7-1.6-1.1-3-1.1h-1.9V286.7z"/>
	<path class="st0" d="M213.2,289.5c-1.1,0-2.1-0.3-2.7-0.7c-0.8-0.4-1.4-1.1-1.8-1.9c-0.4-0.8-0.7-1.8-0.7-2.9
		c0-1.1,0.3-2.1,0.7-2.9c0.4-0.8,1-1.5,1.8-1.9c0.8-0.4,1.6-0.7,2.6-0.7c1,0,1.8,0.1,2.5,0.5c0.7,0.4,1.4,1,1.8,1.8
		c0.4,0.8,0.7,1.8,0.7,3v0.8h-7.1l0,0c0,0.8,0.3,1.4,0.7,1.8c0.4,0.4,1,0.7,1.8,0.7c0.5,0,1-0.1,1.2-0.3c0.4-0.1,0.5-0.5,0.7-1
		l2.7,0.1c-0.1,1-0.7,1.8-1.5,2.3C215.5,289.2,214.4,289.5,213.2,289.5z M210.9,283h4.4c0-0.7-0.1-1.1-0.5-1.5
		c-0.4-0.4-1-0.5-1.5-0.5c-0.7,0-1.2,0.3-1.6,0.7C211.1,282,210.9,282.5,210.9,283z"/>
	<path class="st0" d="M222.8,275.3v13.9h-2.9v-13.9H222.8z"/>
	<path class="st0" d="M228,283.3v6h-2.9v-14h2.9v5.4h0.1c0.3-0.5,0.7-1.1,1.1-1.5c0.5-0.4,1.2-0.5,1.9-0.5c1.1,0,1.9,0.4,2.6,1.1
		c0.7,0.7,1,1.6,1,2.9v6.6h-2.9V283c0-0.7-0.1-1.1-0.5-1.5c-0.3-0.4-0.8-0.5-1.4-0.5c-0.5,0-1.1,0.1-1.5,0.5S228,282.6,228,283.3z"
		/>
	<path class="st0" d="M238.5,277.5c-0.4,0-0.8-0.1-1.1-0.4c-0.3-0.3-0.4-0.7-0.4-1.1c0-0.4,0.1-0.7,0.4-1.1c0.3-0.4,0.7-0.4,1.1-0.4
		c0.4,0,0.8,0.1,1.1,0.4c0.3,0.3,0.4,0.7,0.4,1.1c0,0.4-0.1,0.7-0.4,1.1C239.3,277.4,239,277.5,238.5,277.5z M237.1,289.3v-10.4h2.9
		v10.4H237.1z"/>
</g>
<g class="st7">
	<path class="st0" d="M138.9,308.1v-1l3.4-3.7c0.4-0.4,0.7-0.8,1-1.1s0.4-0.7,0.5-1c0.1-0.3,0.1-0.5,0.1-1c0-0.5-0.1-1-0.5-1.4
		c-0.4-0.3-0.8-0.5-1.4-0.5c-0.5,0-1.1,0.1-1.4,0.5c-0.4,0.4-0.5,0.8-0.5,1.4h-1.2c0-0.5,0.1-1.1,0.4-1.6c0.3-0.4,0.7-0.8,1.1-1.1
		c0.5-0.3,1.1-0.4,1.6-0.4s1.1,0.1,1.6,0.4c0.4,0.3,0.8,0.5,1.1,1.1c0.3,0.4,0.4,1,0.4,1.5c0,0.4,0,0.8-0.1,1.1
		c-0.1,0.3-0.4,0.8-0.7,1.2s-0.8,1-1.4,1.6l-2.3,2.5v0.1h4.8v1.1h-6.6V308.1z"/>
	<path class="st0" d="M151,308.3c-1.1,0-2.1-0.4-2.6-1.4c-0.5-1-1-2.2-1-4c0-1.6,0.3-3,1-4c0.7-1,1.5-1.4,2.6-1.4s2.1,0.4,2.6,1.4
		c0.5,1,1,2.2,1,4c0,1.6-0.3,3-1,4C153,307.9,152.1,308.3,151,308.3z M151,307.2c0.8,0,1.4-0.4,1.8-1.1s0.7-1.8,0.7-3.2
		s-0.3-2.5-0.7-3.2s-1-1.1-1.8-1.1c-0.7,0-1.4,0.4-1.8,1.1c-0.4,0.7-0.7,1.8-0.7,3.2s0.3,2.3,0.7,3.2
		C149.6,306.9,150.3,307.2,151,307.2z"/>
	<path class="st0" d="M159.9,297.7v10.4h-1.2v-8.7h-0.1c0,0.1-0.1,0.1-0.4,0.3c-0.1,0.1-0.4,0.3-0.8,0.3c-0.3,0.1-0.7,0.1-1.1,0.1
		v-1.1c0.4,0,0.7-0.1,1.1-0.3c0.4-0.1,0.5-0.3,0.7-0.5c0.1-0.1,0.4-0.4,0.4-0.5c0.1-0.1,0.1-0.3,0.1-0.3h1.4V297.7z"/>
	<path class="st0" d="M166.2,297.6c0.4,0,0.8,0.1,1.2,0.3c0.4,0.1,0.8,0.4,1.2,0.8c0.4,0.4,0.7,0.8,0.8,1.5c0.3,0.7,0.3,1.4,0.3,2.3
		c0,1.8-0.3,3.3-1,4.3c-0.7,1-1.6,1.5-2.7,1.5c-0.8,0-1.6-0.3-2.2-0.8c-0.5-0.5-1-1.2-1.1-2.1h1.2c0.1,0.4,0.3,0.8,0.7,1.2
		c0.3,0.3,0.8,0.4,1.4,0.4c0.8,0,1.4-0.4,1.9-1.1c0.5-0.7,0.7-1.6,0.7-3h-0.1c-0.3,0.4-0.7,0.8-1.1,1c-0.4,0.3-1,0.4-1.5,0.4
		c-0.5,0-1.1-0.1-1.6-0.4c-0.5-0.3-1-0.7-1.2-1.2c-0.3-0.5-0.4-1.1-0.4-1.8s0.1-1.2,0.4-1.8s0.7-1,1.2-1.2
		C164.8,297.7,165.5,297.6,166.2,297.6z M166.2,298.7c-0.4,0-0.8,0.1-1.1,0.3c-0.3,0.3-0.5,0.5-0.8,0.8c-0.1,0.4-0.3,0.8-0.3,1.2
		c0,0.4,0.1,0.8,0.3,1.2c0.1,0.4,0.4,0.7,0.8,0.8c0.3,0.3,0.7,0.3,1.1,0.3c0.4,0,0.8-0.1,1.1-0.3c0.4-0.3,0.7-0.5,0.8-0.8
		s0.3-0.7,0.3-1.1c0-0.4-0.1-0.8-0.3-1.1c-0.1-0.4-0.4-0.7-0.8-0.8C167,298.8,166.6,298.7,166.2,298.7z"/>
</g>
<g>
	<path class="st0" d="M134.6,304.3h-17.2c-0.3,0-0.4-0.1-0.4-0.4l0,0c0-0.3,0.1-0.4,0.4-0.4l0,0h17.2c0.3,0,0.4,0.1,0.4,0.4
		C135,304.2,134.8,304.3,134.6,304.3L134.6,304.3z"/>
</g>
<g>
	<circle class="st0" cx="115.9" cy="303.9" r="1.5"/>
</g>
<g>
	<path class="st0" d="M190.8,304.3h-17.2c-0.3,0-0.4-0.1-0.4-0.4l0,0c0-0.3,0.1-0.4,0.4-0.4l0,0h17.2c0.3,0,0.4,0.1,0.4,0.4l0,0
		C191.2,304.2,191.1,304.3,190.8,304.3L190.8,304.3z"/>
</g>
<g>
	<circle class="st0" cx="192.3" cy="303.9" r="1.5"/>
</g>
</svg>
