<svg width="1301" height="165" viewBox="0 0 1301 165" fill="none" xmlns="http://www.w3.org/2000/svg">
<path d="M1283.4 15.5703H1204.21V28.9469H1283.4V15.5703Z" stroke="white" stroke-linecap="square"/>
<path d="M1192.68 56.0088V93.6379" stroke="white" stroke-linecap="square"/>
<path d="M1192.68 98.0439V112.242" stroke="white" stroke-linecap="square"/>
<path d="M1192.68 116.552V145.825" stroke="white" stroke-linecap="square"/>
<path d="M1192.68 150.179V164.432H1222.99V150.205" stroke="white" stroke-linecap="square"/>
<path d="M1222.99 145.807V116.552" stroke="white" stroke-linecap="square"/>
<path d="M1222.99 112.212V98.1328" stroke="white" stroke-linecap="square"/>
<path d="M1222.99 93.6145V90.1017C1223.08 84.6394 1225.31 79.4312 1229.21 75.6001C1233.1 71.7691 1238.34 69.6221 1243.8 69.6221C1249.25 69.6221 1254.5 71.7691 1258.39 75.6001C1262.28 79.4312 1264.51 84.6394 1264.6 90.1017V93.7045" stroke="white" stroke-linecap="square"/>
<path d="M1264.6 98.0439V112.034" stroke="white" stroke-linecap="square"/>
<path d="M1264.6 116.761V145.777" stroke="white" stroke-linecap="square"/>
<path d="M1264.6 150.205V164.437H1294.94V150.233" stroke="white" stroke-linecap="square"/>
<path d="M1294.93 145.776V116.552" stroke="white" stroke-linecap="square"/>
<path d="M1294.93 112.242V98.0439" stroke="white" stroke-linecap="square"/>
<path d="M1294.93 93.7033V55.7139" stroke="white" stroke-linecap="square"/>
<path d="M1294.93 49.6904V36.5176H1192.67V49.6341" stroke="white" stroke-linecap="square"/>
<path d="M1300.28 49.7275H1187.33V55.7454H1300.28V49.7275Z" stroke="white" stroke-linecap="square"/>
<path d="M1292.09 28.9463H1195.52V36.3039H1292.09V28.9463Z" stroke="white" stroke-linecap="square"/>
<path d="M1282.23 9.79883H1205.38V15.4834H1282.23V9.79883Z" stroke="white" stroke-linecap="square"/>
<path d="M1267.11 164.428V150.249" stroke="white" stroke-linecap="square"/>
<path d="M1267.11 145.776V116.552" stroke="white" stroke-linecap="square"/>
<path d="M1267.11 112.168V98.0439" stroke="white" stroke-linecap="square"/>
<path d="M1267.11 93.5707V55.7412H1220.49V93.7058" stroke="white" stroke-linecap="square"/>
<path d="M1220.49 98.0029V112.038" stroke="white" stroke-linecap="square"/>
<path d="M1220.49 116.521V145.746" stroke="white" stroke-linecap="square"/>
<path d="M1220.49 150.231V164.424" stroke="white" stroke-linecap="square"/>
<path d="M1215.95 93.5361H1197.91V149.886H1215.95V93.5361Z" stroke="white" stroke-linecap="square"/>
<path d="M1290.14 93.5361H1272.09V149.886H1290.14V93.5361Z" stroke="white" stroke-linecap="square"/>
<path d="M1225.22 93.7773H1190.47V97.9825H1225.22V93.7773Z" stroke="white" stroke-linecap="square"/>
<path d="M1297.11 93.7773H1262.35V97.9825H1297.11V93.7773Z" stroke="white" stroke-linecap="square"/>
<path d="M1225.22 112.337H1190.47V116.542H1225.22V112.337Z" stroke="white" stroke-linecap="square"/>
<path d="M1297.11 112.337H1262.35V116.542H1297.11V112.337Z" stroke="white" stroke-linecap="square"/>
<path d="M1225.22 145.945H1190.47V150.15H1225.22V145.945Z" stroke="white" stroke-linecap="square"/>
<path d="M1297.11 145.945H1262.35V150.15H1297.11V145.945Z" stroke="white" stroke-linecap="square"/>
<path d="M1215.62 93.8699H1197.91L1199.25 81.1621H1214.28L1215.62 93.8699Z" stroke="white" stroke-linecap="square"/>
<path d="M1289.81 93.8699H1272.09L1273.43 81.1621H1288.47L1289.81 93.8699Z" stroke="white" stroke-linecap="square"/>
<path d="M1206.72 78.4036C1210.25 78.4036 1213.11 75.5399 1213.11 72.0074C1213.11 68.475 1210.25 65.6113 1206.72 65.6113C1203.19 65.6113 1200.33 68.475 1200.33 72.0074C1200.33 75.5399 1203.19 78.4036 1206.72 78.4036Z" stroke="white" stroke-linecap="square"/>
<path d="M1280.41 78.4036C1283.94 78.4036 1286.8 75.5399 1286.8 72.0074C1286.8 68.475 1283.94 65.6113 1280.41 65.6113C1276.88 65.6113 1274.01 68.475 1274.01 72.0074C1274.01 75.5399 1276.88 78.4036 1280.41 78.4036Z" stroke="white" stroke-linecap="square"/>
<path d="M1217.79 150.136H1195.74V164.27H1217.79V150.136Z" stroke="white" stroke-linecap="square"/>
<path d="M1292.48 150.136H1270.42V164.27H1292.48V150.136Z" stroke="white" stroke-linecap="square"/>
<path d="M1262.23 18.2461H1225.38V26.0225H1262.23V18.2461Z" stroke="white" stroke-linecap="square"/>
<path d="M1219.93 26.0237C1222.07 26.0237 1223.81 24.2826 1223.81 22.1349C1223.81 19.9872 1222.07 18.2461 1219.93 18.2461C1217.78 18.2461 1216.04 19.9872 1216.04 22.1349C1216.04 24.2826 1217.78 26.0237 1219.93 26.0237Z" stroke="white" stroke-linecap="square"/>
<path d="M1267.62 26.0237C1269.77 26.0237 1271.51 24.2826 1271.51 22.1349C1271.51 19.9872 1269.77 18.2461 1267.62 18.2461C1265.48 18.2461 1263.74 19.9872 1263.74 22.1349C1263.74 24.2826 1265.48 26.0237 1267.62 26.0237Z" stroke="white" stroke-linecap="square"/>
<path d="M1266.28 7.29102H1221.33V9.79835H1266.28V7.29102Z" stroke="white" stroke-linecap="square"/>
<path d="M1262.78 7.32483C1256.8 4.67917 1250.34 3.3125 1243.81 3.3125C1237.27 3.3125 1230.81 4.67917 1224.83 7.32483H1262.78Z" stroke="white" stroke-linecap="square"/>
<path d="M1248.25 0.676758H1239.36V3.43404H1248.25V0.676758Z" stroke="white" stroke-linecap="square"/>
<path d="M1122.1 164.437L1122.89 155.116C1122.89 153.792 1123.97 151.92 1125.29 151.92C1126.61 151.92 1127.69 153.793 1127.69 155.114L1128.48 164.437H1122.1Z" stroke="white" stroke-linecap="square"/>
<path d="M1168.37 96.668V164.436" stroke="white" stroke-linecap="square"/>
<path d="M1171.92 105.472H1164.83L1165.43 115.352H1171.32L1171.92 105.472Z" stroke="white" stroke-linecap="square"/>
<path d="M1165.18 164.437L1165.97 155.116C1165.97 153.792 1167.05 151.92 1168.37 151.92C1169.69 151.92 1170.77 153.793 1170.77 155.114L1171.56 164.437H1165.18Z" stroke="white" stroke-linecap="square"/>
<path d="M1170.97 101.653H1165.77V105.336H1170.97V101.653Z" stroke="white" stroke-linecap="square"/>
<path d="M1039.13 96.668V164.436" stroke="white" stroke-linecap="square"/>
<path d="M1042.67 105.472H1035.58L1036.19 115.352H1042.07L1042.67 105.472Z" stroke="white" stroke-linecap="square"/>
<path d="M1041.73 101.653H1036.52V105.336H1041.73V101.653Z" stroke="white" stroke-linecap="square"/>
<path d="M909.881 96.668V164.436" stroke="white" stroke-linecap="square"/>
<path d="M913.427 105.472H906.339L906.942 115.352H912.827L913.427 105.472Z" stroke="white" stroke-linecap="square"/>
<path d="M912.484 101.653H907.279V105.336H912.484V101.653Z" stroke="white" stroke-linecap="square"/>
<path d="M780.638 96.668V164.436" stroke="white" stroke-linecap="square"/>
<path d="M784.182 105.472H777.095L777.698 115.352H783.583L784.182 105.472Z" stroke="white" stroke-linecap="square"/>
<path d="M783.24 101.653H778.035V105.336H783.24V101.653Z" stroke="white" stroke-linecap="square"/>
<path d="M1128.01 154.524C1128.01 154.524 1134.38 162.406 1146.83 162.406C1159.28 162.406 1165.66 154.524 1165.66 154.524" stroke="white" stroke-linecap="square"/>
<path d="M1079.02 164.437L1079.81 155.116C1079.81 153.792 1080.89 151.92 1082.21 151.92C1083.54 151.92 1084.62 153.793 1084.62 155.114L1085.4 164.437H1079.02Z" stroke="white" stroke-linecap="square"/>
<path d="M1084.92 154.524C1084.92 154.524 1091.3 162.406 1103.75 162.406C1116.2 162.406 1122.57 154.524 1122.57 154.524" stroke="white" stroke-linecap="square"/>
<path d="M1035.94 164.437L1036.72 155.116C1036.72 153.792 1037.8 151.92 1039.13 151.92C1040.45 151.92 1041.53 153.793 1041.53 155.114L1042.31 164.437H1035.94Z" stroke="white" stroke-linecap="square"/>
<path d="M1041.84 154.524C1041.84 154.524 1048.22 162.406 1060.67 162.406C1073.12 162.406 1079.49 154.524 1079.49 154.524" stroke="white" stroke-linecap="square"/>
<path d="M992.86 164.437L993.642 155.116C993.642 153.792 994.723 151.92 996.046 151.92C997.365 151.92 998.447 153.793 998.447 155.114L999.234 164.437H992.86Z" stroke="white" stroke-linecap="square"/>
<path d="M998.761 154.524C998.761 154.524 1005.13 162.406 1017.59 162.406C1030.04 162.406 1036.41 154.524 1036.41 154.524" stroke="white" stroke-linecap="square"/>
<path d="M949.779 164.437L950.561 155.116C950.561 153.792 951.642 151.92 952.962 151.92C954.285 151.92 955.366 153.793 955.366 155.114L956.154 164.437H949.779Z" stroke="white" stroke-linecap="square"/>
<path d="M955.679 154.524C955.679 154.524 962.053 162.406 974.504 162.406C986.956 162.406 993.328 154.524 993.328 154.524" stroke="white" stroke-linecap="square"/>
<path d="M906.695 164.437L907.477 155.116C907.477 153.792 908.562 151.92 909.881 151.92C911.204 151.92 912.285 153.793 912.285 155.114L913.073 164.437H906.695Z" stroke="white" stroke-linecap="square"/>
<path d="M912.598 154.524C912.598 154.524 918.972 162.406 931.421 162.406C943.87 162.406 950.247 154.524 950.247 154.524" stroke="white" stroke-linecap="square"/>
<path d="M863.614 164.437L864.402 155.116C864.402 153.792 865.483 151.92 866.806 151.92C868.128 151.92 869.21 153.793 869.21 155.114L869.997 164.437H863.614Z" stroke="white" stroke-linecap="square"/>
<path d="M869.517 154.524C869.517 154.524 875.888 162.406 888.341 162.406C900.793 162.406 907.166 154.524 907.166 154.524" stroke="white" stroke-linecap="square"/>
<path d="M820.532 164.437L821.32 155.116C821.32 153.792 822.401 151.92 823.724 151.92C825.047 151.92 826.128 153.793 826.128 155.114L826.915 164.437H820.532Z" stroke="white" stroke-linecap="square"/>
<path d="M826.433 154.524C826.433 154.524 832.807 162.406 845.259 162.406C857.71 162.406 864.085 154.524 864.085 154.524" stroke="white" stroke-linecap="square"/>
<path d="M777.452 164.437L778.239 155.116C778.239 153.792 779.32 151.92 780.643 151.92C781.966 151.92 783.047 153.793 783.047 155.114L783.835 164.437H777.452Z" stroke="white" stroke-linecap="square"/>
<path d="M783.353 154.524C783.353 154.524 789.727 162.406 802.178 162.406C814.63 162.406 821.004 154.524 821.004 154.524" stroke="white" stroke-linecap="square"/>
<path d="M651.392 96.668V164.436" stroke="white" stroke-linecap="square"/>
<path d="M654.938 105.472H647.851L648.454 115.352H654.338L654.938 105.472Z" stroke="white" stroke-linecap="square"/>
<path d="M653.995 101.653H648.79V105.336H653.995V101.653Z" stroke="white" stroke-linecap="square"/>
<path d="M734.371 164.437L735.153 155.116C735.153 153.792 736.234 151.92 737.557 151.92C738.877 151.92 739.958 153.793 739.958 155.114L740.745 164.437H734.371Z" stroke="white" stroke-linecap="square"/>
<path d="M740.271 154.524C740.271 154.524 746.646 162.406 759.097 162.406C771.549 162.406 777.921 154.524 777.921 154.524" stroke="white" stroke-linecap="square"/>
<path d="M691.29 164.437L692.078 155.116C692.078 153.792 693.159 151.92 694.478 151.92C695.8 151.92 696.882 153.793 696.882 155.114L697.67 164.437H691.29Z" stroke="white" stroke-linecap="square"/>
<path d="M697.189 154.524C697.189 154.524 703.564 162.406 716.015 162.406C728.467 162.406 734.839 154.524 734.839 154.524" stroke="white" stroke-linecap="square"/>
<path d="M648.206 164.437L648.994 155.116C648.994 153.792 650.078 151.92 651.398 151.92C652.721 151.92 653.802 153.793 653.802 155.114L654.584 164.437H648.206Z" stroke="white" stroke-linecap="square"/>
<path d="M654.109 154.524C654.109 154.524 660.483 162.406 672.932 162.406C685.382 162.406 691.758 154.524 691.758 154.524" stroke="white" stroke-linecap="square"/>
<path d="M522.147 96.668V164.436" stroke="white" stroke-linecap="square"/>
<path d="M525.693 105.472H518.606L519.209 115.352H525.094L525.693 105.472Z" stroke="white" stroke-linecap="square"/>
<path d="M524.751 101.653H519.545V105.336H524.751V101.653Z" stroke="white" stroke-linecap="square"/>
<path d="M605.125 164.437L605.912 155.116C605.912 153.792 606.994 151.92 608.317 151.92C609.64 151.92 610.721 153.793 610.721 155.114L611.503 164.437H605.125Z" stroke="white" stroke-linecap="square"/>
<path d="M611.028 154.524C611.028 154.524 617.4 162.406 629.852 162.406C642.303 162.406 648.678 154.524 648.678 154.524" stroke="white" stroke-linecap="square"/>
<path d="M562.044 164.437L562.832 155.116C562.832 153.792 563.913 151.92 565.236 151.92C566.559 151.92 567.64 153.793 567.64 155.114L568.428 164.437H562.044Z" stroke="white" stroke-linecap="square"/>
<path d="M567.944 154.524C567.944 154.524 574.318 162.406 586.77 162.406C599.221 162.406 605.595 154.524 605.595 154.524" stroke="white" stroke-linecap="square"/>
<path d="M518.962 164.437L519.75 155.116C519.75 153.792 520.831 151.92 522.154 151.92C523.477 151.92 524.558 153.793 524.558 155.114L525.346 164.437H518.962Z" stroke="white" stroke-linecap="square"/>
<path d="M524.864 154.524C524.864 154.524 531.239 162.406 543.69 162.406C556.142 162.406 562.516 154.524 562.516 154.524" stroke="white" stroke-linecap="square"/>
<path d="M392.903 96.668V164.436" stroke="white" stroke-linecap="square"/>
<path d="M396.449 105.472H389.361L389.964 115.352H395.849L396.449 105.472Z" stroke="white" stroke-linecap="square"/>
<path d="M395.506 101.653H390.301V105.336H395.506V101.653Z" stroke="white" stroke-linecap="square"/>
<path d="M475.882 164.437L476.669 155.116C476.669 153.792 477.75 151.92 479.073 151.92C480.393 151.92 481.474 153.793 481.474 155.114L482.256 164.437H475.882Z" stroke="white" stroke-linecap="square"/>
<path d="M481.782 154.524C481.782 154.524 488.156 162.406 500.608 162.406C513.059 162.406 519.431 154.524 519.431 154.524" stroke="white" stroke-linecap="square"/>
<path d="M432.801 164.437L433.589 155.116C433.589 153.792 434.67 151.92 435.99 151.92C437.313 151.92 438.394 153.793 438.394 155.114L439.176 164.437H432.801Z" stroke="white" stroke-linecap="square"/>
<path d="M438.701 154.524C438.701 154.524 445.075 162.406 457.526 162.406C469.978 162.406 476.35 154.524 476.35 154.524" stroke="white" stroke-linecap="square"/>
<path d="M389.717 164.437L390.504 155.116C390.504 153.792 391.589 151.92 392.908 151.92C394.231 151.92 395.313 153.793 395.313 155.114L396.1 164.437H389.717Z" stroke="white" stroke-linecap="square"/>
<path d="M395.62 154.524C395.62 154.524 401.994 162.406 414.444 162.406C426.893 162.406 433.269 154.524 433.269 154.524" stroke="white" stroke-linecap="square"/>
<path d="M263.357 96.668V164.436" stroke="white" stroke-linecap="square"/>
<path d="M266.903 105.472H259.815L260.418 115.352H266.303L266.903 105.472Z" stroke="white" stroke-linecap="square"/>
<path d="M265.959 101.653H260.754V105.336H265.959V101.653Z" stroke="white" stroke-linecap="square"/>
<path d="M346.334 164.437L347.116 155.116C347.116 153.792 348.197 151.92 349.52 151.92C350.843 151.92 351.924 153.793 351.924 155.114L352.712 164.437H346.334Z" stroke="white" stroke-linecap="square"/>
<path d="M352.236 154.524C352.236 154.524 358.611 162.406 371.06 162.406C383.509 162.406 389.886 154.524 389.886 154.524" stroke="white" stroke-linecap="square"/>
<path d="M303.253 164.437L304.04 155.116C304.04 153.792 305.122 151.92 306.445 151.92C307.768 151.92 308.849 153.793 308.849 155.114L309.636 164.437H303.253Z" stroke="white" stroke-linecap="square"/>
<path d="M309.153 154.524C309.153 154.524 315.528 162.406 327.979 162.406C340.431 162.406 346.805 154.524 346.805 154.524" stroke="white" stroke-linecap="square"/>
<path d="M260.172 164.437L260.954 155.116C260.954 153.792 262.035 151.92 263.358 151.92C264.68 151.92 265.762 153.793 265.762 155.114L266.55 164.437H260.172Z" stroke="white" stroke-linecap="square"/>
<path d="M266.072 154.524C266.072 154.524 272.446 162.406 284.898 162.406C297.349 162.406 303.723 154.524 303.723 154.524" stroke="white" stroke-linecap="square"/>
<path d="M134.164 96.668V164.436" stroke="white" stroke-linecap="square"/>
<path d="M137.71 105.472H130.623L131.226 115.352H137.11L137.71 105.472Z" stroke="white" stroke-linecap="square"/>
<path d="M136.767 101.653H131.562V105.336H136.767V101.653Z" stroke="white" stroke-linecap="square"/>
<path d="M217.143 164.437L217.931 155.116C217.931 153.792 219.012 151.92 220.331 151.92C221.654 151.92 222.735 153.793 222.735 155.114L223.517 164.437H217.143Z" stroke="white" stroke-linecap="square"/>
<path d="M223.044 154.524C223.044 154.524 229.418 162.406 241.87 162.406C254.321 162.406 260.693 154.524 260.693 154.524" stroke="white" stroke-linecap="square"/>
<path d="M174.062 164.437L174.85 155.116C174.85 153.792 175.931 151.92 177.251 151.92C178.574 151.92 179.655 153.793 179.655 155.114L180.437 164.437H174.062Z" stroke="white" stroke-linecap="square"/>
<path d="M179.958 154.524C179.958 154.524 186.333 162.406 198.782 162.406C211.231 162.406 217.608 154.524 217.608 154.524" stroke="white" stroke-linecap="square"/>
<path d="M130.979 164.437L131.76 155.116C131.76 153.792 132.841 151.92 134.164 151.92C135.487 151.92 136.569 153.793 136.569 155.114L137.356 164.437H130.979Z" stroke="white" stroke-linecap="square"/>
<path d="M136.881 154.524C136.881 154.524 143.253 162.406 155.705 162.406C168.156 162.406 174.531 154.524 174.531 154.524" stroke="white" stroke-linecap="square"/>
<path d="M4.79492 96.668V164.436" stroke="white" stroke-linecap="square"/>
<path d="M8.3409 105.472H1.25342L1.85643 115.352H7.74133L8.3409 105.472Z" stroke="white" stroke-linecap="square"/>
<path d="M7.39971 101.653H2.19434V105.336H7.39971V101.653Z" stroke="white" stroke-linecap="square"/>
<path d="M87.7725 164.437L88.5543 155.116C88.5543 153.792 89.6354 151.92 90.9584 151.92C92.2803 151.92 93.3626 153.793 93.3626 155.114L94.1445 164.437H87.7725Z" stroke="white" stroke-linecap="square"/>
<path d="M93.6733 154.524C93.6733 154.524 100.048 162.406 112.499 162.406C124.951 162.406 131.325 154.524 131.325 154.524" stroke="white" stroke-linecap="square"/>
<path d="M44.6919 164.437L45.4794 155.116C45.4794 153.792 46.5606 151.92 47.8836 151.92C49.2032 151.92 50.2876 153.793 50.2876 155.114L51.0752 164.437H44.6919Z" stroke="white" stroke-linecap="square"/>
<path d="M50.5913 154.524C50.5913 154.524 56.9656 162.406 69.4171 162.406C81.8686 162.406 88.2428 154.524 88.2428 154.524" stroke="white" stroke-linecap="square"/>
<path d="M1.61182 164.437L2.39933 155.116C2.39933 153.792 3.48041 151.92 4.80341 151.92C6.12304 151.92 7.2042 153.793 7.2042 155.114L7.98602 164.437H1.61182Z" stroke="white" stroke-linecap="square"/>
<path d="M7.51074 154.524C7.51074 154.524 13.885 162.406 26.3365 162.406C38.788 162.406 45.16 154.524 45.16 154.524" stroke="white" stroke-linecap="square"/>
</svg>
