<svg width="20" height="20" viewBox="0 0 20 20" fill="none" xmlns="http://www.w3.org/2000/svg">
<path d="M6.572 9.858C6.572 9.20805 6.76475 8.57269 7.12586 8.03229C7.48697 7.49189 8.00024 7.07072 8.60073 6.82204C9.20123 6.57336 9.86199 6.50834 10.4994 6.63521C11.1369 6.76208 11.7224 7.07515 12.1819 7.5348C12.6414 7.99446 12.9543 8.58006 13.081 9.21755C13.2077 9.85503 13.1424 10.5158 12.8936 11.1162C12.6447 11.7166 12.2234 12.2297 11.6829 12.5907C11.1424 12.9516 10.507 13.1442 9.857 13.144C8.98567 13.1437 8.15012 12.7974 7.53409 12.1812C6.91807 11.565 6.572 10.7293 6.572 9.858ZM4.796 9.858C4.79521 10.8593 5.09142 11.8384 5.64716 12.6714C6.20289 13.5044 6.99319 14.1538 7.91808 14.5375C8.84297 14.9213 9.8609 15.0221 10.8431 14.8272C11.8253 14.6324 12.7276 14.1506 13.436 13.4428C14.1443 12.735 14.6268 11.8331 14.8224 10.851C15.0181 9.86898 14.9181 8.85097 14.5351 7.92578C14.152 7.00059 13.5032 6.20978 12.6707 5.65338C11.8382 5.09698 10.8593 4.8 9.858 4.8C8.51686 4.80106 7.23095 5.33429 6.28262 6.28262C5.33429 7.23095 4.80106 8.51686 4.8 9.858H4.796ZM13.937 4.6C13.9378 4.8338 14.0078 5.06213 14.1383 5.25615C14.2688 5.45016 14.4538 5.60117 14.6701 5.69009C14.8863 5.77902 15.124 5.80188 15.3532 5.75578C15.5824 5.70968 15.7929 5.5967 15.9579 5.43109C16.123 5.26549 16.2352 5.05469 16.2806 4.82532C16.3259 4.59595 16.3022 4.3583 16.2126 4.14237C16.1229 3.92643 15.9713 3.74191 15.7768 3.6121C15.5824 3.48228 15.3538 3.413 15.12 3.413C14.9643 3.413 14.8101 3.44373 14.6664 3.50343C14.5226 3.56313 14.392 3.65063 14.2821 3.76091C14.1722 3.87118 14.0851 4.00207 14.0259 4.14606C13.9667 4.29005 13.9365 4.44431 13.937 4.6ZM5.875 17.881C5.24973 17.874 4.63034 17.7593 4.044 17.542C3.61539 17.3823 3.22792 17.1288 2.91 16.8C2.58261 16.4823 2.33075 16.0951 2.173 15.667C1.9557 15.0807 1.84102 14.4613 1.834 13.836C1.786 12.797 1.777 12.485 1.777 9.852C1.777 7.219 1.787 6.908 1.834 5.868C1.84154 5.24278 1.9562 4.62348 2.173 4.037C2.33198 3.611 2.58373 3.2257 2.91 2.909C3.22793 2.58138 3.6155 2.32949 4.044 2.172C4.63034 1.9547 5.24973 1.84002 5.875 1.833C6.914 1.785 7.226 1.776 9.858 1.776C12.49 1.776 12.802 1.786 13.842 1.833C14.4672 1.84054 15.0865 1.9552 15.673 2.172C16.1013 2.32989 16.4888 2.58172 16.807 2.909C17.1342 3.2273 17.386 3.61476 17.544 4.043C17.7613 4.62934 17.876 5.24873 17.883 5.874C17.931 6.914 17.94 7.225 17.94 9.858C17.94 12.491 17.93 12.802 17.883 13.842C17.8756 14.4672 17.7609 15.0865 17.544 15.673C17.3799 16.098 17.1287 16.484 16.8064 16.806C16.4842 17.1281 16.0981 17.3791 15.673 17.543C15.0867 17.7603 14.4673 17.875 13.842 17.882C12.803 17.93 12.491 17.939 9.858 17.939C7.225 17.939 6.914 17.929 5.875 17.882V17.881ZM5.793 0.06C4.97517 0.0762163 4.16602 0.231081 3.4 0.518C2.74267 0.765789 2.1472 1.15378 1.655 1.655C1.15346 2.14694 0.765415 2.74248 0.518 3.4C0.231081 4.16602 0.0762163 4.97517 0.06 5.793C0.011 6.845 0 7.181 0 9.858C0 12.535 0.011 12.871 0.06 13.922C0.0762163 14.7398 0.231081 15.549 0.518 16.315C0.765299 16.9726 1.15336 17.5681 1.655 18.06C2.14684 18.5624 2.74235 18.9514 3.4 19.2C4.16604 19.4868 4.97518 19.6417 5.793 19.658C6.845 19.706 7.18 19.718 9.857 19.718C12.534 19.718 12.87 19.707 13.921 19.658C14.7388 19.6418 15.548 19.4869 16.314 19.2C16.9697 18.9468 17.5652 18.5592 18.0622 18.0622C18.5592 17.5652 18.9468 16.9697 19.2 16.314C19.4873 15.5481 19.6422 14.7389 19.658 13.921C19.706 12.869 19.717 12.534 19.717 9.857C19.717 7.18 19.706 6.844 19.658 5.793C19.6418 4.97517 19.4869 4.16602 19.2 3.4C18.951 2.74256 18.562 2.14713 18.06 1.655C17.5679 1.15371 16.9724 0.765703 16.315 0.518C15.549 0.230856 14.7399 0.0759844 13.922 0.06C12.871 0.012 12.535 0 9.858 0C7.181 0 6.845 0.011 5.793 0.06Z" fill="white"/>
</svg>
