<svg viewBox="0 0 1438 993" fill="none" xmlns="http://www.w3.org/2000/svg">
<path d="M-3 0H1438V909.087C1438 909.087 1052.01 994.283 717.483 992.461C382.956 990.639 -3 909.087 -3 909.087V0Z" fill="url(#paint0_linear)"/>
<g opacity="0.6">
<path d="M27.8873 393.269C41.9259 364.665 72.143 344.897 103.737 343.647C135.331 342.398 166.988 359.721 183.195 387.131C218.545 368.736 265.194 375.778 293.671 403.804C268.487 367.776 280.185 311.195 317.541 288.346C354.896 265.498 409.985 281.222 429.95 320.448C441.825 298.243 477.235 294.599 493.301 313.934C490.642 264.184 541.256 219.037 589.826 227.836C638.396 236.635 670.316 296.725 650.698 342.44C659.814 345.093 668.176 349.892 675.096 356.444C682.017 362.995 687.298 371.112 690.505 380.127C686.551 371.1 685.191 361.133 686.58 351.363C687.969 341.593 692.052 332.414 698.361 324.875C704.67 317.336 712.952 311.74 722.261 308.726C731.569 305.713 741.53 305.403 751.005 307.832C733.927 255.663 778.316 193.216 832.733 192.846C887.151 192.476 932.36 254.327 915.972 306.722C938.966 298.987 966.77 311.061 977.023 333.233C987.277 355.405 978.596 384.679 957.962 397.514L996.632 420.446C990.379 400.121 999.623 376.044 1017.8 365.277C1035.99 354.509 1061.31 358.117 1075.83 373.542C1033.82 345.018 1030.84 273.759 1070.33 241.766C1109.82 209.774 1178.08 228.142 1196.56 275.734C1211.53 255.5 1241.47 248.37 1263.82 259.712C1286.17 271.054 1298.37 299.565 1291.22 323.77C1313.56 317.015 1339.84 327.574 1351.48 347.981C1363.11 368.387 1358.95 396.636 1341.95 412.745C1359.86 399.306 1393.99 401.344 1406.93 419.827V785.383H27L27.8873 393.269Z" fill="url(#paint1_linear)"/>
<path d="M1203.51 398.797C1203.51 398.797 1211.89 381.382 1224.41 373.644C1224.41 373.644 1223.47 360.751 1204.92 354.073C1204.92 354.029 1203.31 353.58 1203.31 353.58L1203.27 350.145L1200.38 349.979L1198.75 294.081L1200.23 294.042L1200.03 287.113L1198.32 287.091L1197.52 252.042L1198.8 251.629L1198.69 246.218L1197.35 245.256L1196.35 202.735L1193.84 199.1L1191.34 202.735L1190.34 245.256L1188.99 246.218L1188.88 251.629L1190.16 252.042L1189.37 287.091L1187.66 287.113L1187.46 294.042L1188.93 294.081L1187.31 349.979L1184.42 350.145L1184.38 353.58C1184.38 353.58 1182.77 354.03 1182.77 354.073C1164.22 360.75 1163.28 373.644 1163.28 373.644C1175.79 381.385 1184.18 398.797 1184.18 398.797L1184.76 404.286L1186.29 404.782L1175.58 731.594L1193.38 732.348V732.387L1193.84 732.367L1194.3 732.387V732.348L1212.1 731.594L1201.39 404.782L1202.93 404.286L1203.51 398.797Z" fill="url(#paint2_linear)"/>
<path d="M327.421 623.765C327.421 623.765 321.636 560.701 318.43 530.252C320.075 524.353 322.009 519.643 322.244 514.306C322.469 509.175 322.697 504.089 319.892 499.761L319.46 500.82C318.59 501.348 317.873 500.544 317.011 500.746C316.847 499.673 316.718 498.834 316.58 497.902C315.951 498.664 315.328 498.974 314.263 498.078C313.41 495.445 313.395 492.201 313.328 489.085C313.162 481.428 311.723 473.922 311.511 466.297C311.252 457.009 309.92 447.85 309.331 438.606C309.23 438.046 309.244 437.471 309.373 436.916C309.501 436.362 309.74 435.84 310.076 435.382C310.698 434.426 311.03 433.307 311.032 432.163C311.2 430.457 311.694 428.799 312.488 427.283C313.144 426.196 313.545 424.973 313.66 423.706C313.776 422.439 313.604 421.163 313.156 419.974C313.018 419.326 312.969 418.662 313.011 418C310.838 416.164 309.611 413.285 307.237 411.241C306.231 407.792 306.97 403.75 306.296 399.854C304.905 391.8 304.644 383.565 303.428 375.481C302.947 373.15 303.204 370.726 304.162 368.551C306.029 364.849 306.847 360.7 306.527 356.559C306.359 354.801 304.068 354.482 305.136 352.623C304.351 351.9 303.556 352.98 303.336 352.448C302.365 351.292 302.925 350.206 302.525 349.328C301.85 349.507 301.273 350.346 300.127 349.594C299.049 343.498 299.117 336.926 298.432 330.424C298.986 329.618 299.503 328.879 300.01 328.129C302.5 324.447 302.11 317.278 297.729 314.377C296.906 313.888 296.263 313.143 295.897 312.253C295.531 311.363 295.462 310.377 295.7 309.443C296.096 306.495 295.871 303.496 295.042 300.642C294.711 299.386 294.518 298.098 294.465 296.8C295.749 295.541 296.486 293.82 296.514 292.013C296.542 290.206 295.859 288.462 294.614 287.164C294.506 286.076 294.781 284.38 294.122 283.553L294.187 283.41C292.583 282.658 290.879 282.142 289.129 281.881C286.806 280.981 287.913 279.377 288.722 277.789C286.521 278.66 286.064 278.848 285.812 281.747C283.522 281.858 281.297 282.546 279.338 283.748L279.23 283.825L279.297 287.916C277.407 290.081 276.943 294.186 280.138 297.572C280.511 300.953 278.888 303.878 279.007 307.103C278.968 308.056 279.034 309.01 279.203 309.948C279.997 313.057 279.812 313.147 277.323 315.325C273.428 318.736 272.838 325.58 275.448 329.191C275.926 329.852 276.437 330.48 277.173 331.434C276.095 338.329 276.909 345.759 274.909 353.116C274.586 352.23 275.017 351.148 273.847 351.273C273.076 351.628 273.517 352.9 272.808 353.368C272.499 353.577 272.144 353.708 271.774 353.748C271.404 353.789 271.03 353.737 270.684 353.598C268.164 359.627 268.97 365.136 272.069 370.346C272.678 371.316 272.908 372.479 272.716 373.611C271.315 383.133 271.214 392.828 269.854 402.364C269.367 405.778 269.726 409.321 269.207 412.445C267.565 413.802 266.24 415.508 265.326 417.442C264.682 418.774 264.196 420.177 263.876 421.624C263.316 423.815 263.545 426.135 264.523 428.171C265.43 430.045 265.841 432.16 266.671 433.958C268.814 438.612 268.072 443.332 267.492 448.026C266.356 457.237 266.639 466.569 265.587 475.767C264.734 483.225 265.148 490.788 264.078 498.275C263.189 498.505 262.328 499.111 261.794 497.717C260.975 498.404 261.486 499.587 261.04 500.301C260.225 501.178 259.638 500.658 259.077 500.035C257.511 500.906 257.814 502.745 257.686 504.157C256.808 504.396 256.959 503.539 256.284 503.351C256.407 503.358 256.337 503.482 256.305 503.725C255.836 507.235 256.176 510.766 256.062 514.284C256.018 515.667 256.785 516.623 257.146 517.767C258.278 521.342 258.508 525.26 260.353 528.58C261.045 529.825 260.554 531.425 260.429 532.857C259.92 538.695 259.111 544.519 258.936 550.37C258.738 556.624 258.205 562.863 257.34 569.059C256.228 577.114 255.574 593.306 255.574 593.306L254.955 596.672L248.015 694.853H333.235L327.421 623.765ZM279.781 287.466L279.726 284.092C281.567 283.007 283.635 282.379 285.763 282.257C285.714 282.92 285.669 283.704 285.616 284.644C283.823 286.176 281.984 285.958 279.779 287.465L279.781 287.466ZM293.406 286.628L288.507 284.81C288.326 284.411 288.26 283.969 288.317 283.534C288.375 283.099 288.552 282.689 288.83 282.352C290.557 282.587 292.24 283.077 293.825 283.807C293.45 284.71 293.867 285.808 293.403 286.627L293.406 286.628ZM300.547 351.768C300.488 351.71 300.442 351.64 300.414 351.563C300.386 351.485 300.376 351.402 300.384 351.32C300.587 350.959 300.863 350.961 301.139 351.251C301.082 351.651 300.935 351.941 300.543 351.766L300.547 351.768Z" fill="url(#paint3_linear)"/>
<path d="M716.683 459.393H718.023C717.328 460.384 719.383 460.992 718.397 461.995C717.459 462.95 717.839 464.132 717.837 465.21C717.806 480.093 717.804 494.976 717.828 509.859C717.691 511.404 717.781 512.962 718.096 514.48C721.639 516.452 724.026 519.74 722.574 525.224C723.389 525.768 724.399 526.241 724.399 527.652C724.534 527.085 724.81 526.561 725.2 526.13C725.59 525.7 726.082 525.376 726.629 525.189C724.942 520.726 726.653 517.048 730.993 514.427C731.802 513.665 730.679 512.345 731.786 511.678C733.04 512.331 731.72 513.923 733.154 514.81C736.796 516.769 738.359 520.168 737.183 525.332C737.715 525.519 738.189 525.843 738.559 526.272C738.928 526.701 739.179 527.221 739.287 527.779C738.706 525.906 740.488 526.003 741.026 525.142C739.636 520.014 741.625 516.703 744.907 514.855C746.404 513.931 745.14 512.433 746.486 511.973C747.432 512.652 746.362 514.041 747.447 514.657C750.797 516.582 753.161 519.516 751.722 525.298C752.942 526.609 754.214 525.662 755.953 525.502C754.035 521.525 755.555 518.427 758.237 515.509C759.163 515.539 759.854 514.378 760.959 514.186L763.748 515.557C766.267 518.621 767.915 521.525 765.975 525.181C768.254 525.924 767.848 528.072 768.809 529.609C769.805 530.017 771.127 529.355 772.276 530.173C769.383 536.989 770.99 544.076 770.584 550.736C771.239 551.563 772.235 551.172 772.417 552.312C772.544 556.449 772.278 560.845 772.582 565.712C774.282 564.525 773.857 563.413 773.859 562.531C773.903 543.817 773.912 525.103 773.886 506.39C773.886 504.539 773.972 502.617 772.803 501.118C774.672 497.642 773.724 494.35 772.744 491.213C771.558 490.005 769.246 489.733 770.291 487.383C771.538 486.696 773.043 487.492 774.336 486.35C772.935 484.114 775.098 481.752 773.931 479.008C773.516 478.33 771.625 479.059 771.389 477.472C772.024 476.318 773.506 476.788 774.299 475.769C773.242 471.67 776.299 469.688 778.661 467.514C781.149 469.747 784.208 471.797 783.027 475.809C783.956 476.833 785.714 476.254 785.938 477.826C785.184 478.876 783.708 478.43 783.26 479.185C782.388 481.907 784.231 484.231 783.14 486.556C784.433 487.399 785.919 486.697 787.182 487.508C788.198 490.093 785.156 489.945 784.43 491.595C783.675 494.616 782.503 497.836 784.592 501.09C783.33 502.527 783.424 504.366 783.421 506.097C783.384 525.263 783.382 544.429 783.413 563.596C783.413 564.324 783.207 565.219 784.573 565.41C785.507 562.186 784.573 558.82 785.193 555.396C787.297 556.498 789.247 557.879 790.989 559.502C793.056 561.167 792.706 563.628 793.203 565.886C794.44 564.604 793.351 563.177 794.136 561.732C795.954 558.731 798.762 556.472 802.065 555.352L806.234 557.953C806.617 553.835 805.996 550.055 806.659 546.219C809.509 546.364 812.157 545.952 814.619 546.491C815.432 547.456 815.05 548.868 816.265 549.371C816.969 548.431 816.757 547.099 817.832 546.306C821.389 546.048 825.066 546.505 828.505 546.037C829.351 545.167 828.612 544.048 829.588 543.263C830.019 543.205 830.774 543.398 831.122 542.697V529.519C830.444 528.841 829.494 528.576 828.869 527.278V520.927L823.533 519.914C822.839 518.803 821.934 517.915 821.887 516.59C824.653 515.12 827.879 514.916 830.591 513.274V508.383C833.333 504.984 833.609 500.907 836.184 498.042C838.758 495.177 841.767 492.872 844.503 490.258C844.312 489.823 844.269 489.336 844.38 488.873C844.491 488.411 844.75 487.998 845.117 487.698C850.216 487.945 850.964 483.018 853.477 478.935C853.336 478.049 853.482 477.14 853.892 476.343C854.747 477.541 854.397 478.872 854.842 480.099C855.425 480.796 856.537 481.236 856.615 482.353C856.855 485.727 859.166 486.816 861.945 487.46C862.257 487.493 862.556 487.599 862.82 487.769C863.084 487.939 863.305 488.169 863.466 488.44C864.056 488.924 863.143 489.814 863.809 490.711C866.715 493.046 869.443 495.597 871.971 498.343C874.526 501.188 874.491 505.418 877.48 508.124V513.555L886.196 516.54C885.84 517.775 885.185 518.902 884.29 519.818C882.548 520.639 880.578 520.041 878.914 521.365V527.664C878.267 528.762 877.081 528.752 876.858 529.623V542.697C877.375 543.58 878.309 542.953 878.725 543.608C879.285 544.332 878.5 545.444 879.776 546.299H890.093C891.298 547.319 890.793 548.911 892.002 549.578L893.316 546.245C896.056 546.414 898.797 545.901 901.586 546.572V566.346C902.278 567.238 902.815 568.242 903.175 569.314C903.019 570.301 901.964 570.905 901.634 571.88C902.066 572.617 902.966 572.918 902.902 574.461C902.382 575.191 902.132 576.081 902.193 576.977C902.986 582.494 901.869 587.994 902.113 593.555C902.636 605.482 902.247 617.45 902.267 629.403C902.267 630.6 901.944 631.866 902.661 633.16C903.245 633.098 903.888 633.478 904.55 632.735C904.482 631.741 904.405 630.635 904.325 629.5C905.981 626.035 909.084 624.264 912.223 622.295C915.416 624.372 918.64 626.277 920.496 630.41C922.338 626.297 925.537 624.323 928.833 622.336C932 624.315 935.193 626.137 936.918 629.983C939.102 626.752 942.054 624.127 945.503 622.346C948.6 624.298 951.841 626.065 953.315 629.748C953.592 631.032 951.338 632.817 953.962 633.583C956.125 632.424 953.986 630.953 954.292 629.603C955.935 626.085 959.048 624.213 962.161 622.275C965.288 624.419 968.508 626.095 969.87 629.697C970.525 630.768 968.941 632.298 971.064 633.623C969.942 626.808 974.945 625.048 978.74 622.234C981.913 624.433 985.172 626.076 986.856 630.27C987.179 630.789 985.47 632.278 987.148 633.327C987.426 633.107 987.629 632.805 987.727 632.462C987.825 632.119 987.814 631.754 987.694 631.419C987.596 630.815 987.544 630.205 987.537 629.594C989.377 626.311 991.39 624.535 995.692 622.379C997.524 623.834 999.538 625.178 1001.45 626.726C1003.64 628.496 1002.65 631.156 1003.82 633.344C1003.31 626.959 1008.12 625.035 1011.92 622.3C1014.12 623.614 1016.2 625.119 1018.13 626.798C1020.34 628.497 1019.32 631.193 1020.18 633.685C1021.55 631.943 1020.51 630.518 1021.03 629.174C1022.83 626.223 1024.37 624.852 1028.69 622.405C1032.02 623.937 1034.57 626.548 1037.09 629.53C1039.24 626.525 1042.05 624.062 1045.31 622.334C1048.54 624.243 1051.61 626.233 1053.35 629.699C1055.69 626.672 1058.62 624.167 1061.96 622.34L1066.35 625.04C1071.12 616.332 1078.81 610.613 1086.21 604.412C1085.03 602.683 1085.03 601.147 1086.74 599.721C1088.43 599.343 1090.1 598.872 1091.73 598.311C1094.93 597.047 1097.93 595.313 1098.33 591.448C1098.61 588.717 1099.58 586.73 1101.98 585.799C1102.9 582.546 1102.49 579.3 1103.76 575.951C1104.2 579.456 1104.58 582.562 1104.98 585.735C1106.76 586.606 1108.5 587.668 1108.58 589.83C1108.81 595.402 1112.53 597.437 1117.05 598.824C1118.5 599.269 1120.22 599.151 1121.09 600.348C1122.1 601.89 1121.5 603.178 1121.11 604.621C1128.52 610.608 1136.02 616.5 1140.77 624.991C1142.57 624.29 1143.62 622.814 1145.25 622.458C1150 625.199 1151.41 626.531 1152.8 629.444C1153.28 630.801 1152.18 632.247 1154.17 633.807C1153.06 626.791 1157.95 624.952 1161.86 622.269C1164.09 623.74 1165.93 625.172 1167.77 626.649C1169.93 628.39 1169.35 630.966 1170.21 633.366C1169.75 627.088 1174.32 624.978 1178.43 622.32C1182.53 624.998 1187.21 627.051 1186.72 633.548C1186.42 627.143 1190.97 624.991 1194.96 622.372C1196.73 623.193 1198.37 624.283 1199.81 625.603C1201.81 627.304 1203.69 629.106 1202.66 632.213C1202.46 632.823 1203.03 633.193 1203.8 633.084C1204.47 631.942 1203.6 630.681 1204.06 629.112C1205.54 626.028 1208.62 624.236 1211.74 622.318C1213.83 623.641 1215.83 625.095 1217.73 626.672C1220.03 628.397 1218.95 631.113 1220.19 633.379C1219.68 627.013 1224.29 624.918 1228.43 622.307C1231.62 624.293 1234.69 626.225 1236.39 629.73C1237.92 628.486 1238.76 626.676 1240.32 625.528C1241.77 624.285 1243.37 623.227 1245.07 622.379C1247.17 623.666 1249.16 625.114 1251.04 626.709C1253.23 628.433 1252.28 631.115 1253.47 633.316C1252.99 626.957 1257.68 624.942 1261.53 622.311C1266.53 625.25 1267.89 626.535 1269.41 629.691C1269.82 630.79 1268.77 632.067 1270.27 633.814C1270.72 630.995 1270.13 628.418 1272.25 626.717C1274.13 625.078 1276.14 623.607 1278.27 622.322C1281.44 624.281 1284.66 626.07 1286.09 629.759C1286.68 630.816 1285.04 632.362 1287.26 633.493C1286.09 626.723 1291.14 625.003 1295.09 622.148C1298.45 625.272 1303.81 626.524 1302.53 632.742C1302.85 633.02 1303.26 633.166 1303.68 633.152C1304.11 633.139 1304.51 632.965 1304.81 632.667C1305.17 627.595 1305.11 622.336 1305.35 617.102C1305.83 607.088 1305.53 597.039 1305.47 587.005C1305.53 584.588 1304.99 582.194 1303.92 580.033C1305.41 576.114 1305.43 575.927 1304.69 573.72C1304.91 572.936 1305.93 572.734 1306.01 571.848C1304.87 569.613 1304.89 569.621 1305.93 566.833C1306.2 565.855 1306.22 564.822 1305.98 563.835C1305.12 558.047 1305.75 552.249 1305.62 546.386H1313.63C1314.71 547.346 1314.23 548.928 1315.47 549.579L1316.75 546.173H1327.49C1328.46 545.247 1327.81 544.143 1328.5 543.452C1328.99 542.996 1329.9 543.528 1330.32 542.539V529.559C1329.77 528.707 1328.43 528.681 1328.08 526.795V521.146C1326.37 520.206 1324.48 520.493 1322.81 519.911C1321.92 518.992 1321.31 517.837 1321.04 516.58C1323.79 515.165 1326.97 514.867 1329.72 513.329V507.545C1331.03 507.454 1331.45 506.485 1331.72 505.347C1332.83 501.3 1335.13 497.689 1338.33 494.994C1340.05 493.4 1341.85 491.893 1343.57 490.396C1343.69 489.559 1343.09 488.738 1344.21 487.815C1345.8 487.089 1348.63 487.141 1349.54 484.96C1350.56 482.543 1352.15 480.443 1353.06 477.83C1352.54 480.094 1354.59 480.51 1355.76 481.749C1355.49 486.479 1359.5 486.816 1362.12 487.851C1363.15 488.901 1362.42 489.768 1362.89 490.598C1363.65 491.239 1364.51 491.964 1365.37 492.678C1369.66 496.232 1373.52 500.145 1374.67 505.893C1374.93 507.208 1376.28 506.982 1376.79 508.601V513.608L1385.41 516.557C1384.98 517.792 1384.32 518.935 1383.47 519.925C1381.75 520.525 1379.86 520.17 1378.14 521.278V527.578C1377.54 528.752 1376.34 528.739 1376.06 529.711C1376.06 534.089 1376.06 538.467 1376.06 542.645C1376.54 543.586 1377.48 542.931 1377.88 543.521C1378.5 544.276 1377.71 545.4 1379 546.278H1389.31C1390.43 547.348 1390.06 548.866 1391.2 549.576C1391.63 548.488 1392.05 547.463 1392.54 546.25C1395.27 546.433 1398.01 545.825 1400.8 546.625C1400.8 551.065 1401.3 555.424 1400.66 559.605C1400.01 563.826 1403.09 567.852 1401 572.245C1401.31 572.714 1402.32 573.062 1402.31 574.406C1401.31 575.151 1401.26 576.264 1401.59 577.702C1402.01 579.882 1401.9 582.132 1401.26 584.258C1400.81 585.894 1400.73 587.613 1401.03 589.285C1401.42 591.951 1401.56 594.647 1401.46 597.339C1401.58 603.411 1401.36 609.471 1400.97 615.529C1400.74 619.012 1401.54 622.442 1401.53 625.94C1401.52 630.743 1401.39 635.544 1401.4 640.347C1401.51 687.814 1401.53 735.282 1401.45 782.75C1401.45 783.719 1401.8 784.778 1401.06 785.652H33.3925C33.0267 784.76 32.919 783.781 33.082 782.83C33.4647 727.735 32.2724 672.634 33.676 617.542C33.7493 614.638 33.2124 611.723 33.1855 608.865C33.1197 601.918 32.4405 594.933 33.6415 587.996C33.7692 586.876 33.7098 585.742 33.4658 584.642C33.0195 582.022 32.2702 579.431 33.1424 576.76C33.4755 575.74 32.9106 575.115 32.212 574.518C32.1042 574.429 32.198 574.106 32.198 573.892C32.2681 572.889 33.3591 572.597 33.7493 571.579C33.4071 571.399 33.1083 571.146 32.8746 570.836C32.6408 570.526 32.4778 570.168 32.3972 569.787C32.3167 569.407 32.3205 569.013 32.4085 568.633C32.4965 568.254 32.6665 567.9 32.9063 567.595C33.5598 566.569 33.8423 565.347 33.7062 564.136C33.7256 559.513 33.7008 554.89 33.7375 550.267C33.5721 548.958 33.67 547.628 34.0253 546.357H41.6472C42.9161 547.239 42.3534 548.936 43.6244 549.651C44.2141 548.605 44.1376 547.242 45.3547 546.116H56.0621L56.447 543.69C57.0507 542.942 58.1719 543.636 58.4953 542.65V529.522C57.7568 528.738 56.5904 528.542 56.1333 526.807V521.147C54.3846 520.147 52.4764 520.532 50.8184 519.812C50.2696 518.755 49.2293 517.93 49.3091 516.423L57.9196 513.525V508.455C60.6816 504.926 60.9943 500.862 63.5816 498.005C66.1517 495.16 69.1509 492.825 71.8935 490.231C71.6631 489.809 71.5936 489.316 71.6983 488.845C71.8029 488.375 72.0745 487.959 72.4617 487.677C77.6558 488.051 78.2002 482.898 80.655 479.378L81.0162 476.078C82.1093 477.533 81.7654 478.875 82.285 480.29C82.7536 480.514 83.1594 480.852 83.4656 481.274C83.7718 481.696 83.9685 482.188 84.038 482.707C84.2859 485.598 86.2858 486.619 88.6737 487.278C89.5112 487.37 90.2824 487.781 90.8298 488.428L90.9926 490.541C91.7386 491.173 92.4157 491.758 93.1067 492.327C97.5807 496.007 101.678 499.992 102.868 506.012C103.117 507.274 104.592 506.992 104.88 508.748V513.61L113.558 516.519C113.186 517.83 112.488 519.024 111.53 519.986C109.835 520.442 108.098 520.287 106.374 521.147V527.096C105.849 528.78 104.408 528.728 104.255 529.452V542.798C104.853 543.535 105.764 542.949 106.144 543.689C106.615 544.423 105.867 545.539 107.321 546.362H117.711C118.498 547.513 118.358 548.811 119.341 549.66C119.951 548.599 119.923 547.265 120.755 546.427H128.971C128.971 552.462 128.949 558.305 128.991 564.146C128.999 565.121 128.605 566.2 129.372 567.072C130.865 568.77 130.324 570.296 128.957 571.743C129.351 572.704 130.592 573.065 130.491 574.288C129.483 575.92 129.33 575.955 129.534 576.848C130.66 581.787 129.102 586.687 129.46 591.677C129.936 598.298 129.844 604.948 129.186 611.553C128.575 617.692 130.013 623.86 129.65 630.046C129.433 631.055 129.547 632.108 129.973 633.046C130.778 633.162 131.637 633.678 132.205 632.839C132.736 631.599 131.333 630.895 131.68 629.781C133.136 626.07 136.459 624.385 139.453 622.317C142.79 624.072 145.687 626.573 147.923 629.628C150.019 626.573 152.829 624.089 156.105 622.394C160.492 624.801 162.304 626.437 164.335 629.847C166.498 626.678 169.42 624.114 172.828 622.391C174.965 623.642 176.983 625.092 178.855 626.721C181.06 628.418 180.125 631.108 181.361 633.252C181.701 630.806 181.463 628.316 183.606 626.582C185.412 624.93 187.412 623.507 189.561 622.346C192.653 624.37 195.82 626.106 197.29 629.661C197.682 630.791 196.483 632.081 197.68 633.22C199.448 632.209 197.771 630.717 198.254 629.59C199.871 625.983 203.094 624.234 206.11 622.264C209.334 624.425 212.535 626.137 213.93 629.736C214.508 630.798 212.801 632.308 214.522 633.252C215.737 632.012 214.495 630.73 214.911 629.551C216.636 626.075 219.621 624.06 222.972 622.294C224.431 623.357 225.807 624.312 227.129 625.336C229.334 627.043 231.187 628.928 230.371 632.143C230.232 632.688 230.6 633.215 231.512 633.014C232.08 631.902 231.279 630.639 231.807 628.928C233.267 626.041 236.287 624.187 239.444 622.304C242.678 624.372 245.901 626.267 247.576 630.209C249.675 626.309 252.793 624.183 256.052 622.378C259.316 624.129 262.172 626.562 264.43 629.516C266.593 626.513 269.417 624.057 272.679 622.343C275.746 624.261 278.852 626.038 280.448 629.494C280.817 630.691 279.77 632.113 281.203 633.603C281.999 631.029 281.078 628.35 283.373 626.607C285.253 625.04 287.24 623.608 289.321 622.323L293.706 625.034C298.557 616.308 306.187 610.533 313.409 604.52C312.272 600.922 312.68 600.129 315.948 599.221C317.042 599 318.118 598.698 319.169 598.32C322.295 596.93 325.375 595.256 325.691 591.37C325.698 590.17 326.049 588.998 326.703 587.996C327.357 586.993 328.285 586.205 329.375 585.725C330.275 582.5 329.849 579.281 331.129 576C331.56 579.5 331.947 582.617 332.333 585.734C333.466 586.134 334.443 586.888 335.124 587.886C335.805 588.884 336.153 590.074 336.12 591.285C336.144 592.139 336.358 592.975 336.745 593.734C337.132 594.493 337.683 595.154 338.356 595.67C340.224 597.281 342.452 598.409 344.849 598.957C349.133 599.897 349.366 600.395 348.691 604.617C352.228 607.713 355.806 610.757 359.292 613.914C362.814 617.152 365.815 620.925 368.186 625.097C369.857 624.092 370.989 622.97 372.547 622.418C374.669 623.629 376.664 625.054 378.501 626.672C380.727 628.375 379.862 631.065 380.881 633.231C381.797 631.025 380.924 628.355 383.211 626.634C385.087 625.012 387.116 623.579 389.269 622.357C392.341 624.398 395.63 626.134 397.039 629.868C397.346 630.968 396.001 632.276 397.995 633.711C397.025 627.071 401.712 625.041 405.757 622.312C408.97 624.277 412.154 626.109 413.673 629.762C414.048 630.896 412.669 632.197 414.133 633.367C415.595 632.135 414.002 630.523 414.707 629.298C416.429 626.142 419.203 623.703 422.536 622.416C425.723 624.397 428.855 626.167 430.237 629.451C430.378 630.843 429.101 631.832 430.227 633.106C430.382 633.193 430.554 633.244 430.73 633.254C430.907 633.264 431.084 633.233 431.246 633.163C431.409 633.093 431.554 632.986 431.67 632.851C431.785 632.715 431.868 632.555 431.912 632.382C432.03 631.339 431.006 630.543 431.443 628.938C432.935 626.034 436.011 624.244 439.02 622.369C441.17 623.64 443.207 625.097 445.108 626.723C447.423 628.452 446.212 631.204 447.309 633.561C448.603 632.037 447.61 630.613 448.268 628.691C449.721 626.04 452.65 624.093 455.706 622.386C459.005 624.073 461.844 626.552 463.972 629.605C466.187 626.557 469.076 624.073 472.41 622.352C474.531 623.697 476.563 625.182 478.49 626.797C480.749 628.488 479.483 631.275 480.995 633.363C480.207 626.801 485.187 625.017 489.03 622.231C492.19 624.441 495.42 626.119 496.847 629.714C497.213 630.976 495.171 632.182 496.692 633.33C497.797 633.822 498.145 632.958 498.799 632.258C497.982 631.387 497.182 630.413 497.646 628.992C499.823 626.199 502.59 623.933 505.746 622.359C508.872 624.388 512.033 626.139 513.469 629.709C514.09 630.804 512.319 632.298 514.043 633.323C515.512 632.084 513.79 630.626 514.512 629.433C516.154 626.019 519.211 624.208 522.455 622.244C525.892 625.235 531.236 626.592 529.92 632.719C530.699 633.404 531.321 633.281 532.329 632.814C531.772 626.148 533.434 619.334 532.76 612.561C532.074 605.689 532.569 598.852 532.278 592.009C532.205 591.338 532.263 590.659 532.447 590.01C532.911 588.983 533.099 587.851 532.993 586.727C532.887 585.603 532.489 584.528 531.841 583.608C530.99 580.06 533.463 576.975 531.315 574.092C531.315 572.918 532.685 572.677 532.906 571.675C530.806 569.783 531.626 567.946 533.061 566.113C533.061 559.597 533.061 553.081 533.061 546.436C535.622 546.201 538.196 546.152 540.764 546.29C542.058 547.233 541.565 548.752 542.79 549.462C543.478 548.507 543.363 547.116 544.514 546.181H554.831C555.801 545.344 555.189 544.257 555.774 543.489C556.287 542.974 557.379 543.636 557.737 542.518V529.63L555.365 527.725V521.133C553.527 520.153 551.603 520.582 549.82 519.712C549.526 518.663 548.31 517.931 548.481 516.555C551.29 515.197 554.348 514.834 557.087 513.353V507.612C558.57 507.48 558.812 506.271 559.135 505.074C560.196 501.368 562.286 498.046 565.157 495.501C567.044 493.749 569.005 492.08 570.929 490.376C570.974 489.602 570.523 488.797 571.603 487.764C576.725 488.011 577.452 482.944 579.841 479.434C579.948 478.471 580.069 477.377 580.204 476.162C581.296 477.347 580.929 478.819 581.422 480.139C582.018 480.792 583.115 481.246 583.177 482.367C583.367 485.795 585.771 486.776 588.505 487.468C588.818 487.507 589.118 487.618 589.383 487.792C589.647 487.966 589.87 488.197 590.033 488.47C590.572 488.952 589.709 489.843 590.347 490.697C593.261 493.047 595.999 495.61 598.541 498.364C601.098 501.211 601.06 505.448 604.048 508.181V513.575L612.752 516.523C612.372 517.768 611.721 518.91 610.847 519.867C609.014 520.555 607.106 520.175 605.517 521.26V527.414C605.044 528.755 603.588 528.678 603.452 529.394V543.075C604.087 543.376 604.911 543.034 605.313 543.689C605.816 544.413 604.999 545.549 606.521 546.343H616.804C617.738 547.432 617.439 548.882 618.579 549.609C619.118 548.467 619.182 547.289 619.924 546.404H628.164V557.81C630.111 557.197 631.171 555.66 632.901 555.307C635.137 556.309 636.849 558.102 638.816 559.545C641.06 561.191 640.092 563.862 641.018 565.881C642.468 559.827 643.986 557.889 649.513 555.516C649.513 557.269 649.405 558.921 649.542 560.551C649.679 562.182 648.963 563.999 650.179 565.552C651.282 564.866 651.017 564.016 651.017 563.277C651.023 544.11 651.018 524.944 651.001 505.778C651.001 504.131 651.116 502.415 649.859 501.177C651.921 497.759 650.839 494.477 649.959 491.48C649.015 489.915 646.294 489.995 647.249 487.505C648.435 486.57 650.178 487.656 651.307 486.382C650.355 484.01 652.337 481.648 651.415 479.592C650.519 478.374 648.719 479.015 648.432 477.416C649.226 476.436 650.554 476.654 651.419 475.899C650.327 471.646 653.349 469.667 655.882 467.556C658.375 469.848 661.273 471.954 660.232 475.893C661.186 476.746 662.615 476.399 663.143 477.718C662.496 478.807 661.073 478.512 660.396 479.277C659.496 481.859 661.324 484.27 660.344 486.62C661.746 487.42 663.255 486.625 664.365 487.585C664.065 489.436 664.065 489.436 661.695 491.354C660.159 496.541 660.154 498.196 661.664 501.253C660.269 503.71 659.925 562.297 661.696 565.381V552.167C662.491 551.195 663.719 551.676 663.839 550.099C663.839 547.102 663.672 543.597 663.886 540.116C663.964 536.698 663.409 533.296 662.248 530.084C663.422 529.408 664.609 530.028 665.687 529.556C666.511 528.032 666.212 525.835 668.298 525.158C666.681 520.319 668.443 517.169 672.602 514.455C673.454 513.773 672.477 512.565 673.56 511.939C674.516 512.576 673.525 513.968 674.689 514.699C678 516.454 680.284 519.857 678.754 525.529C680.415 525.128 680.2 526.791 681.258 528.1C680.719 526.042 682.305 525.906 682.798 524.96C681.24 520.127 683.247 516.824 686.979 514.566C688.085 513.86 686.871 512.371 688.216 511.984C689.014 512.79 688.183 513.912 689.087 514.623C692.884 516.782 694.966 520.304 693.291 525.303C694.271 525.733 695.301 526.208 695.579 527.534C695.319 525.979 696.958 525.893 697.551 524.656C695.373 521.338 697.521 518.656 699.832 515.597L702.674 514.148L705.99 515.89C708.577 520.947 708.577 520.947 708.038 525.294C709.379 526.647 710.654 525.875 712.174 525.289C710.032 520.09 712.596 516.908 716.71 514.194C716.731 501.726 717.572 489.165 716.043 476.424C707.366 475.746 699.501 480.817 690.911 479.462V465.706C699.613 467.992 707.479 463.028 716.06 464.157C715.764 462.542 715.982 460.874 716.683 459.393ZM573.662 542.905C578.386 545.174 582.902 545.365 587.321 542.834V529.337C586.672 529.049 586.097 528.615 585.641 528.068C585.184 527.521 584.857 526.875 584.687 526.18C584.392 525.317 583.827 524.574 583.077 524.064C582.327 523.554 581.432 523.306 580.529 523.356C579.625 523.284 578.724 523.52 577.969 524.028C577.214 524.535 576.651 525.284 576.368 526.154C575.851 527.563 574.903 528.769 573.661 529.597L573.662 542.905ZM1359.97 529.273C1358.37 528.843 1357.84 527.592 1357.34 526.161C1357.04 525.301 1356.47 524.564 1355.72 524.06C1354.97 523.557 1354.07 523.315 1353.17 523.371C1352.27 523.286 1351.37 523.511 1350.61 524.008C1349.85 524.506 1349.28 525.247 1348.99 526.113C1348.54 527.548 1347.59 528.766 1346.31 529.539V543.195C1347.75 542.74 1348.36 544.04 1349.34 544.515C1353.01 544.252 1356.83 545.467 1359.97 542.572L1359.97 529.273ZM88.1885 529.361C87.5304 529.084 86.9467 528.653 86.485 528.105C86.0233 527.556 85.6968 526.905 85.5322 526.204C85.2345 525.345 84.6702 524.605 83.923 524.095C83.1759 523.586 82.2857 523.333 81.3849 523.374C80.4833 523.277 79.5759 523.495 78.8145 523.992C78.0531 524.489 77.4838 525.235 77.202 526.105C76.7467 527.54 75.7883 528.757 74.5068 529.529V543.031C75.0701 543.054 75.6217 543.2 76.1241 543.458C76.6264 543.717 77.0676 544.081 77.4176 544.528C81.1908 544.265 85.005 545.421 88.1885 542.596V529.361ZM847.159 542.996C847.708 543.01 848.246 543.154 848.729 543.418C849.213 543.681 849.628 544.056 849.941 544.511C853.745 544.299 857.545 545.355 860.772 542.649V529.399C860.145 529.093 859.589 528.657 859.139 528.12C858.689 527.582 858.356 526.956 858.161 526.28C857.904 525.405 857.364 524.641 856.626 524.112C855.888 523.583 854.996 523.32 854.093 523.363C853.192 523.276 852.288 523.492 851.52 523.976C850.753 524.46 850.165 525.186 849.848 526.042C849.41 527.491 848.448 528.72 847.153 529.486L847.159 542.996ZM1362.37 529.361V542.375C1364.85 545.123 1367.79 544.398 1370.76 544.506C1371.09 544.049 1371.52 543.677 1372.02 543.422C1372.52 543.167 1373.07 543.035 1373.63 543.038V529.372C1370.38 528.828 1371.57 523.779 1367.95 523.453C1364.55 524.162 1365.41 528.529 1362.37 529.361H1362.37ZM101.746 529.406C98.7277 528.414 99.5729 523.798 95.9377 523.436C92.766 524.331 93.4678 528.61 90.5711 529.505V543.056C91.127 543.07 91.6731 543.206 92.1717 543.455C92.6702 543.704 93.1092 544.059 93.4581 544.496H99.0318C99.2571 543.144 100.732 543.493 101.747 542.814L101.746 529.406ZM600.933 529.324C597.822 528.542 598.848 523.76 595.127 523.456C591.938 524.345 592.632 528.626 589.786 529.564V542.932C596.054 545.268 595.86 545.161 600.934 542.605L600.933 529.324ZM868.842 523.42C865.405 524.207 866.116 528.583 863.207 529.48V542.816C869.192 545.154 868.588 545.319 874.397 542.728V529.46C871.628 528.41 872.101 524.424 868.838 523.42H868.842ZM60.8293 542.922C67.3657 545.223 66.6919 545.198 72.0908 542.678V529.399C69.1121 528.515 69.9002 524.048 66.3609 523.412C63.0943 524.266 63.6496 528.598 60.8293 529.673V542.922ZM565.535 523.449C562.262 524.223 562.995 528.594 560.095 529.487V542.805C566.38 545.503 566.322 544.982 571.269 542.66V529.281C568.102 528.641 569.194 523.819 565.534 523.45L565.535 523.449ZM844.747 529.311C841.56 528.578 842.639 523.708 838.889 523.479C835.674 524.35 836.378 528.656 833.555 529.535V542.814C837.429 545.252 841.102 545.175 844.747 542.681V529.311ZM1335.57 544.431C1338.7 544.7 1341.48 544.669 1343.87 542.629V529.369C1340.88 528.534 1341.76 523.953 1338.22 523.471C1334.84 524.202 1335.62 528.633 1332.69 529.517V543.096C1333.24 543.086 1333.79 543.2 1334.28 543.431C1334.78 543.663 1335.22 544.005 1335.57 544.432L1335.57 544.431ZM708.608 551.288C708.547 547.457 709.2 543.9 707.663 540.455C706.509 537.868 704.636 536.345 702.165 536.305C699.732 536.267 697.721 537.811 696.608 540.355C695.058 543.896 695.415 547.525 695.728 551.288H708.608ZM710.703 551.134H723.813C723.744 545.267 724.966 539.218 718.359 536.228C714.594 536.252 712.51 537.975 711.311 541.57C710.225 544.818 710.94 547.912 710.702 551.129L710.703 551.134ZM693.467 551.287C693.367 547.418 694.013 543.851 692.521 540.394C692.108 539.23 691.361 538.217 690.374 537.485C689.387 536.754 688.206 536.336 686.982 536.287C685.762 536.331 684.583 536.745 683.599 537.476C682.616 538.206 681.872 539.219 681.467 540.382C679.958 543.921 680.435 547.544 680.611 551.287H693.467ZM754.089 551.31C754.01 549.54 754.021 547.767 754.123 545.998C754.218 543.76 753.69 541.54 752.6 539.589C752.185 538.606 751.489 537.769 750.602 537.186C749.714 536.602 748.674 536.299 747.615 536.315C746.5 536.269 745.396 536.56 744.446 537.151C743.496 537.743 742.742 538.608 742.283 539.635C740.405 543.363 740.711 547.315 741.097 551.31H754.089ZM738.843 551.273C738.779 547.381 739.389 543.798 737.863 540.358C736.734 537.813 734.818 536.33 732.309 536.33C729.799 536.33 727.919 537.844 726.81 540.436C725.287 543.988 725.901 547.609 725.878 551.27L738.843 551.273ZM678.415 551.25C678.307 547.332 678.954 543.755 677.337 540.328C676.133 537.786 674.34 536.322 671.826 536.337C669.33 536.352 667.513 537.843 666.342 540.408C664.736 543.928 665.204 547.526 665.396 551.25H678.415ZM769.035 551.223C769.101 547.55 769.642 544.017 768.197 540.57C767.08 537.9 765.233 536.361 762.807 536.316C760.173 536.267 758.178 537.811 757.022 540.533C755.559 543.981 756.139 547.521 756.154 551.223H769.035ZM667.481 555.766C668.821 556.807 669.898 558.152 670.625 559.692C671.352 561.233 671.708 562.925 671.664 564.631C671.697 570.242 671.664 575.854 671.687 581.465C671.687 582.157 671.354 583.169 672.77 583.132C673.729 582.282 673.24 581.089 673.254 580.057C673.311 575.905 673.372 571.748 673.238 567.6C673.094 563.177 673.537 559.015 677.358 555.766H667.481ZM682.419 555.835C685.45 558.556 686.55 560.985 686.554 564.629C686.561 569.799 686.523 574.969 686.564 580.137C686.572 581.152 686.167 582.338 687.211 583.294C688.754 582.44 688.211 581.067 688.223 579.99C688.278 575.272 688.287 570.55 688.18 565.832C688.093 561.996 689.052 558.635 692.244 555.839L682.419 555.835ZM697.548 555.847C700.714 558.77 701.654 562.23 701.537 566.187C701.396 571.136 701.476 576.092 701.525 581.043C701.533 581.788 701.037 582.956 702.689 583.121C703.466 582.372 703.143 581.312 703.148 580.385C703.177 575.546 703.248 570.703 703.123 565.867C702.98 564.005 703.262 562.134 703.946 560.398C704.63 558.662 705.699 557.107 707.07 555.853L697.548 555.847ZM727.411 555.824C728.728 557.039 729.767 558.53 730.455 560.193C731.142 561.855 731.462 563.649 731.392 565.449C731.309 570.739 731.363 576.03 731.4 581.321C731.4 581.989 730.969 582.999 732.282 583.103C733.319 582.538 732.871 581.528 732.88 580.721C732.924 576.105 733.005 571.487 732.872 566.875C732.754 562.739 733.447 558.973 736.93 555.824H727.411ZM742.215 555.783C743.533 556.934 744.58 558.368 745.28 559.98C745.98 561.592 746.316 563.341 746.262 565.1C746.197 570.389 746.226 575.679 746.262 580.969C746.262 581.754 745.831 582.819 747.296 583.2C748.192 582.338 747.889 581.172 747.894 580.127C747.914 576.414 747.934 572.699 747.862 568.986C747.769 564.227 747.621 559.478 751.866 555.783H742.215ZM761.789 583.258C763.299 582.571 762.788 581.415 762.796 580.505C762.843 575.444 762.884 570.382 762.806 565.323C762.698 563.57 762.989 561.815 763.655 560.193C764.322 558.57 765.347 557.123 766.653 555.962H757.21C758.493 557.024 759.516 558.37 760.199 559.897C760.881 561.424 761.205 563.09 761.144 564.764C761.125 569.937 761.115 575.112 761.164 580.284C761.171 581.213 760.757 582.288 761.788 583.254L761.789 583.258Z" fill="url(#paint4_linear)"/>
<path d="M1043.43 863.955C1005.49 862.419 967.549 874.21 967.549 874.21C966.84 873.497 966.2 872.716 965.64 871.878L981.552 869.211C960.258 774.622 855.732 723.864 855.732 723.864C855.732 723.864 856.103 738.204 856.627 758.441C839.067 715.74 776.357 651.564 743.72 629.658C752.935 642.983 763.727 663.117 774.23 686.559C755.757 651.432 727.39 627.346 727.39 627.346C725.869 631.95 723.929 636.402 721.596 640.646C720.644 638.703 719.562 636.829 718.356 635.036L717.196 633.529L716.001 635.036C714.766 636.785 713.659 638.623 712.689 640.535C710.395 636.32 708.48 631.905 706.968 627.345C706.968 627.345 676.027 653.616 657.737 691.302C668.898 665.838 680.523 643.867 690.353 629.651C657.715 651.558 595.006 715.732 577.447 758.433C577.97 738.197 578.34 723.858 578.34 723.858C578.34 723.858 473.812 774.613 452.52 869.204L468.433 871.878L466.816 874.21C466.816 874.21 428.876 862.419 390.937 863.955C417.502 893.272 426.233 921.596 426.995 924.196H406.454V942.915H1025.88V924.193H1007.37C1008.13 921.596 1016.86 893.274 1043.43 863.955Z" fill="url(#paint5_linear)"/>
<path d="M383.418 903.567V870.891H390.372V861.253H383.418V793.855H390.372V784.216H383.418V751.306H390.372V741.667H383.418V654.488H395.564V640.693H383.418V610.409H376.964V593.554H357.217V562.892H354.565V549.882H318.311V544.133H310.218C300.315 539.317 277.353 535.272 277.353 535.272V528.95H257.137V535.272C257.137 535.272 234.165 539.323 224.272 544.133H216.186V549.882H179.93V562.891H177.271V593.553H157.531V610.408H151.081V640.692H138.926V654.488H151.081V741.667H147.399V751.306H151.081V784.213H147.399V793.855H151.081V861.256H147.399V870.895H151.081V903.571H129.126V920.535H405.363V903.567H383.418ZM314.128 741.667H311.404V751.306H314.128V784.213H311.404V793.855H314.128V861.256H311.404V870.895H314.128V903.571H221.495V870.895H226.365V861.256H221.495V793.855H226.365V784.216H221.495V751.306H226.365V741.667H221.495V732.747C221.495 707.495 242.337 686.83 267.811 686.83C293.285 686.83 314.127 707.48 314.127 732.747L314.128 741.667Z" fill="url(#paint6_linear)"/>
<path d="M1393.76 879.214V797.788C1393.76 797.291 1393.79 796.793 1393.85 796.299L1393.69 796.154C1393.61 794.225 1394.18 792.326 1395.32 790.771C1394 788.499 1396.31 787.192 1396.71 785.234C1395.16 784.798 1396.19 783.134 1395.33 782.492L1396.67 779.236C1397.33 779.097 1397.93 778.743 1398.38 778.227C1398.83 777.711 1399.1 777.061 1399.15 776.377C1400.38 776.026 1401.52 775.653 1402.68 775.382C1403.98 775.077 1405.34 774.916 1406.01 773.502C1406.82 772.73 1406.32 772.139 1405.71 771.473C1404.2 771.57 1402.7 771.142 1401.47 770.261C1400.85 769.773 1400.13 769.435 1399.36 769.271C1398.6 769.108 1397.8 769.124 1397.05 769.318C1396.44 768.141 1394.67 768.86 1394.15 767.648C1394.23 766.451 1395.59 766.731 1395.87 765.934C1396.68 763.983 1394.35 764.252 1394 763.357C1393.84 762.176 1395.01 762.074 1395.2 761.309L1395.15 761.299C1395.65 761.454 1395.89 761.201 1395.99 760.746C1396.08 760.224 1395.97 759.687 1395.67 759.249C1395.37 758.81 1394.92 758.506 1394.41 758.401C1394.49 757.748 1396.26 757.991 1395.29 756.768C1396.15 755.22 1395.43 753.681 1395.45 751.948C1393.65 751.948 1392.05 751.962 1390.45 751.943C1389.62 751.933 1388.7 752.067 1388.39 750.957C1388.37 750.743 1388.34 750.53 1388.32 750.316C1388.28 749.81 1388.34 749.301 1388.5 748.822C1388.67 748.343 1388.93 747.904 1389.28 747.533L1388.35 746.227C1388.52 745.156 1387.48 744.783 1387.1 743.952L1385.49 743.843L1385.39 743.788C1385.5 742.699 1384.51 742.264 1384.09 741.502L1381.28 740.607C1381.25 739.57 1380.48 738.842 1379.72 737.981C1378.75 737.921 1377.8 737.702 1376.9 737.333C1375.51 734.48 1372.95 733.753 1370.31 733.153C1370.45 732.841 1370.64 732.524 1370.25 732.247L1369.1 731.795L1368.25 730.694C1367.21 729.583 1367.77 727.732 1366.49 726.767C1365.19 727.759 1365.95 729.591 1364.79 730.611C1365.49 730.816 1366.23 730.857 1366.95 730.733C1366.23 730.857 1365.49 730.815 1364.79 730.611L1363.69 732.081C1363.27 732.284 1362.62 732.117 1362.51 732.819L1361.97 733.335C1359.77 732.954 1359.5 730.512 1357.8 729.442C1359.08 727.956 1357.25 727.254 1356.9 726.056C1357.08 727.332 1354.8 727.924 1356.14 729.371L1351.95 734.772L1350.96 735.302C1350.06 735.392 1350.21 734.332 1350.04 734.431C1348.21 735.972 1347.97 738.052 1345.93 739.244V734.004L1345.5 733.242C1345.51 732.549 1345.53 731.857 1345.55 731.164C1345.84 731.164 1345.87 730.956 1345.88 730.715C1344.84 729.913 1345.55 728.8 1345.37 727.842C1347.05 724.377 1350.99 723.224 1353.21 720.379C1353.09 719.291 1352.99 718.318 1352.86 717.164L1349.69 718.323C1346.96 716.697 1346.29 713.497 1343.86 711.444C1342.56 712.049 1341.34 711.484 1340.37 710.081C1340.62 709.641 1340.77 709.144 1340.79 708.635C1340.81 708.125 1340.7 707.618 1340.48 707.161L1338.61 707.631C1337.66 707.065 1336.55 706.938 1335.74 706.126C1335.03 704.038 1334.69 701.927 1335.85 699.824L1334.18 697.073C1334.29 696.393 1335.93 695.491 1333.83 694.921C1333.85 695.999 1333.92 697.136 1332.41 697.034C1331.62 696.694 1330.92 696.179 1330.36 695.526C1329.79 694.874 1329.38 694.102 1329.15 693.266L1327.06 692.878C1324.55 689.143 1321.17 686.144 1318.24 682.755C1317.24 682.113 1316.26 681.436 1315.24 680.832C1311.69 678.606 1308.03 676.562 1304.28 674.707C1302.92 673.183 1300.94 672.707 1299.25 671.747L1298.19 670.452C1298.58 669.961 1299.06 669.511 1298.96 668.742C1298.8 668.283 1298.55 667.86 1298.23 667.5C1297.91 667.139 1297.51 666.847 1297.08 666.642L1295.01 665.076L1294.24 664.597C1294.19 663.726 1292.98 663.737 1292.86 662.63C1295.02 661.988 1295.78 660.334 1295.62 658.031C1295.23 657.722 1294.94 657.311 1294.78 656.844C1294.61 656.377 1294.58 655.872 1294.68 655.387C1292.24 654.549 1293.01 651.393 1290.88 650.362C1290.63 650.407 1290.4 650.526 1290.23 650.703C1290.05 650.881 1289.93 651.109 1289.88 651.358C1289.78 651.447 1289.68 651.537 1289.57 651.629C1289.01 652.486 1288.69 653.488 1288.66 654.519C1288.06 655.13 1288.26 655.467 1287.93 655.48L1287.92 655.295L1287.89 655.481C1287.1 655.643 1287.02 656.092 1287.39 656.723C1287.32 656.983 1287.24 657.244 1287.17 657.506C1285.75 659.072 1286.19 660.52 1288.89 663.067L1287.72 664.494L1287.8 664.511C1287.74 664.495 1287.69 664.497 1287.64 664.519C1287.59 664.54 1287.55 664.578 1287.52 664.626C1286.03 665.378 1284.69 666.405 1283.57 667.653C1282.89 668.3 1282.11 669.177 1283.43 670.048L1283.97 670.822C1282.77 671.63 1281.24 671.966 1280.39 673.281C1274.17 677.179 1267.37 680.176 1261.89 685.222C1261.31 685.575 1260.91 684.628 1259.8 685.339C1258.45 687.407 1258.35 691.188 1255.25 691.979C1254.16 692.547 1253.91 691.336 1253.16 692.078L1252.77 693.77C1252.59 693.668 1252.44 693.522 1252.34 693.347C1252.24 693.171 1252.18 692.972 1252.17 692.768C1251.68 690.482 1253.16 689.181 1254.38 687.53C1257.35 683.503 1259.96 679.224 1262.72 675.043C1262.98 674.785 1263.17 674.45 1263.24 674.084C1263.32 673.717 1263.28 673.336 1263.14 672.991C1259.63 673.483 1256.75 671.259 1253.63 670.575C1253.2 669.051 1255.5 667.201 1252.59 666.633C1252.46 666.301 1252.33 665.968 1252.2 665.636C1252.53 664.531 1253.88 663.825 1253.46 662.423H1253.44C1254.05 662.423 1253.97 661.93 1254.06 661.544C1254.01 660.156 1252.89 660.11 1251.97 660.02C1250.31 659.863 1248.64 659.864 1246.98 659.802C1246.94 658.983 1247.21 658.127 1246.76 657.427C1246.22 656.846 1245.42 657.427 1244.79 656.588C1243.46 654.4 1242.04 651.893 1239.39 650.461V650.474C1239.33 650.311 1239.21 650.177 1239.06 650.099C1238.91 650.021 1238.73 650.004 1238.56 650.053C1238.56 649.762 1238.38 649.668 1238.13 649.64C1238.04 649.456 1237.89 649.311 1237.7 649.231C1237.51 649.151 1237.3 649.141 1237.11 649.205C1237.11 649.192 1237.11 649.18 1237.11 649.167C1236.87 648.439 1236.2 648.306 1235.59 648.078C1234.11 647.49 1232.62 646.901 1231.14 646.312C1231.37 645.894 1231.78 645.518 1231.36 644.82C1230.54 644.142 1229.04 644.058 1228.52 642.406C1229.67 641.055 1227.79 640.373 1227.53 638.997C1225.73 640.901 1226.86 644.548 1223.84 644.722C1222.83 645.528 1223.86 646.066 1223.27 646.707C1219.93 647.632 1216.82 649.235 1214.11 651.418C1213.79 650.634 1214.43 650.101 1213.92 649.389L1212.18 648.17C1211.01 645.505 1213.02 643.405 1213.01 641.249C1210.21 638.189 1206.34 636.242 1205.99 631.671C1204.75 632.13 1205.98 633.303 1204.54 633.566C1203.4 631.841 1202.37 630.038 1201.47 628.169C1197.2 625.121 1194.36 621.794 1191.1 618.975L1189.53 619.091C1189.31 618.752 1189.02 618.462 1188.69 618.237C1188.36 618.013 1187.98 617.859 1187.59 617.785C1185.3 616.191 1182.82 614.896 1180.21 613.934C1177.12 612.859 1173.67 612.722 1171.05 610.427C1173.49 608.25 1173.39 607.112 1170.61 605.333C1170.61 605.333 1167.98 603.906 1167.84 603.802C1167.99 602.883 1167.07 602.412 1167 601.476C1167.84 600.786 1168.49 599.896 1168.91 598.886C1169.32 597.876 1169.48 596.777 1169.37 595.69C1168.46 594.961 1167.69 594.065 1167.1 593.048C1166.48 592.227 1166.67 590.916 1165.49 590.487C1165.51 588.614 1164.37 586.514 1163.34 586.593C1163.06 586.7 1162.81 586.872 1162.62 587.097C1162.42 587.321 1162.28 587.59 1162.21 587.881C1162.66 588.099 1162.05 590.154 1161.62 589.601C1160.54 590.638 1160.63 592.199 1159.82 593.322C1160.3 593.299 1158.26 595.383 1157.66 595.508C1157.06 596.985 1158 598.384 1157.18 599.788C1157.18 599.788 1159.17 601.389 1158.36 601.474C1158.57 602.285 1157.75 602.551 1157.44 603.081C1157.44 603.602 1158.34 603.398 1158.06 604.135C1156.09 604.948 1154.28 606.057 1153.71 608.287C1153.8 608.618 1153.96 608.926 1154.18 609.189C1154.4 609.451 1154.68 609.664 1154.99 609.811C1155.05 609.909 1155.13 609.997 1155.23 610.073C1155.14 610.892 1154.48 611.161 1153.9 611.578C1152.5 612.413 1150.94 612.924 1149.33 613.075C1145.05 613.848 1141.72 616.699 1137.8 618.242C1137.12 618.508 1136.45 619.193 1135.7 618.366C1135.9 618.005 1136.55 617.713 1135.77 617.144C1135.23 617.47 1134.48 617.688 1135.44 618.476C1135.43 618.826 1135.35 619.17 1135.19 619.481C1135.03 619.792 1134.8 620.063 1134.52 620.273C1132.18 622.252 1129.84 624.233 1127.52 626.243C1127.25 626.5 1126.9 626.672 1126.54 626.742C1126.17 626.811 1125.79 626.775 1125.44 626.636C1125.04 628.065 1124.9 629.646 1123.26 630.262C1122.96 632.49 1122.87 632.593 1121.35 632.575C1121.46 632.239 1122.02 632.021 1121.54 631.435C1121.02 631.742 1120.25 631.824 1120.83 632.778C1120.09 633.514 1119.4 634.307 1118.78 635.149C1117.49 637.189 1114.62 637.927 1114.22 640.683C1113.05 642.493 1114.37 644.003 1114.81 645.624C1114.83 645.973 1114.76 646.906 1114.73 647.419C1113.96 647.908 1113.28 648.538 1112.73 649.278C1112.16 649.672 1112.88 650.384 1112.25 650.892C1110.05 648.859 1107.38 647.421 1104.48 646.711L1103.07 646.375L1102.32 646.048C1102.58 645.504 1103.12 645.026 1102.7 644.374C1102.25 643.899 1101.65 643.594 1101 643.509C1099.7 642.163 1100.52 639.836 1098.45 638.343C1098.55 639.554 1098.31 640.769 1097.74 641.842C1097.18 642.916 1096.32 643.803 1095.27 644.399C1095.19 644.421 1095.11 644.457 1095.04 644.508C1094.59 644.873 1094.82 645.179 1095.12 645.476L1095.22 645.607L1094.97 646.19C1092.15 646.542 1089.5 647.747 1087.38 649.646C1084.17 650.458 1083.05 653.346 1081.29 655.782C1080.87 656.188 1079.99 656 1079.5 656.791L1079.05 658.399C1076.89 659.255 1074.46 658.336 1072.58 659.611C1072.36 659.872 1072.24 660.203 1072.24 660.546C1072.23 660.889 1072.35 661.222 1072.56 661.487C1072.6 662.194 1072.9 662.86 1073.41 663.343C1073.53 663.953 1073.92 664.527 1073.63 665.249C1072.88 665.874 1071.42 666.257 1072.5 667.768C1072.57 668.159 1072.65 668.55 1072.72 668.942C1072.3 670.059 1071.26 670.139 1070.32 670.315C1069.47 670.468 1068.63 670.54 1068.16 671.397C1066.57 672.304 1064.67 671.341 1063.09 672.119C1063.04 672.386 1062.95 672.562 1063 672.651C1065.89 677.493 1068.8 682.329 1071.71 687.16C1072.09 687.792 1072.61 688.056 1073.28 687.513C1073.63 689.307 1073.66 691.148 1073.39 692.955C1073.41 693.045 1073.43 693.137 1073.43 693.23C1073.43 693.264 1073.35 693.297 1073.3 693.329L1073.37 692.996C1071.8 692.897 1073.52 691.094 1072.59 690.948C1071.74 690.667 1071.48 691.504 1071.03 691.115C1067.17 689.958 1067.32 685.849 1065.38 683.248L1063.97 683.82C1062.05 682.657 1060.9 680.584 1058.6 680.18C1058.54 679.995 1058.55 679.716 1058.43 679.635C1054.05 676.921 1049.66 674.219 1045.27 671.529C1044.56 670.45 1043.08 670.332 1042.38 669.222C1042.66 669.017 1042.89 668.744 1043.03 668.427C1043.18 668.111 1043.24 667.762 1043.22 667.414C1042.63 666.233 1041.62 665.319 1040.39 664.855C1040.38 664.866 1040.36 664.876 1040.34 664.888C1040.16 663.943 1039.3 663.68 1038.64 663.227C1038.77 662.196 1037.38 661.941 1037.44 660.891C1038.35 660.495 1039.11 659.813 1039.61 658.947C1040.1 658.081 1040.31 657.076 1040.2 656.082C1039.66 655.278 1038.9 654.512 1039.28 653.299C1036.91 652.357 1037.84 649.237 1035.63 648.092L1034.87 648.974C1035.37 649.35 1033.79 652.944 1032.99 653.39C1032.47 653.457 1031.87 653.417 1031.89 654.211C1031.86 655.199 1030.39 655.676 1030.96 657.017C1031.04 656.971 1031.14 656.955 1031.23 656.972C1031.33 656.988 1031.41 657.036 1031.48 657.108C1031.54 657.179 1031.58 657.271 1031.59 657.368C1031.6 657.464 1031.57 657.561 1031.52 657.642C1030.79 658.948 1031.61 659.466 1032.65 659.874H1032.64C1032.51 660.272 1032.9 660.327 1033.07 660.527C1032.6 662.503 1031.08 663.611 1029.55 664.684C1028.32 665.383 1027.37 666.499 1026.87 667.834C1026.75 668.251 1027.73 668.613 1027.4 669.28C1026.6 670.12 1024.98 669.993 1024.89 671.565L1024.64 672.028L1024.56 671.972L1023.87 671.667C1023.35 671.696 1022.84 671.889 1022.43 672.219C1022.02 672.549 1021.72 672.999 1021.57 673.508C1019.01 674.733 1016.3 675.673 1013.96 677.355C1012.29 678.563 1010.68 679.905 1008.53 680.196C1006.78 680.43 1006.71 682.331 1005.51 683.218C1003.31 684.886 1001.48 686.999 1000.14 689.422L999.62 689.834C998.964 690.913 997.658 690.717 996.688 691.29L994.335 694.631L993.76 694.754L992.69 694.762C992.599 694.691 992.495 694.64 992.385 694.611C992.208 694.313 992.032 694.016 991.856 693.719C992.114 693.4 992.108 693.133 991.64 692.91C991.239 693.219 990.493 693.31 990.926 694.156C991.435 695.591 989.39 696.643 990.328 698.143L990.391 698.127L990.918 698.715L990.881 698.738C990.006 700.249 990.834 702.059 989.879 703.817C989.291 704.646 988.089 704.905 986.985 705.327L985.424 704.905C985.359 705.279 985.316 705.545 985.265 705.814C984.618 706.678 985.373 707.801 984.75 708.673L982.702 709.233C982.235 709.109 981.81 709.073 981.696 709.703C981.249 709.973 980.803 710.245 980.358 710.518L979.969 710.691C979.505 711.284 979.126 711.94 978.843 712.64C978.089 714.031 977.2 715.383 975.286 715.284C973.371 714.574 973.369 714.574 972.939 714.859C972.526 715.755 972.385 716.753 972.531 717.73C973.375 719.407 975.072 720.066 976.495 721.056L977.921 722.706C978.294 723.226 978.834 723.147 979.366 723.106C979.407 723.854 979.629 724.58 980.013 725.222C980.414 725.689 980.638 726.284 980.644 726.903C980.651 727.521 980.439 728.121 980.047 728.596C980.136 729.179 980.224 729.762 980.31 730.349C979.599 732.481 979.507 734.774 980.045 736.958C979.558 736.427 978.633 736.858 978.179 736.061C978.061 735.34 977.927 734.537 977.769 733.578C976.465 733.44 976.362 732.066 975.506 730.947C975.382 731.633 975.042 732.259 974.535 732.732L973.519 732.455C972.441 730.475 970.513 729.135 969.548 727.02L970.238 725.904C969.552 725.061 969.035 724.091 968.715 723.049C968.546 724.709 966.99 725.73 967.936 727.209C967.519 727.862 966.582 727.94 966.535 728.8C965.518 729.836 964.353 730.713 963.079 731.402C960.291 730.45 960.168 727.658 959.126 725.344C958.275 726.851 958.468 728.51 957.436 729.698C956.023 730.334 954.99 731.789 953.22 731.657C953.15 731.642 953.077 731.647 953.009 731.67L950.5 732.235C949.706 732.808 949.164 733.671 948.99 734.64C947.997 735.045 946.935 735.253 945.864 735.253L943.791 737.467C943.43 737.31 943.186 737.374 943.144 737.814C940.636 739.818 937.047 740.753 936.352 744.697C936.719 745.217 936.923 745.835 936.941 746.472C936.958 747.11 936.787 747.739 936.449 748.278L934.996 748.983L933.717 748.841L931.971 748.992C931.685 748.874 931.374 748.833 931.068 748.874C930.762 748.914 930.472 749.035 930.227 749.224C929.835 749.966 929.6 750.783 929.539 751.622C929.478 752.462 929.591 753.304 929.871 754.097L930.642 754.766C930.129 755.882 928.048 756.784 930.159 758.26L931.021 758.785C931.118 758.947 931.177 759.129 931.193 759.318C931.209 759.506 931.183 759.696 931.116 759.873C931.049 760.05 930.943 760.209 930.806 760.338C930.668 760.467 930.504 760.563 930.325 760.618C929.512 761.006 928.986 761.598 929.487 762.577C929.82 763.339 930.673 763.243 931.224 763.648L932.566 763.337L931.225 763.648C931.207 764.846 930.006 764.846 929.407 765.453C928.718 765.772 927.972 765.949 927.215 765.973C926.271 766.059 925.237 766.114 924.755 767.192L924.648 767.292L924.69 767.433C923.029 768.212 921.194 767.868 919.473 768.251C919.282 768.777 919.27 769.352 919.441 769.884C920.465 772.009 922.698 771.724 924.455 772.38C925.425 772.742 926.611 772.825 926.445 774.328C926.557 774.726 926.799 775.073 927.132 775.314C927.465 775.555 927.869 775.674 928.277 775.653C929.356 777.804 930.535 779.951 929.463 782.456C929.089 783.334 929.737 783.744 930.097 784.306C930.136 784.544 930.175 784.783 930.214 785.023C930.257 786.39 929.308 787.955 931.004 788.993C931.001 789.071 931.022 789.147 931.064 789.211C931.18 791.408 931.179 797.266 931.179 798.028V879.177L1393.76 879.214ZM1058.62 681.035L1059.03 681.454L1058.62 681.035C1058.62 680.757 1058.61 680.48 1058.6 680.202C1058.61 680.48 1058.62 680.757 1058.62 681.035Z" fill="url(#paint7_linear)"/>
</g>
<defs>
<linearGradient id="paint0_linear" x1="717.5" y1="-54.5869" x2="717.5" y2="925.993" gradientUnits="userSpaceOnUse">
<stop stop-color="#1BCEFF"/>
<stop offset="0.617" stop-color="#0E7AD0"/>
<stop offset="1" stop-color="#1F5AB1"/>
</linearGradient>
<linearGradient id="paint1_linear" x1="716.965" y1="678.133" x2="716.965" y2="85.5945" gradientUnits="userSpaceOnUse">
<stop stop-color="#425476" stop-opacity="0"/>
<stop offset="0.029" stop-color="#0F4FB5" stop-opacity="0.047"/>
<stop offset="0.188" stop-color="#0E6FC8" stop-opacity="0.298"/>
<stop offset="0.344" stop-color="#0C8AD9" stop-opacity="0.51"/>
<stop offset="0.43" stop-color="#0B97E0" stop-opacity="0.612"/>
<stop offset="0.495" stop-color="#0BA1E6" stop-opacity="0.686"/>
<stop offset="0.64" stop-color="#0BB3F1" stop-opacity="0.824"/>
<stop offset="0.775" stop-color="#0ABFF8" stop-opacity="0.922"/>
<stop offset="0.899" stop-color="#0AC7FD" stop-opacity="0.98"/>
<stop offset="1" stop-color="#0ACAFF"/>
</linearGradient>
<linearGradient id="paint2_linear" x1="1193.84" y1="809.18" x2="1193.84" y2="275.893" gradientUnits="userSpaceOnUse">
<stop stop-color="#1049B2" stop-opacity="0"/>
<stop offset="0.029" stop-color="#0F4FB5" stop-opacity="0.047"/>
<stop offset="0.188" stop-color="#0E6FC8" stop-opacity="0.298"/>
<stop offset="0.344" stop-color="#0C8AD9" stop-opacity="0.51"/>
<stop offset="0.495" stop-color="#0BA1E6" stop-opacity="0.686"/>
<stop offset="0.64" stop-color="#0BB3F1" stop-opacity="0.824"/>
<stop offset="0.775" stop-color="#0ABFF8" stop-opacity="0.922"/>
<stop offset="0.899" stop-color="#0AC7FD" stop-opacity="0.98"/>
<stop offset="1" stop-color="#0ACAFF"/>
</linearGradient>
<linearGradient id="paint3_linear" x1="290.625" y1="694.853" x2="290.625" y2="277.789" gradientUnits="userSpaceOnUse">
<stop stop-color="#1049B2" stop-opacity="0"/>
<stop offset="0.088" stop-color="#0F5DBE" stop-opacity="0.157"/>
<stop offset="0.226" stop-color="#0D79CF" stop-opacity="0.376"/>
<stop offset="0.364" stop-color="#0C92DD" stop-opacity="0.569"/>
<stop offset="0.5" stop-color="#0BA6E9" stop-opacity="0.722"/>
<stop offset="0.634" stop-color="#0AB5F3" stop-opacity="0.843"/>
<stop offset="0.763" stop-color="#0AC1F9" stop-opacity="0.929"/>
<stop offset="0.887" stop-color="#0AC7FD" stop-opacity="0.984"/>
<stop offset="1" stop-color="#0ACAFF"/>
</linearGradient>
<linearGradient id="paint4_linear" x1="717.237" y1="785.652" x2="717.237" y2="459.393" gradientUnits="userSpaceOnUse">
<stop stop-color="#1049B2" stop-opacity="0"/>
<stop offset="0.029" stop-color="#0F4FB5" stop-opacity="0.047"/>
<stop offset="0.188" stop-color="#0E6FC8" stop-opacity="0.298"/>
<stop offset="0.344" stop-color="#0C8AD9" stop-opacity="0.51"/>
<stop offset="0.495" stop-color="#0BA1E6" stop-opacity="0.686"/>
<stop offset="0.64" stop-color="#0BB3F1" stop-opacity="0.824"/>
<stop offset="0.775" stop-color="#0ABFF8" stop-opacity="0.922"/>
<stop offset="0.899" stop-color="#0AC7FD" stop-opacity="0.98"/>
<stop offset="1" stop-color="#0ACAFF"/>
</linearGradient>
<linearGradient id="paint5_linear" x1="717.183" y1="588.214" x2="717.183" y2="942.915" gradientUnits="userSpaceOnUse">
<stop stop-color="#0ACAFF"/>
<stop offset="0.101" stop-color="#0AC7FD" stop-opacity="0.98"/>
<stop offset="0.225" stop-color="#0ABFF8" stop-opacity="0.922"/>
<stop offset="0.36" stop-color="#0BB3F1" stop-opacity="0.824"/>
<stop offset="0.505" stop-color="#0BA1E6" stop-opacity="0.686"/>
<stop offset="0.656" stop-color="#0C8AD9" stop-opacity="0.51"/>
<stop offset="0.812" stop-color="#0E6FC8" stop-opacity="0.298"/>
<stop offset="0.971" stop-color="#0F4FB5" stop-opacity="0.047"/>
<stop offset="1" stop-color="#1049B2" stop-opacity="0"/>
</linearGradient>
<linearGradient id="paint6_linear" x1="267.244" y1="920.534" x2="267.244" y2="528.95" gradientUnits="userSpaceOnUse">
<stop stop-color="#1049B2" stop-opacity="0"/>
<stop offset="0.088" stop-color="#0F5DBE" stop-opacity="0.157"/>
<stop offset="0.226" stop-color="#0D79CF" stop-opacity="0.376"/>
<stop offset="0.364" stop-color="#0C92DD" stop-opacity="0.569"/>
<stop offset="0.5" stop-color="#0BA6E9" stop-opacity="0.722"/>
<stop offset="0.634" stop-color="#0AB5F3" stop-opacity="0.843"/>
<stop offset="0.763" stop-color="#0AC1F9" stop-opacity="0.929"/>
<stop offset="0.887" stop-color="#0AC7FD" stop-opacity="0.984"/>
<stop offset="1" stop-color="#0ACAFF"/>
</linearGradient>
<linearGradient id="paint7_linear" x1="1162.88" y1="879.214" x2="1162.88" y2="586.591" gradientUnits="userSpaceOnUse">
<stop stop-color="#1049B2" stop-opacity="0"/>
<stop offset="0.029" stop-color="#0F4FB5" stop-opacity="0.047"/>
<stop offset="0.188" stop-color="#0E6FC8" stop-opacity="0.298"/>
<stop offset="0.344" stop-color="#0C8AD9" stop-opacity="0.51"/>
<stop offset="0.495" stop-color="#0BA1E6" stop-opacity="0.686"/>
<stop offset="0.64" stop-color="#0BB3F1" stop-opacity="0.824"/>
<stop offset="0.775" stop-color="#0ABFF8" stop-opacity="0.922"/>
<stop offset="0.899" stop-color="#0AC7FD" stop-opacity="0.98"/>
<stop offset="1" stop-color="#0ACAFF"/>
</linearGradient>
</defs>
</svg>
