<svg width="24" height="20" viewBox="0 0 24 20" fill="none" xmlns="http://www.w3.org/2000/svg">
<path d="M0 17.4998C2.58861 17.7862 5.18637 17.0467 7.236 15.4398C6.71297 15.4139 6.19604 15.3157 5.7 15.1478C4.49405 14.7281 3.50182 13.8505 2.938 12.7048C2.851 12.5378 2.784 12.3568 2.703 12.1848C2.622 12.0128 2.703 11.9798 2.857 12.0028C3.4656 12.0932 4.08565 12.0705 4.686 11.9358C4.6996 11.9283 4.71206 11.9188 4.723 11.9078C4.735 11.8418 4.68 11.8308 4.636 11.8228C3.98215 11.6645 3.3686 11.3713 2.83474 10.962C2.30088 10.5526 1.85851 10.0362 1.536 9.44581C1.14278 8.76154 0.929146 7.98888 0.915 7.19981C0.909 6.99481 0.964 6.97081 1.137 7.05181C1.75016 7.35891 2.42259 7.5295 3.108 7.55181C2.76664 7.30072 2.45199 7.01522 2.169 6.69981C1.69636 6.16266 1.34649 5.52896 1.14374 4.84281C0.940983 4.15666 0.890227 3.43457 0.995 2.72681C1.0705 2.17579 1.23533 1.64078 1.483 1.14281C1.57 0.957806 1.637 0.933806 1.773 1.09981C2.56351 2.0567 3.48099 2.90117 4.5 3.60981C6.24708 4.83434 8.25064 5.6439 10.358 5.97681C10.758 6.03881 11.158 6.05281 11.558 6.09981C11.737 6.11981 11.768 6.04681 11.737 5.88081C11.5046 4.61036 11.7746 3.29932 12.49 2.22405C13.2055 1.14878 14.3104 0.393277 15.572 0.116806C16.3119 -0.048764 17.0803 -0.0374325 17.815 0.14988C18.5496 0.337192 19.2297 0.6952 19.8 1.19481C20.2 1.80681 20.708 1.44781 21.166 1.31881C21.8949 1.09911 22.5985 0.802792 23.265 0.434806C22.9269 1.51215 22.229 2.44064 21.288 3.06481C22.2141 2.97174 23.1194 2.73173 23.97 2.35381C23.7482 2.70007 23.5026 3.03053 23.235 3.34281C22.7738 3.88504 22.2532 4.37377 21.683 4.79981C21.6314 4.83428 21.5904 4.88228 21.5642 4.93854C21.5381 4.99481 21.528 5.05717 21.535 5.11881C21.5637 6.11975 21.4869 7.12093 21.306 8.10581C21.1125 9.13471 20.8108 10.1403 20.406 11.1058C19.9612 12.1836 19.3888 13.2043 18.701 14.1458C17.8508 15.3192 16.8197 16.35 15.646 17.1998C14.0734 18.3303 12.2722 19.1025 10.369 19.4618C9.1701 19.6908 7.9477 19.7724 6.729 19.7048C5.78762 19.6563 4.85371 19.5112 3.942 19.2718C2.79994 18.974 1.70287 18.5247 0.68 17.9358C0.432753 17.8254 0.203521 17.6784 0 17.4998" fill="white"/>
</svg>
