<svg width="126" height="128" viewBox="0 0 126 128" fill="none" xmlns="http://www.w3.org/2000/svg">
<path d="M63 127.431C97.7939 127.431 126 98.953 126 63.8231C126 28.6932 97.7939 0.214844 63 0.214844C28.2061 0.214844 0 28.6932 0 63.8231C0 98.953 28.2061 127.431 63 127.431Z" fill="#EBEBEB"/>
<path d="M91.4951 70.077C91.4951 54.0498 77.7391 38.1547 58.0301 23.437C67.6791 35.048 34.6301 45.8242 34.0091 70.077C33.6021 86.0992 46.8781 99.0962 62.7521 99.0962C66.5267 99.0963 70.2642 98.3459 73.7515 96.8876C77.2388 95.4293 80.4074 93.2917 83.0764 90.597C85.7455 87.9022 87.8627 84.7031 89.3072 81.1822C90.7516 77.6614 91.4951 73.888 91.4951 70.077V70.077Z" stroke="#1371C2" stroke-width="2" stroke-linecap="round" stroke-linejoin="round"/>
<path d="M87.0291 63.8371C87.0291 50.2987 75.4101 36.8735 58.7631 24.4426C66.9131 34.2474 38.9941 43.3513 38.4741 63.8371C38.1301 77.3665 49.3431 88.3489 62.7511 88.3489C69.1899 88.3489 75.3649 85.7661 79.9179 81.1694C84.4709 76.5726 87.0288 70.3381 87.0291 63.8371V63.8371Z" stroke="#1371C2" stroke-width="2" stroke-linecap="round" stroke-linejoin="round"/>
<path d="M81.9051 56.177C81.9051 45.4969 72.7381 34.9047 59.6051 25.0969C66.0351 32.8329 44.0051 40.0155 43.5971 56.177C43.3261 66.855 52.1731 75.5168 62.7511 75.5168C67.8312 75.5166 72.703 73.4788 76.2951 69.8519C79.8871 66.225 81.9051 61.306 81.9051 56.177Z" stroke="#1371C2" stroke-width="2" stroke-linecap="round" stroke-linejoin="round"/>
<path d="M63 127.431C97.7939 127.431 126 98.953 126 63.8231C126 28.6932 97.7939 0.214844 63 0.214844C28.2061 0.214844 0 28.6932 0 63.8231C0 98.953 28.2061 127.431 63 127.431Z" fill="#F2F4F8"/>
<path d="M91.4951 70.077C91.4951 54.0498 77.7391 38.1547 58.0301 23.437C67.6791 35.048 34.6301 45.8242 34.0091 70.077C33.6021 86.0992 46.8781 99.0962 62.7521 99.0962C66.5267 99.0963 70.2642 98.3459 73.7515 96.8876C77.2388 95.4293 80.4074 93.2917 83.0764 90.597C85.7455 87.9022 87.8627 84.7031 89.3072 81.1822C90.7516 77.6614 91.4951 73.888 91.4951 70.077V70.077Z" stroke="#0E144F" stroke-width="2" stroke-linecap="round" stroke-linejoin="round"/>
<path d="M87.0291 63.8371C87.0291 50.2987 75.4101 36.8735 58.7631 24.4426C66.9131 34.2474 38.9941 43.3513 38.4741 63.8371C38.1301 77.3665 49.3431 88.3489 62.7511 88.3489C69.1899 88.3489 75.3649 85.7661 79.9179 81.1694C84.4709 76.5726 87.0288 70.3381 87.0291 63.8371V63.8371Z" stroke="#0E144F" stroke-width="2" stroke-linecap="round" stroke-linejoin="round"/>
<path d="M81.9051 56.177C81.9051 45.4969 72.7381 34.9047 59.6051 25.0969C66.0351 32.8329 44.0051 40.0155 43.5971 56.177C43.3261 66.855 52.1731 75.5168 62.7511 75.5168C67.8312 75.5166 72.703 73.4788 76.2951 69.8519C79.8871 66.225 81.9051 61.306 81.9051 56.177Z" stroke="#0E144F" stroke-width="2" stroke-linecap="round" stroke-linejoin="round"/>
</svg>
