<svg width="126" height="128" viewBox="0 0 126 128" fill="none" xmlns="http://www.w3.org/2000/svg">
<path d="M63 127.431C97.7939 127.431 126 98.953 126 63.8231C126 28.6932 97.7939 0.214844 63 0.214844C28.2061 0.214844 0 28.6932 0 63.8231C0 98.953 28.2061 127.431 63 127.431Z" fill="#EBEBEB"/>
<path d="M61.761 79.0261C57.217 75.6417 51.791 75.5859 46.127 80.9503C43.066 83.85 40.482 87.197 37.386 90.0594C34.29 92.9218 29.274 94.6502 26 91.9978C29.0698 94.6509 32.8471 96.3297 36.8581 96.8238C40.8692 97.3179 44.9355 96.6054 48.547 94.7754C54.186 91.7928 58.058 86.3276 62.947 82.2163C67.836 78.1049 75.127 75.4003 80.447 78.926C83.822 81.1634 85.402 85.2463 87.776 88.5439C90.15 91.8414 94.6 94.5716 98.076 92.4977C98.381 95.3177 90.006 99.1875 79.376 94.5461C74.484 92.4107 66.912 84.6517 66.912 84.6517" stroke="#1371C2" stroke-width="2" stroke-linecap="round" stroke-linejoin="round"/>
<path d="M41.817 66.3757C40.9937 65.6403 40.3399 64.7318 39.9016 63.7141C39.4633 62.6963 39.2512 61.5939 39.28 60.4845C39.3245 59.3754 39.6089 58.2896 40.1134 57.3034C40.6178 56.3172 41.3301 55.4545 42.2 54.7759C43.7743 53.682 45.675 53.1717 47.5796 53.3316C49.4841 53.4916 51.2752 54.3119 52.649 55.6534C53.9623 57.0567 54.8389 58.8181 55.17 60.7196C55.5012 62.6211 55.2724 64.5791 54.512 66.3506C53.7061 68.1006 52.4966 69.6302 50.9849 70.8112C49.4731 71.9922 47.7031 72.7901 45.823 73.1383C42.0254 73.79 38.1236 72.9906 34.878 70.896C31.5392 68.8602 29.0407 65.6756 27.842 61.9282C26.521 57.5342 27.342 52.7404 29.015 48.4665C31.4931 42.406 35.5786 37.1531 40.8221 33.2851C46.0657 29.417 52.2642 27.0838 58.736 26.5422C65.2202 26.1859 71.6761 27.642 77.3937 30.7504C83.1113 33.8587 87.8692 38.4988 91.144 44.1605C93.319 48.0446 94.761 52.5154 94.233 56.9448C93.8616 60.0518 92.606 62.9833 90.6182 65.3846C88.6303 67.7858 85.9956 69.5537 83.033 70.474C79.185 71.7643 71.533 70.8869 65.955 67.6368C60.4308 64.2171 55.909 59.3729 52.855 53.6028C50.8303 50.2774 49.5766 46.5327 49.188 42.649C48.9799 40.8646 49.1836 39.0558 49.7831 37.3641C50.3827 35.6724 51.3619 34.1438 52.644 32.8978C55.099 30.4747 61.696 29.0885 67.03 30.6959C70.9058 31.8853 74.4319 34.0199 77.297 36.9113C78.813 38.3312 80.0262 40.0484 80.8622 41.9581C81.6982 43.8677 82.1394 45.9296 82.159 48.0174C82.054 52.1812 79.585 56.3489 75.747 57.8775C71.909 59.4061 66.936 57.7574 65.206 53.9752" stroke="#1371C2" stroke-width="2" stroke-linecap="round" stroke-linejoin="round"/>
<path d="M63 127.431C97.7939 127.431 126 98.953 126 63.8231C126 28.6932 97.7939 0.214844 63 0.214844C28.2061 0.214844 0 28.6932 0 63.8231C0 98.953 28.2061 127.431 63 127.431Z" fill="#F2F4F8"/>
<path d="M61.761 79.0261C57.217 75.6417 51.791 75.5859 46.127 80.9503C43.066 83.85 40.482 87.197 37.386 90.0594C34.29 92.9218 29.274 94.6502 26 91.9978C29.0698 94.6509 32.8471 96.3297 36.8581 96.8238C40.8692 97.3179 44.9355 96.6054 48.547 94.7754C54.186 91.7928 58.058 86.3276 62.947 82.2163C67.836 78.1049 75.127 75.4003 80.447 78.926C83.822 81.1634 85.402 85.2463 87.776 88.5439C90.15 91.8414 94.6 94.5716 98.076 92.4977C98.381 95.3177 90.006 99.1875 79.376 94.5461C74.484 92.4107 66.912 84.6517 66.912 84.6517" stroke="#0E144F" stroke-width="2" stroke-linecap="round" stroke-linejoin="round"/>
<path d="M41.817 66.3757C40.9937 65.6403 40.3399 64.7318 39.9016 63.7141C39.4633 62.6963 39.2512 61.5939 39.28 60.4845C39.3245 59.3754 39.6089 58.2896 40.1134 57.3034C40.6178 56.3172 41.3301 55.4545 42.2 54.7759C43.7743 53.682 45.675 53.1717 47.5796 53.3316C49.4841 53.4916 51.2752 54.3119 52.649 55.6534C53.9623 57.0567 54.8389 58.8181 55.17 60.7196C55.5012 62.6211 55.2724 64.5791 54.512 66.3506C53.7061 68.1006 52.4966 69.6302 50.9849 70.8112C49.4731 71.9922 47.7031 72.7901 45.823 73.1383C42.0254 73.79 38.1236 72.9906 34.878 70.896C31.5392 68.8602 29.0407 65.6756 27.842 61.9282C26.521 57.5342 27.342 52.7404 29.015 48.4665C31.4931 42.406 35.5786 37.1531 40.8221 33.2851C46.0657 29.417 52.2642 27.0838 58.736 26.5422C65.2202 26.1859 71.6761 27.642 77.3937 30.7504C83.1113 33.8587 87.8692 38.4988 91.144 44.1605C93.319 48.0446 94.761 52.5154 94.233 56.9448C93.8616 60.0518 92.606 62.9833 90.6182 65.3846C88.6303 67.7858 85.9956 69.5537 83.033 70.474C79.185 71.7643 71.533 70.8869 65.955 67.6368C60.4308 64.2171 55.909 59.3729 52.855 53.6028C50.8303 50.2774 49.5766 46.5327 49.188 42.649C48.9799 40.8646 49.1836 39.0558 49.7831 37.3641C50.3827 35.6724 51.3619 34.1438 52.644 32.8978C55.099 30.4747 61.696 29.0885 67.03 30.6959C70.9058 31.8853 74.4319 34.0199 77.297 36.9113C78.813 38.3312 80.0262 40.0484 80.8622 41.9581C81.6982 43.8677 82.1394 45.9296 82.159 48.0174C82.054 52.1812 79.585 56.3489 75.747 57.8775C71.909 59.4061 66.936 57.7574 65.206 53.9752" stroke="#0E144F" stroke-width="2" stroke-linecap="round" stroke-linejoin="round"/>
</svg>
