<svg width="126" height="128" viewBox="0 0 126 128" fill="none" xmlns="http://www.w3.org/2000/svg">
<path d="M63 127.431C97.7939 127.431 126 98.953 126 63.8231C126 28.6932 97.7939 0.214844 63 0.214844C28.2061 0.214844 0 28.6932 0 63.8231C0 98.953 28.2061 127.431 63 127.431Z" fill="#EBEBEB"/>
<path d="M48.513 52.0293C47.0642 52.8535 45.812 53.9883 44.8445 55.3538C43.877 56.7194 43.2177 58.2825 42.913 59.933C42.6317 61.5881 42.7131 63.2851 43.1514 64.9049C43.5897 66.5248 44.3743 68.0279 45.45 69.3086C47.461 71.6672 50.35 73.105 52.4309 75.4051C54.4464 77.8029 55.5025 80.8742 55.3925 84.0172C55.2824 87.1602 54.0141 90.1485 51.8359 92.3967C47.652 90.2108 46.236 84.7234 46.777 80.0042C47.318 75.2851 49.338 70.8505 50.186 66.1717C51.0339 61.4929 50.396 56.0205 46.71 53.0582" stroke="#1371C2" stroke-width="2" stroke-linecap="round" stroke-linejoin="round"/>
<path d="M68.9509 70.0274C68.0209 68.6355 66.8 67.4664 65.3741 66.6024C63.9482 65.7383 62.352 65.2006 60.6979 65.0267C59.0415 64.8766 57.3725 65.0949 55.8086 65.6662C54.2447 66.2374 52.8238 67.1477 51.6459 68.3333C49.4789 70.5464 48.2929 73.5754 46.1889 75.8502C43.9839 78.0713 41.0369 79.3814 37.9253 79.5235C34.8137 79.6656 31.7616 78.6296 29.3669 76.6185C31.1879 72.2316 36.4859 70.3586 41.1939 70.5303C45.9019 70.7019 50.4369 72.3709 55.1239 72.8525C59.8109 73.3341 65.1619 72.2467 67.7899 68.299" stroke="#1371C2" stroke-width="2" stroke-linecap="round" stroke-linejoin="round"/>
<path d="M83.954 30.2432C83.0982 30.7297 82.3585 31.3998 81.7869 32.2063C81.2154 33.0127 80.8259 33.9357 80.646 34.9106C80.48 35.8881 80.5282 36.8907 80.7874 37.8473C81.0465 38.804 81.5103 39.6915 82.146 40.4476C83.333 41.8409 85.046 42.6899 86.269 44.0479C87.459 45.4642 88.0826 47.2782 88.0175 49.1344C87.9524 50.9905 87.2033 52.755 85.917 54.0828C83.446 52.7924 82.608 49.5545 82.93 46.7638C83.252 43.9731 84.442 41.3583 84.943 38.5949C85.444 35.8315 85.067 32.5995 82.89 30.8508" stroke="#1371C2" stroke-width="2" stroke-linecap="round" stroke-linejoin="round"/>
<path d="M96.0249 40.8728C95.4756 40.0505 94.7544 39.3599 93.9121 38.8495C93.0698 38.3391 92.127 38.0212 91.1499 37.9185C90.1717 37.8299 89.1862 37.9591 88.2627 38.2966C87.3392 38.6342 86.5002 39.1719 85.8049 39.8722C84.5249 41.1787 83.8239 42.968 82.5819 44.3149C81.2797 45.6266 79.5393 46.4003 77.7016 46.4843C75.8639 46.5683 74.0614 45.9567 72.647 44.7692C73.722 42.1784 76.847 41.0738 79.632 41.1737C82.4169 41.2737 85.0899 42.2601 87.8579 42.5418C90.6259 42.8235 93.7869 42.1843 95.3389 39.852" stroke="#1371C2" stroke-width="2" stroke-linecap="round" stroke-linejoin="round"/>
<path d="M57.7889 93.0771C68.0939 89.1899 74.4969 77.1639 70.8889 66.1415C65.8449 50.7433 53.6349 47.4548 43.3039 49.8103C32.9729 52.1658 25.4139 62.9287 26.0379 73.6037C26.6619 84.2788 34.9709 93.8513 45.2379 96.4915C49.073 97.4964 53.0957 97.52 56.9418 96.5596C60.788 95.5991 64.3362 93.6851 67.2652 90.9912C70.1942 88.2973 72.4114 84.9084 73.7162 81.1313C75.0211 77.3541 75.3722 73.308 74.7379 69.3593C73.3919 61.1811 67.3709 55.1 65.6849 47.1045C65.0403 43.8665 65.2704 40.513 66.3512 37.3957C67.4321 34.2784 69.3238 31.5121 71.8279 29.387C74.3878 27.3324 77.4566 26.0256 80.7007 25.6087C83.9447 25.1918 87.2399 25.6807 90.2279 27.0223C93.209 28.461 95.7216 30.7288 97.4708 33.559C99.22 36.3891 100.133 39.6644 100.103 43.0003C99.9619 46.3335 98.8433 49.5493 96.8891 52.2395C94.935 54.9298 92.2333 56.9732 89.1269 58.1106C85.1729 59.4381 80.8632 59.167 77.1029 57.3544C74.5916 56.1676 72.4596 54.2949 70.9482 51.9479C69.4367 49.6009 68.6063 46.8735 68.5509 44.0746C68.4209 38.7971 70.7389 33.3054 75.2509 30.4188" stroke="#1371C2" stroke-width="2" stroke-linecap="round" stroke-linejoin="round"/>
<path d="M63 127.431C97.7939 127.431 126 98.953 126 63.8231C126 28.6932 97.7939 0.214844 63 0.214844C28.2061 0.214844 0 28.6932 0 63.8231C0 98.953 28.2061 127.431 63 127.431Z" fill="#F2F4F8"/>
<path d="M48.513 52.0293C47.0642 52.8535 45.812 53.9883 44.8445 55.3538C43.877 56.7194 43.2177 58.2825 42.913 59.933C42.6317 61.5881 42.7131 63.2851 43.1514 64.9049C43.5897 66.5248 44.3743 68.0279 45.45 69.3086C47.461 71.6672 50.35 73.105 52.4309 75.4051C54.4464 77.8029 55.5025 80.8742 55.3925 84.0172C55.2824 87.1602 54.0141 90.1485 51.8359 92.3967C47.652 90.2108 46.236 84.7234 46.777 80.0042C47.318 75.2851 49.338 70.8505 50.186 66.1717C51.0339 61.4929 50.396 56.0205 46.71 53.0582" stroke="#0E144F" stroke-width="2" stroke-linecap="round" stroke-linejoin="round"/>
<path d="M68.9509 70.0274C68.0209 68.6355 66.8 67.4664 65.3741 66.6024C63.9482 65.7383 62.352 65.2006 60.6979 65.0267C59.0415 64.8766 57.3725 65.0949 55.8086 65.6662C54.2447 66.2374 52.8238 67.1477 51.6459 68.3333C49.4789 70.5464 48.2929 73.5754 46.1889 75.8502C43.9839 78.0713 41.0369 79.3814 37.9253 79.5235C34.8137 79.6656 31.7616 78.6296 29.3669 76.6185C31.1879 72.2316 36.4859 70.3586 41.1939 70.5303C45.9019 70.7019 50.4369 72.3709 55.1239 72.8525C59.8109 73.3341 65.1619 72.2467 67.7899 68.299" stroke="#0E144F" stroke-width="2" stroke-linecap="round" stroke-linejoin="round"/>
<path d="M83.954 30.2432C83.0982 30.7297 82.3585 31.3998 81.7869 32.2063C81.2154 33.0127 80.8259 33.9357 80.646 34.9106C80.48 35.8881 80.5282 36.8907 80.7874 37.8473C81.0465 38.804 81.5103 39.6915 82.146 40.4476C83.333 41.8409 85.046 42.6899 86.269 44.0479C87.459 45.4642 88.0826 47.2782 88.0175 49.1344C87.9524 50.9905 87.2033 52.755 85.917 54.0828C83.446 52.7924 82.608 49.5545 82.93 46.7638C83.252 43.9731 84.442 41.3583 84.943 38.5949C85.444 35.8315 85.067 32.5995 82.89 30.8508" stroke="#0E144F" stroke-width="2" stroke-linecap="round" stroke-linejoin="round"/>
<path d="M96.0249 40.8728C95.4756 40.0505 94.7544 39.3599 93.9121 38.8495C93.0698 38.3391 92.127 38.0212 91.1499 37.9185C90.1717 37.8299 89.1862 37.9591 88.2627 38.2966C87.3392 38.6342 86.5002 39.1719 85.8049 39.8722C84.5249 41.1787 83.8239 42.968 82.5819 44.3149C81.2797 45.6266 79.5393 46.4003 77.7016 46.4843C75.8639 46.5683 74.0614 45.9567 72.647 44.7692C73.722 42.1784 76.847 41.0738 79.632 41.1737C82.4169 41.2737 85.0899 42.2601 87.8579 42.5418C90.6259 42.8235 93.7869 42.1843 95.3389 39.852" stroke="#0E144F" stroke-width="2" stroke-linecap="round" stroke-linejoin="round"/>
<path d="M57.7889 93.0771C68.0939 89.1899 74.4969 77.1639 70.8889 66.1415C65.8449 50.7433 53.6349 47.4548 43.3039 49.8103C32.9729 52.1658 25.4139 62.9287 26.0379 73.6037C26.6619 84.2788 34.9709 93.8513 45.2379 96.4915C49.073 97.4964 53.0957 97.52 56.9418 96.5596C60.788 95.5991 64.3362 93.6851 67.2652 90.9912C70.1942 88.2973 72.4114 84.9084 73.7162 81.1313C75.0211 77.3541 75.3722 73.308 74.7379 69.3593C73.3919 61.1811 67.3709 55.1 65.6849 47.1045C65.0403 43.8665 65.2704 40.513 66.3512 37.3957C67.4321 34.2784 69.3238 31.5121 71.8279 29.387C74.3878 27.3324 77.4566 26.0256 80.7007 25.6087C83.9447 25.1918 87.2399 25.6807 90.2279 27.0223C93.209 28.461 95.7216 30.7288 97.4708 33.559C99.22 36.3891 100.133 39.6644 100.103 43.0003C99.9619 46.3335 98.8433 49.5493 96.8891 52.2395C94.935 54.9298 92.2333 56.9732 89.1269 58.1106C85.1729 59.4381 80.8632 59.167 77.1029 57.3544C74.5916 56.1676 72.4596 54.2949 70.9482 51.9479C69.4367 49.6009 68.6063 46.8735 68.5509 44.0746C68.4209 38.7971 70.7389 33.3054 75.2509 30.4188" stroke="#0E144F" stroke-width="2" stroke-linecap="round" stroke-linejoin="round"/>
</svg>
