<svg width="126" height="128" viewBox="0 0 126 128" fill="none" xmlns="http://www.w3.org/2000/svg">
<path d="M63 127.323C97.7939 127.323 126 98.845 126 63.7152C126 28.5855 97.7939 0.107178 63 0.107178C28.2061 0.107178 0 28.5855 0 63.7152C0 98.845 28.2061 127.323 63 127.323Z" fill="#EBEBEB"/>
<path d="M41.4679 95.2672C42.2074 94.6993 42.7824 93.9412 43.1328 93.0724C43.4832 92.2036 43.5961 91.2558 43.4599 90.3279C43.0869 88.8023 41.2069 87.7027 39.6529 87.6159C38.8903 87.6345 38.1464 87.8579 37.4979 88.2632C36.8493 88.6686 36.3194 89.2408 35.9629 89.9217C32.9959 94.9427 37.9779 101.074 43.4099 99.5277C45.569 98.7915 47.4714 97.4409 48.8879 95.6384C54.8999 88.6718 57.1299 78.4835 59.3569 69.7621C61.2009 62.539 62.7999 55.2229 65.4069 48.229C66.9599 44.0631 68.5489 39.8154 71.0849 36.1383C72.9669 33.4122 75.6679 30.4842 78.9589 29.5957C82.6799 28.5961 86.0259 31.3124 86.6129 35.0532C86.7679 35.8487 86.7377 36.6698 86.5248 37.4516C86.3119 38.2334 85.922 38.9545 85.3859 39.5582C84.8853 40.0514 84.2661 40.4043 83.5893 40.5826C82.9125 40.7609 82.2014 40.7581 81.5259 40.5747C78.9709 39.8498 77.7389 36.4941 78.8259 34.1416" stroke="#1371C2" stroke-width="2" stroke-linecap="round" stroke-linejoin="round"/>
<path d="M82.1739 51.5333C83.5859 53.069 86.5859 51.685 86.6559 49.591C86.7259 47.4969 84.3559 45.8611 82.3389 46.3397C81.3439 46.648 80.4722 47.2691 79.8506 48.112C79.2291 48.9549 78.8901 49.9757 78.8829 51.0266C78.9226 53.1452 79.7844 55.1639 81.2829 56.6477C82.7748 58.1068 84.4493 59.3624 86.2639 60.3831C90.6849 63.1303 95.1069 64.657 99.5279 67.4042C97.0079 68.5431 92.9279 70.4583 89.6889 71.7648C85.4479 73.4812 78.5889 75.3267 77.6459 80.6677C77.4508 81.645 77.5697 82.6602 77.9854 83.5645C78.401 84.4689 79.0917 85.2157 79.9569 85.6962C81.7419 86.5353 84.2569 85.4769 84.5889 83.5172C84.9209 81.5575 82.3979 79.6907 80.7949 80.8447" stroke="#1371C2" stroke-width="2" stroke-linecap="round" stroke-linejoin="round"/>
<path d="M42.3579 47.4948C40.9469 49.0304 37.9469 47.6464 37.8759 45.5524C37.8049 43.4584 40.1759 41.8225 42.1939 42.3011C43.1889 42.6094 44.0606 43.2305 44.6822 44.0734C45.3037 44.9163 45.6427 45.9371 45.6499 46.988C45.6096 49.1065 44.7479 51.125 43.2499 52.6091C41.7579 54.0682 40.0834 55.3238 38.2689 56.3445C33.8469 59.0917 29.4259 60.6184 25.0049 63.3657C28.6559 64.9811 33.7979 67.0882 38.0929 69.1731C41.5139 70.833 46.1169 72.2715 46.8859 76.6291C47.0813 77.6065 46.9626 78.6215 46.5469 79.526C46.1312 80.4304 45.4403 81.1773 44.5749 81.6577C42.7909 82.4967 40.2749 81.4384 39.9439 79.4786C39.6129 77.5189 42.1349 75.6521 43.7379 76.8061" stroke="#1371C2" stroke-width="2" stroke-linecap="round" stroke-linejoin="round"/>
<path d="M63 127.323C97.7939 127.323 126 98.845 126 63.7152C126 28.5855 97.7939 0.107178 63 0.107178C28.2061 0.107178 0 28.5855 0 63.7152C0 98.845 28.2061 127.323 63 127.323Z" fill="#F2F4F8"/>
<path d="M41.4679 95.2672C42.2074 94.6993 42.7824 93.9412 43.1328 93.0724C43.4832 92.2036 43.5961 91.2558 43.4599 90.3279C43.0869 88.8023 41.2069 87.7027 39.6529 87.6159C38.8903 87.6345 38.1464 87.8579 37.4979 88.2632C36.8493 88.6686 36.3194 89.2408 35.9629 89.9217C32.9959 94.9427 37.9779 101.074 43.4099 99.5277C45.569 98.7915 47.4714 97.4409 48.8879 95.6384C54.8999 88.6718 57.1299 78.4835 59.3569 69.7621C61.2009 62.539 62.7999 55.2229 65.4069 48.229C66.9599 44.0631 68.5489 39.8154 71.0849 36.1383C72.9669 33.4122 75.6679 30.4842 78.9589 29.5957C82.6799 28.5961 86.0259 31.3124 86.6129 35.0532C86.7679 35.8487 86.7377 36.6698 86.5248 37.4516C86.3119 38.2334 85.922 38.9545 85.3859 39.5582C84.8853 40.0514 84.2661 40.4043 83.5893 40.5826C82.9125 40.7609 82.2014 40.7581 81.5259 40.5747C78.9709 39.8498 77.7389 36.4941 78.8259 34.1416" stroke="#0E144F" stroke-width="2" stroke-linecap="round" stroke-linejoin="round"/>
<path d="M82.1739 51.5333C83.5859 53.069 86.5859 51.685 86.6559 49.591C86.7259 47.4969 84.3559 45.8611 82.3389 46.3397C81.3439 46.648 80.4722 47.2691 79.8506 48.112C79.2291 48.9549 78.8901 49.9757 78.8829 51.0266C78.9226 53.1452 79.7844 55.1639 81.2829 56.6477C82.7748 58.1068 84.4493 59.3624 86.2639 60.3831C90.6849 63.1303 95.1069 64.657 99.5279 67.4042C97.0079 68.5431 92.9279 70.4583 89.6889 71.7648C85.4479 73.4812 78.5889 75.3267 77.6459 80.6677C77.4508 81.645 77.5697 82.6602 77.9854 83.5645C78.401 84.4689 79.0917 85.2157 79.9569 85.6962C81.7419 86.5353 84.2569 85.4769 84.5889 83.5172C84.9209 81.5575 82.3979 79.6907 80.7949 80.8447" stroke="#0E144F" stroke-width="2" stroke-linecap="round" stroke-linejoin="round"/>
<path d="M42.3579 47.4948C40.9469 49.0304 37.9469 47.6464 37.8759 45.5524C37.8049 43.4584 40.1759 41.8225 42.1939 42.3011C43.1889 42.6094 44.0606 43.2305 44.6822 44.0734C45.3037 44.9163 45.6427 45.9371 45.6499 46.988C45.6096 49.1065 44.7479 51.125 43.2499 52.6091C41.7579 54.0682 40.0834 55.3238 38.2689 56.3445C33.8469 59.0917 29.4259 60.6184 25.0049 63.3657C28.6559 64.9811 33.7979 67.0882 38.0929 69.1731C41.5139 70.833 46.1169 72.2715 46.8859 76.6291C47.0813 77.6065 46.9626 78.6215 46.5469 79.526C46.1312 80.4304 45.4403 81.1773 44.5749 81.6577C42.7909 82.4967 40.2749 81.4384 39.9439 79.4786C39.6129 77.5189 42.1349 75.6521 43.7379 76.8061" stroke="#0E144F" stroke-width="2" stroke-linecap="round" stroke-linejoin="round"/>
</svg>
