<svg width="126" height="128" viewBox="0 0 126 128" fill="none" xmlns="http://www.w3.org/2000/svg">
<path d="M63 127.323C97.7939 127.323 126 98.845 126 63.7152C126 28.5855 97.7939 0.107178 63 0.107178C28.2061 0.107178 0 28.5855 0 63.7152C0 98.845 28.2061 127.323 63 127.323Z" fill="#EBEBEB"/>
<path d="M64.8977 28.0679C63.4275 27.3682 61.7623 27.206 60.1869 27.6094C58.6114 28.0128 57.2239 28.9565 56.2617 30.279C55.3622 31.647 54.8975 33.2596 54.9297 34.9013C54.9618 36.543 55.4893 38.1359 56.4417 39.4669C57.4343 40.7674 58.7466 41.7832 60.2481 42.4136C61.7497 43.0439 63.3884 43.2664 65.0017 43.0599C66.8704 42.8733 68.61 42.0131 69.9017 40.6368C70.657 39.7321 71.1759 38.6507 71.411 37.4915C71.6462 36.3323 71.59 35.1323 71.2477 34.0006C70.8878 32.8754 70.3039 31.8365 69.5318 30.9475C68.7596 30.0585 67.8156 29.3381 66.7577 28.831" stroke="#1371C2" stroke-width="2" stroke-linecap="round" stroke-linejoin="round"/>
<path d="M55.7116 36.1125C51.8819 36.6444 48.3394 38.4575 45.6506 41.2618C44.357 42.6263 43.293 44.1952 42.5006 45.9063" stroke="#1371C2" stroke-width="2" stroke-linecap="round" stroke-linejoin="round"/>
<path d="M71.1147 35.6934C74.5895 36.3451 77.734 38.1903 80.0147 40.9161C81.9514 43.2641 83.157 46.1381 83.4797 49.1763" stroke="#1371C2" stroke-width="2" stroke-linecap="round" stroke-linejoin="round"/>
<path d="M35.2566 52.2022C35.0687 51.3691 35.108 50.5002 35.3704 49.6879C35.6328 48.8756 36.1084 48.1503 36.7466 47.5892C37.9952 46.53 39.578 45.9569 41.2087 45.9737C41.8681 45.9126 42.5329 45.9914 43.1604 46.2049C43.7879 46.4184 44.3643 46.762 44.8527 47.2136C45.6674 48.2136 46.0575 49.4985 45.9377 50.7878C45.8214 52.0968 45.5426 53.3856 45.1077 54.6243" stroke="#1371C2" stroke-width="2" stroke-linecap="round" stroke-linejoin="round"/>
<path d="M83.6497 49.1261C82.7899 49.1515 81.9729 49.5103 81.3682 50.1279C80.7635 50.7455 80.4178 51.5742 80.4027 52.4425C80.4551 53.3092 80.8363 54.1225 81.4671 54.7127C82.0979 55.303 82.9298 55.625 83.7897 55.6119C84.3756 55.5719 84.9405 55.3752 85.4262 55.042C85.9119 54.7088 86.3011 54.2511 86.5537 53.7159C86.7654 53.2436 86.8658 52.7283 86.8469 52.2103C86.828 51.6923 86.6903 51.1856 86.4447 50.7303C86.1919 50.2793 85.8391 49.8936 85.4138 49.6034C84.9886 49.3131 84.5025 49.1259 83.9937 49.0571" stroke="#1371C2" stroke-width="2" stroke-linecap="round" stroke-linejoin="round"/>
<path d="M27.2637 86.4237C27.3774 88.0607 28.0511 89.607 29.1696 90.7976C30.2881 91.9882 31.7817 92.7489 33.3947 92.95C35.0157 93.0729 36.6353 92.6941 38.0379 91.8644C39.4404 91.0347 40.5594 89.7933 41.2457 88.3055C41.8838 86.7956 42.1198 85.1435 41.9304 83.5131C41.7409 81.8826 41.1326 80.3308 40.1657 79.011C39.0911 77.4568 37.4977 76.3456 35.6777 75.881C34.5268 75.6582 33.339 75.7296 32.2225 76.089C31.1061 76.4485 30.0965 77.0845 29.2857 77.9388C28.4896 78.8059 27.8774 79.8279 27.4869 80.9426C27.0964 82.0573 26.9357 83.241 27.0147 84.4207" stroke="#1371C2" stroke-width="2" stroke-linecap="round" stroke-linejoin="round"/>
<path d="M38.7047 90.5833C41.037 93.6967 44.3363 95.9299 48.0747 96.9258C49.8846 97.3991 51.7591 97.5697 53.6237 97.4306" stroke="#1371C2" stroke-width="2" stroke-linecap="round" stroke-linejoin="round"/>
<path d="M30.8128 77.2246C29.6783 73.8455 29.7362 70.1743 30.9768 66.8334C32.0591 63.9797 33.9532 61.5131 36.4207 59.7437" stroke="#1371C2" stroke-width="2" stroke-linecap="round" stroke-linejoin="round"/>
<path d="M62.6047 100.735C61.9769 101.308 61.207 101.698 60.3768 101.865C59.5467 102.031 58.6874 101.966 57.8907 101.678C56.3661 101.095 55.0984 99.98 54.3167 98.5354C53.9415 97.9845 53.6846 97.3605 53.5625 96.7034C53.4404 96.0463 53.4558 95.3703 53.6076 94.7196C54.216 93.3146 55.2681 92.1526 56.5997 91.4151C57.7587 90.8295 58.6137 91.1485 59.8867 90.8718" stroke="#1371C2" stroke-width="2" stroke-linecap="round" stroke-linejoin="round"/>
<path d="M36.2927 59.6139C36.735 60.3588 37.4444 60.9029 38.2736 61.1334C39.1029 61.364 39.9882 61.2632 40.7457 60.8519C41.4666 60.3812 41.9807 59.6487 42.1813 58.8059C42.382 57.963 42.254 57.0746 41.8237 56.3245C41.5025 55.828 41.0563 55.4268 40.5309 55.1619C40.0055 54.897 39.4197 54.7778 38.8337 54.8168C38.3223 54.8613 37.828 55.0248 37.3897 55.2946C36.9514 55.5644 36.5811 55.9331 36.3077 56.3718C36.0415 56.8151 35.8806 57.315 35.8378 57.8317C35.7949 58.3483 35.8712 58.8678 36.0607 59.3497" stroke="#1371C2" stroke-width="2" stroke-linecap="round" stroke-linejoin="round"/>
<path d="M95.4807 91.1856C96.8469 90.2968 97.8647 88.9565 98.3598 87.3935C98.8549 85.8305 98.7965 84.1422 98.1947 82.6178C97.5212 81.1233 96.412 79.8721 95.0154 79.0308C93.6188 78.1895 92.0012 77.7982 90.3787 77.9097C88.7607 78.0717 87.2128 78.6581 85.8886 79.6106C84.5643 80.5631 83.5098 81.8485 82.8297 83.3396C81.9979 85.0388 81.8002 86.9839 82.2727 88.8183C82.6335 89.9441 83.2678 90.9608 84.1175 91.7757C84.9673 92.5907 86.0055 93.178 87.1377 93.484C88.2736 93.7711 89.4557 93.8204 90.6113 93.6294C91.767 93.4384 92.8717 93.0111 93.8577 92.3732" stroke="#1371C2" stroke-width="2" stroke-linecap="round" stroke-linejoin="round"/>
<path d="M93.5837 79.0591C95.163 75.4961 95.5134 71.501 94.5787 67.7133C94.1173 65.8857 93.3633 64.1468 92.3467 62.5645" stroke="#1371C2" stroke-width="2" stroke-linecap="round" stroke-linejoin="round"/>
<path d="M85.7827 92.4766C83.3954 95.1074 80.1803 96.8236 76.6827 97.3341C73.6843 97.7508 70.6308 97.2624 67.9067 95.9305" stroke="#1371C2" stroke-width="2" stroke-linecap="round" stroke-linejoin="round"/>
<path d="M90.8897 53.0212C91.6893 53.301 92.3987 53.7943 92.9425 54.4489C93.4863 55.1036 93.8441 55.8952 93.9777 56.7389C94.2054 58.3688 93.8482 60.0271 92.9707 61.4144C92.6732 62.0117 92.2552 62.5394 91.7435 62.9638C91.2318 63.3883 90.6378 63.7 89.9997 63.8788C88.7284 64.0487 87.4422 63.7029 86.4227 62.9175C85.3836 62.1253 84.4476 61.2041 83.6367 60.1755" stroke="#1371C2" stroke-width="2" stroke-linecap="round" stroke-linejoin="round"/>
<path d="M67.8597 96.1049C68.2935 95.3553 68.4246 94.4658 68.2257 93.6212C68.0268 92.7766 67.5132 92.0421 66.7917 91.5699C66.0357 91.1559 65.1509 91.0518 64.321 91.2795C63.4911 91.5072 62.7801 92.0491 62.3357 92.7925C62.0592 93.3156 61.9256 93.9033 61.9486 94.4958C61.9716 95.0883 62.1504 95.664 62.4667 96.1636C62.7513 96.595 63.1312 96.9536 63.5765 97.2117C64.0217 97.4698 64.5202 97.6203 65.0327 97.6509C65.5448 97.6732 66.0551 97.5752 66.5236 97.365C66.992 97.1548 67.4059 96.8379 67.7327 96.4392" stroke="#1371C2" stroke-width="2" stroke-linecap="round" stroke-linejoin="round"/>
<path d="M74.9237 71.2856C74.9237 64.3644 68.9827 57.5001 60.4707 51.1433C64.6387 56.1573 50.3637 60.8115 50.0977 71.2856C50.0826 72.9357 50.3934 74.5723 51.0118 76.0997C51.6303 77.6272 52.5441 79.0149 53.6998 80.1817C54.8554 81.3486 56.2298 82.2712 57.7427 82.8957C59.2555 83.5201 60.8764 83.8338 62.5107 83.8186C65.8028 83.8186 68.9601 82.4981 71.288 80.1477C73.6159 77.7974 74.9237 74.6095 74.9237 71.2856Z" stroke="#1371C2" stroke-width="2" stroke-linecap="round" stroke-linejoin="round"/>
<path d="M63 127.323C97.7939 127.323 126 98.845 126 63.7152C126 28.5855 97.7939 0.107178 63 0.107178C28.2061 0.107178 0 28.5855 0 63.7152C0 98.845 28.2061 127.323 63 127.323Z" fill="#F2F4F8"/>
<path d="M64.8977 28.0679C63.4275 27.3682 61.7623 27.206 60.1869 27.6094C58.6114 28.0128 57.2239 28.9565 56.2617 30.279C55.3622 31.647 54.8975 33.2596 54.9297 34.9013C54.9618 36.543 55.4893 38.1359 56.4417 39.4669C57.4343 40.7674 58.7466 41.7832 60.2481 42.4136C61.7497 43.0439 63.3884 43.2664 65.0017 43.0599C66.8704 42.8733 68.61 42.0131 69.9017 40.6368C70.657 39.7321 71.1759 38.6507 71.411 37.4915C71.6462 36.3323 71.59 35.1323 71.2477 34.0006C70.8878 32.8754 70.3039 31.8365 69.5318 30.9475C68.7596 30.0585 67.8156 29.3381 66.7577 28.831" stroke="#0E144F" stroke-width="2" stroke-linecap="round" stroke-linejoin="round"/>
<path d="M55.7116 36.1125C51.8819 36.6444 48.3394 38.4575 45.6506 41.2618C44.357 42.6263 43.293 44.1952 42.5006 45.9063" stroke="#0E144F" stroke-width="2" stroke-linecap="round" stroke-linejoin="round"/>
<path d="M71.1147 35.6934C74.5895 36.3451 77.734 38.1903 80.0147 40.9161C81.9514 43.2641 83.157 46.1381 83.4797 49.1763" stroke="#0E144F" stroke-width="2" stroke-linecap="round" stroke-linejoin="round"/>
<path d="M35.2566 52.2022C35.0687 51.3691 35.108 50.5002 35.3704 49.6879C35.6328 48.8756 36.1084 48.1503 36.7466 47.5892C37.9952 46.53 39.578 45.9569 41.2087 45.9737C41.8681 45.9126 42.5329 45.9914 43.1604 46.2049C43.7879 46.4184 44.3643 46.762 44.8527 47.2136C45.6674 48.2136 46.0575 49.4985 45.9377 50.7878C45.8214 52.0968 45.5426 53.3856 45.1077 54.6243" stroke="#0E144F" stroke-width="2" stroke-linecap="round" stroke-linejoin="round"/>
<path d="M83.6497 49.1261C82.7899 49.1515 81.9729 49.5103 81.3682 50.1279C80.7635 50.7455 80.4178 51.5742 80.4027 52.4425C80.4551 53.3092 80.8363 54.1225 81.4671 54.7127C82.0979 55.303 82.9298 55.625 83.7897 55.6119C84.3756 55.5719 84.9405 55.3752 85.4262 55.042C85.9119 54.7088 86.3011 54.2511 86.5537 53.7159C86.7654 53.2436 86.8658 52.7283 86.8469 52.2103C86.828 51.6923 86.6903 51.1856 86.4447 50.7303C86.1919 50.2793 85.8391 49.8936 85.4138 49.6034C84.9886 49.3131 84.5025 49.1259 83.9937 49.0571" stroke="#0E144F" stroke-width="2" stroke-linecap="round" stroke-linejoin="round"/>
<path d="M27.2637 86.4237C27.3774 88.0607 28.0511 89.607 29.1696 90.7976C30.2881 91.9882 31.7817 92.7489 33.3947 92.95C35.0157 93.0729 36.6353 92.6941 38.0379 91.8644C39.4404 91.0347 40.5594 89.7933 41.2457 88.3055C41.8838 86.7956 42.1198 85.1435 41.9304 83.5131C41.7409 81.8826 41.1326 80.3308 40.1657 79.011C39.0911 77.4568 37.4977 76.3456 35.6777 75.881C34.5268 75.6582 33.339 75.7296 32.2225 76.089C31.1061 76.4485 30.0965 77.0845 29.2857 77.9388C28.4896 78.8059 27.8774 79.8279 27.4869 80.9426C27.0964 82.0573 26.9357 83.241 27.0147 84.4207" stroke="#0E144F" stroke-width="2" stroke-linecap="round" stroke-linejoin="round"/>
<path d="M38.7047 90.5833C41.037 93.6967 44.3363 95.9299 48.0747 96.9258C49.8846 97.3991 51.7591 97.5697 53.6237 97.4306" stroke="#0E144F" stroke-width="2" stroke-linecap="round" stroke-linejoin="round"/>
<path d="M30.8128 77.2246C29.6783 73.8455 29.7362 70.1743 30.9768 66.8334C32.0591 63.9797 33.9532 61.5131 36.4207 59.7437" stroke="#0E144F" stroke-width="2" stroke-linecap="round" stroke-linejoin="round"/>
<path d="M62.6047 100.735C61.9769 101.308 61.207 101.698 60.3768 101.865C59.5467 102.031 58.6874 101.966 57.8907 101.678C56.3661 101.095 55.0984 99.98 54.3167 98.5354C53.9415 97.9845 53.6846 97.3605 53.5625 96.7034C53.4404 96.0463 53.4558 95.3703 53.6076 94.7196C54.216 93.3146 55.2681 92.1526 56.5997 91.4151C57.7587 90.8295 58.6137 91.1485 59.8867 90.8718" stroke="#0E144F" stroke-width="2" stroke-linecap="round" stroke-linejoin="round"/>
<path d="M36.2927 59.6139C36.735 60.3588 37.4444 60.9029 38.2736 61.1334C39.1029 61.364 39.9882 61.2632 40.7457 60.8519C41.4666 60.3812 41.9807 59.6487 42.1813 58.8059C42.382 57.963 42.254 57.0746 41.8237 56.3245C41.5025 55.828 41.0563 55.4268 40.5309 55.1619C40.0055 54.897 39.4197 54.7778 38.8337 54.8168C38.3223 54.8613 37.828 55.0248 37.3897 55.2946C36.9514 55.5644 36.5811 55.9331 36.3077 56.3718C36.0415 56.8151 35.8806 57.315 35.8378 57.8317C35.7949 58.3483 35.8712 58.8678 36.0607 59.3497" stroke="#0E144F" stroke-width="2" stroke-linecap="round" stroke-linejoin="round"/>
<path d="M95.4807 91.1856C96.8469 90.2968 97.8647 88.9565 98.3598 87.3935C98.8549 85.8305 98.7965 84.1422 98.1947 82.6178C97.5212 81.1233 96.412 79.8721 95.0154 79.0308C93.6188 78.1895 92.0012 77.7982 90.3787 77.9097C88.7607 78.0717 87.2128 78.6581 85.8886 79.6106C84.5643 80.5631 83.5098 81.8485 82.8297 83.3396C81.9979 85.0388 81.8002 86.9839 82.2727 88.8183C82.6335 89.9441 83.2678 90.9608 84.1175 91.7757C84.9673 92.5907 86.0055 93.178 87.1377 93.484C88.2736 93.7711 89.4557 93.8204 90.6113 93.6294C91.767 93.4384 92.8717 93.0111 93.8577 92.3732" stroke="#0E144F" stroke-width="2" stroke-linecap="round" stroke-linejoin="round"/>
<path d="M93.5837 79.0591C95.163 75.4961 95.5134 71.501 94.5787 67.7133C94.1173 65.8857 93.3633 64.1468 92.3467 62.5645" stroke="#0E144F" stroke-width="2" stroke-linecap="round" stroke-linejoin="round"/>
<path d="M85.7827 92.4766C83.3954 95.1074 80.1803 96.8236 76.6827 97.3341C73.6843 97.7508 70.6308 97.2624 67.9067 95.9305" stroke="#0E144F" stroke-width="2" stroke-linecap="round" stroke-linejoin="round"/>
<path d="M90.8897 53.0212C91.6893 53.301 92.3987 53.7943 92.9425 54.4489C93.4863 55.1036 93.8441 55.8952 93.9777 56.7389C94.2054 58.3688 93.8482 60.0271 92.9707 61.4144C92.6732 62.0117 92.2552 62.5394 91.7435 62.9638C91.2318 63.3883 90.6378 63.7 89.9997 63.8788C88.7284 64.0487 87.4422 63.7029 86.4227 62.9175C85.3836 62.1253 84.4476 61.2041 83.6367 60.1755" stroke="#0E144F" stroke-width="2" stroke-linecap="round" stroke-linejoin="round"/>
<path d="M67.8597 96.1049C68.2935 95.3553 68.4246 94.4658 68.2257 93.6212C68.0268 92.7766 67.5132 92.0421 66.7917 91.5699C66.0357 91.1559 65.1509 91.0518 64.321 91.2795C63.4911 91.5072 62.7801 92.0491 62.3357 92.7925C62.0592 93.3156 61.9256 93.9033 61.9486 94.4958C61.9716 95.0883 62.1504 95.664 62.4667 96.1636C62.7513 96.595 63.1312 96.9536 63.5765 97.2117C64.0217 97.4698 64.5202 97.6203 65.0327 97.6509C65.5448 97.6732 66.0551 97.5752 66.5236 97.365C66.992 97.1548 67.4059 96.8379 67.7327 96.4392" stroke="#0E144F" stroke-width="2" stroke-linecap="round" stroke-linejoin="round"/>
<path d="M74.9237 71.2856C74.9237 64.3644 68.9827 57.5001 60.4707 51.1433C64.6387 56.1573 50.3637 60.8115 50.0977 71.2856C50.0826 72.9357 50.3934 74.5723 51.0118 76.0997C51.6303 77.6272 52.5441 79.0149 53.6998 80.1817C54.8554 81.3486 56.2298 82.2712 57.7427 82.8957C59.2555 83.5201 60.8764 83.8338 62.5107 83.8186C65.8028 83.8186 68.9601 82.4981 71.288 80.1477C73.6159 77.7974 74.9237 74.6095 74.9237 71.2856Z" stroke="#0E144F" stroke-width="2" stroke-linecap="round" stroke-linejoin="round"/>
</svg>
