<svg width="126" height="128" viewBox="0 0 126 128" fill="none" xmlns="http://www.w3.org/2000/svg">
<path d="M63 127.323C97.7939 127.323 126 98.845 126 63.7152C126 28.5855 97.7939 0.107178 63 0.107178C28.2061 0.107178 0 28.5855 0 63.7152C0 98.845 28.2061 127.323 63 127.323Z" fill="#EBEBEB"/>
<path d="M39.709 49.6978L40.741 58.2153C37.7 53.06 35.041 47.3936 32 42.2383C37.7036 42.5973 43.3682 43.4305 48.936 44.7299C45.536 45.7607 41.362 47.4794 41.362 47.3936" stroke="#1371C2" stroke-width="2" stroke-linecap="round" stroke-linejoin="round"/>
<path d="M41.6169 49.0244C52.723 55.6881 64.774 62.9857 75.433 70.865" stroke="#1371C2" stroke-width="2" stroke-linecap="round" stroke-linejoin="round"/>
<path d="M75.2139 72.7844L79.2759 83.3142" stroke="#1371C2" stroke-width="2" stroke-linecap="round" stroke-linejoin="round"/>
<path d="M76.6831 71.0234H89.9591" stroke="#1371C2" stroke-width="2" stroke-linecap="round" stroke-linejoin="round"/>
<path d="M79.127 75.106L87.251 87.4829L86.551 86.4915" stroke="#1371C2" stroke-width="2" stroke-linecap="round" stroke-linejoin="round"/>
<path d="M81.1169 75.0176L92.697 75.979" stroke="#1371C2" stroke-width="2" stroke-linecap="round" stroke-linejoin="round"/>
<path d="M85.8721 79.2737L92.6072 87.5525L91.9332 86.9022" stroke="#1371C2" stroke-width="2" stroke-linecap="round" stroke-linejoin="round"/>
<path d="M86.6331 78.4971L94.687 80.052L94.723 80.9927" stroke="#1371C2" stroke-width="2" stroke-linecap="round" stroke-linejoin="round"/>
<path d="M48.5959 65.3525C51.208 61.2301 54.261 55.1713 56.873 51.0479" stroke="#1371C2" stroke-width="2" stroke-linecap="round" stroke-linejoin="round"/>
<path d="M48.4209 65.2119C45.6017 65.5134 42.9488 66.7063 40.8406 68.62C38.7324 70.5337 37.2766 73.0706 36.6808 75.869C36.2042 78.6906 36.6223 81.5922 37.8756 84.1597C39.1288 86.7272 41.1532 88.8297 43.6599 90.1668C45.1849 90.9382 46.8599 91.4073 48.3199 92.2867C49.0813 92.6792 49.7352 93.2554 50.2236 93.9639C50.712 94.6724 51.0198 95.4912 51.1199 96.3485C51.1044 96.8735 50.9776 97.3891 50.7482 97.8605C50.5188 98.3319 50.1921 98.7485 49.79 99.0817C49.3879 99.4149 48.9197 99.6569 48.417 99.7921C47.9144 99.9273 47.3889 99.9526 46.8759 99.8655C46.3757 99.7211 45.912 99.47 45.5159 99.1295C45.1199 98.7889 44.8007 98.3666 44.5798 97.8911C44.359 97.4155 44.2416 96.8979 44.2355 96.3727C44.2295 95.8475 44.335 95.3269 44.5449 94.8463" stroke="#1371C2" stroke-width="2" stroke-linecap="round" stroke-linejoin="round"/>
<path d="M56.8089 50.6545C55.9029 47.503 55.9198 44.1542 56.8574 41.0121C57.795 37.87 59.6134 35.0688 62.093 32.9472C64.64 30.9086 67.717 29.6578 70.9525 29.3458C74.1881 29.0339 77.4439 29.6745 80.327 31.1896C81.927 32.066 83.441 33.2319 85.236 33.558C87.031 33.8841 89.246 32.9353 89.476 31.1088C89.501 30.7411 89.4466 30.3725 89.3166 30.0281C89.1866 29.6838 88.9841 29.3717 88.7231 29.1141C88.462 28.8565 88.1487 28.6592 87.8048 28.5359C87.4609 28.4125 87.0945 28.3662 86.731 28.3998C86.3739 28.4759 86.0374 28.6297 85.7447 28.8499C85.4521 29.0701 85.2102 29.3519 85.036 29.6757C84.8617 29.9995 84.7591 30.3575 84.7353 30.7252C84.7115 31.093 84.767 31.4614 84.898 31.8054" stroke="#1371C2" stroke-width="2" stroke-linecap="round" stroke-linejoin="round"/>
<path d="M52.075 95.6431L74.6071 78.5435" stroke="#1371C2" stroke-width="2" stroke-linecap="round" stroke-linejoin="round"/>
<path d="M85.593 35.926L81.165 68.3296" stroke="#1371C2" stroke-width="2" stroke-linecap="round" stroke-linejoin="round"/>
<path d="M63 127.323C97.7939 127.323 126 98.845 126 63.7152C126 28.5855 97.7939 0.107178 63 0.107178C28.2061 0.107178 0 28.5855 0 63.7152C0 98.845 28.2061 127.323 63 127.323Z" fill="#F2F4F8"/>
<path d="M39.709 49.6978L40.741 58.2153C37.7 53.06 35.041 47.3936 32 42.2383C37.7036 42.5973 43.3682 43.4305 48.936 44.7299C45.536 45.7607 41.362 47.4794 41.362 47.3936" stroke="#0E144F" stroke-width="2" stroke-linecap="round" stroke-linejoin="round"/>
<path d="M41.6169 49.0244C52.723 55.6881 64.774 62.9857 75.433 70.865" stroke="#0E144F" stroke-width="2" stroke-linecap="round" stroke-linejoin="round"/>
<path d="M75.2139 72.7844L79.2759 83.3142" stroke="#0E144F" stroke-width="2" stroke-linecap="round" stroke-linejoin="round"/>
<path d="M76.6831 71.0234H89.9591" stroke="#0E144F" stroke-width="2" stroke-linecap="round" stroke-linejoin="round"/>
<path d="M79.127 75.106L87.251 87.4829L86.551 86.4915" stroke="#0E144F" stroke-width="2" stroke-linecap="round" stroke-linejoin="round"/>
<path d="M81.1169 75.0176L92.697 75.979" stroke="#0E144F" stroke-width="2" stroke-linecap="round" stroke-linejoin="round"/>
<path d="M85.8721 79.2737L92.6072 87.5525L91.9332 86.9022" stroke="#0E144F" stroke-width="2" stroke-linecap="round" stroke-linejoin="round"/>
<path d="M86.6331 78.4971L94.687 80.052L94.723 80.9927" stroke="#0E144F" stroke-width="2" stroke-linecap="round" stroke-linejoin="round"/>
<path d="M48.5959 65.3525C51.208 61.2301 54.261 55.1713 56.873 51.0479" stroke="#0E144F" stroke-width="2" stroke-linecap="round" stroke-linejoin="round"/>
<path d="M48.4209 65.2119C45.6017 65.5134 42.9488 66.7063 40.8406 68.62C38.7324 70.5337 37.2766 73.0706 36.6808 75.869C36.2042 78.6906 36.6223 81.5922 37.8756 84.1597C39.1288 86.7272 41.1532 88.8297 43.6599 90.1668C45.1849 90.9382 46.8599 91.4073 48.3199 92.2867C49.0813 92.6792 49.7352 93.2554 50.2236 93.9639C50.712 94.6724 51.0198 95.4912 51.1199 96.3485C51.1044 96.8735 50.9776 97.3891 50.7482 97.8605C50.5188 98.3319 50.1921 98.7485 49.79 99.0817C49.3879 99.4149 48.9197 99.6569 48.417 99.7921C47.9144 99.9273 47.3889 99.9526 46.8759 99.8655C46.3757 99.7211 45.912 99.47 45.5159 99.1295C45.1199 98.7889 44.8007 98.3666 44.5798 97.8911C44.359 97.4155 44.2416 96.8979 44.2355 96.3727C44.2295 95.8475 44.335 95.3269 44.5449 94.8463" stroke="#0E144F" stroke-width="2" stroke-linecap="round" stroke-linejoin="round"/>
<path d="M56.8089 50.6545C55.9029 47.503 55.9198 44.1542 56.8574 41.0121C57.795 37.87 59.6134 35.0688 62.093 32.9472C64.64 30.9086 67.717 29.6578 70.9525 29.3458C74.1881 29.0339 77.4439 29.6745 80.327 31.1896C81.927 32.066 83.441 33.2319 85.236 33.558C87.031 33.8841 89.246 32.9353 89.476 31.1088C89.501 30.7411 89.4466 30.3725 89.3166 30.0281C89.1866 29.6838 88.9841 29.3717 88.7231 29.1141C88.462 28.8565 88.1487 28.6592 87.8048 28.5359C87.4609 28.4125 87.0945 28.3662 86.731 28.3998C86.3739 28.4759 86.0374 28.6297 85.7447 28.8499C85.4521 29.0701 85.2102 29.3519 85.036 29.6757C84.8617 29.9995 84.7591 30.3575 84.7353 30.7252C84.7115 31.093 84.767 31.4614 84.898 31.8054" stroke="#0E144F" stroke-width="2" stroke-linecap="round" stroke-linejoin="round"/>
<path d="M52.075 95.6431L74.6071 78.5435" stroke="#0E144F" stroke-width="2" stroke-linecap="round" stroke-linejoin="round"/>
<path d="M85.593 35.926L81.165 68.3296" stroke="#0E144F" stroke-width="2" stroke-linecap="round" stroke-linejoin="round"/>
</svg>
